<?xml version="1.0" encoding="utf-8"?>
<!-- Generator: Adobe Illustrator 23.1.0, SVG Export Plug-In . SVG Version: 6.00 Build 0)  -->
<svg version="1.1" id="Layer_1" xmlns="http://www.w3.org/2000/svg" xmlns:xlink="http://www.w3.org/1999/xlink" x="0px" y="0px"
	 viewBox="0 0 1425.8 464" style="enable-background:new 0 0 1425.8 464;" xml:space="preserve">
<style type="text/css">
	.st0{fill:#FFC74A;}
	.st1{fill:#0F0F33;}
	.st2{fill:#92278F;}
	.st3{fill:#ECF0F1;}
</style>
<g>
	<g>
		<path class="st0" d="M323.5,331L282,402.9l-4.3,7.5l-13.1,22.8c-3,5.2-7,9.5-11.6,12.9c-0.5,0.4-1.1,0.8-1.6,1.1
			c-6.7,4.3-14.5,6.8-22.7,6.8H110.6c-14.9,0-28.6-7.9-36-20.8l-13.1-22.8l-4.3-7.5l-20.2-35l-1.2-2.1L15.6,331
			c-0.8-1.4-1.5-2.8-2.2-4.3c-0.3-0.6-0.5-1.2-0.7-1.8c-4.3-11.4-3.5-24.2,2.6-35c0.1-0.2,0.2-0.4,0.3-0.6l1.1-2l51-88.3l0.9-1.6
			l5.9-10.2c7.4-12.9,21.2-20.8,36-20.8h117.9c14.9,0,28.6,7.9,36,20.8l5.1,8.8l1.4,2.5l52.4,90.8
			C330.9,302.3,330.9,318.2,323.5,331z"/>
		<path class="st1" d="M228.5,464H110.6c-18.4,0-35.5-9.9-44.7-25.8l-59-102.1c-1-1.6-1.9-3.4-2.7-5.3v-0.1
			c-0.3-0.7-0.6-1.5-0.9-2.2c-5.4-14.2-4.2-30,3.1-43.3c0.1-0.3,0.3-0.5,0.4-0.8l1.1-2l57.8-100.1c9.2-15.9,26.3-25.8,44.7-25.8
			h117.9c18.4,0,35.5,9.9,44.7,25.8l58.9,102.1c9.2,15.9,9.2,35.7,0,51.6L273,438.1c-3.7,6.3-8.5,11.7-14.5,16
			c-0.7,0.5-1.5,1.1-2,1.4C248.3,461.1,238.6,464,228.5,464z M22.7,322.8c0.5,1.1,1,2.2,1.6,3.2l59,102.1
			c5.6,9.7,16.1,15.8,27.3,15.8h117.9c6.1,0,12.1-1.8,17.2-5.1c0.4-0.3,0.8-0.5,1.2-0.8c3.7-2.7,6.7-6,8.9-9.8l59-102.1
			c5.6-9.7,5.6-21.8,0-31.5l-59-102.1c-5.6-9.7-16.1-15.8-27.3-15.8H110.6c-11.2,0-21.7,6-27.3,15.8L24.1,294.9
			c-4.5,8.1-5.2,17.8-1.9,26.5v0.1C22.4,321.9,22.5,322.4,22.7,322.8z"/>
	</g>
	<g>
		<path class="st1" d="M282,402.9l-4.3,7.5l-21.4-37l-0.8-1.4v-0.1c-0.6-1-1.2-1.9-1.8-2.8c-0.1-0.2-0.2-0.3-0.4-0.5
			c-0.8-1-1.6-2-2.6-2.9c-0.2-0.2-0.5-0.5-0.7-0.7c-4.4-4.1-9.9-6.8-15.9-7.7c-0.5-0.1-1-0.2-1.5-0.2c-1-0.1-2.1-0.2-3.1-0.2H109.7
			c-10.7,0-20.7,5.8-26.1,15l-22.1,38.3l-4.3-7.5l20-34.6c6.7-11.6,19.1-18.8,32.5-18.8h119.8c4.2,0,8.3,0.7,12.1,2
			c0.7,0.2,1.3,0.5,1.9,0.7c0.6,0.2,1.2,0.5,1.8,0.8s1.2,0.6,1.8,0.9c1.1,0.6,2.1,1.2,3.1,1.9c0.7,0.5,1.3,0.9,2,1.4s1.3,1,1.9,1.6
			c0.6,0.5,1.2,1.1,1.8,1.7c2.3,2.3,4.4,4.9,6,7.8l0,0l0.9,1.5L282,402.9z"/>
		<path class="st1" d="M61.5,420.5L51.3,403l21.4-37.1c7.6-13.1,21.7-21.3,36.9-21.3h119.8c4.7,0,9.3,0.8,13.8,2.3
			c0.7,0.2,1.4,0.5,2.2,0.8c0.6,0.2,1.3,0.5,2.1,0.9c0.7,0.3,1.3,0.6,2,1c1.2,0.6,2.4,1.4,3.6,2.1c0.7,0.5,1.4,1,2.2,1.6
			c0.7,0.6,1.5,1.2,2.2,1.8c0.8,0.7,1.4,1.3,2,1.9c1.9,1.9,3.7,4,5.2,6.3h0.1l1.2,2.1c0.1,0.1,0.2,0.3,0.3,0.4l21.4,37.1l-10.1,17.5
			l-26.5-45.9c-0.5-0.8-1-1.6-1.5-2.3l-0.1-0.1c-0.1-0.1-0.1-0.2-0.2-0.2l-0.1-0.1c-0.6-0.8-1.3-1.6-2.1-2.4
			c-0.2-0.2-0.4-0.4-0.5-0.5c-3.7-3.5-8.3-5.7-13.3-6.5c-0.4-0.1-0.8-0.1-1.2-0.2c-0.9-0.1-1.7-0.1-2.6-0.1H109.7
			c-8.9,0-17.3,4.8-21.7,12.5L61.5,420.5z"/>
	</g>
	<path class="st2" d="M148.7,270.7c-0.1,3.6-2.7,6.2-6.3,6.3c-2.4,0.1-4.9,0.1-7.3,0.1c-4.2-0.1-6.7-2.7-6.8-6.9
		c-0.1-3.1,0-6.2,0-9.4l0,0c0-3.1-0.1-6.3,0-9.4c0.1-4.4,2.8-6.8,7.2-6.8c2.2,0,4.4,0,6.5,0c3.9,0.1,6.6,2.7,6.7,6.5
		C148.8,257.7,148.8,264.2,148.7,270.7z"/>
	<path class="st2" d="M210.7,270.5c-0.1,4-2.8,6.6-6.8,6.7c-2.3,0-4.5,0-6.8,0c-3.9,0-6.7-2.5-6.8-6.4c-0.1-6.6-0.1-13.2,0-19.9
		c0.1-3.7,2.8-6.2,6.6-6.3c2.3-0.1,4.7-0.1,7.1,0c3.7,0.1,6.5,2.6,6.6,6.3c0.1,3.4,0,6.8,0,10.2h0.1
		C210.7,264.2,210.8,267.4,210.7,270.5z"/>
	<g>
		<path class="st1" d="M97,270.3c0,1.5-1.4,1.5-2.6,1.5c-7.5,0-14.9,0-22.4,0c-0.2-0.9-0.2-1.7,0.1-2.6c7.5,0,14.9,0,22.4,0
			C95.4,269.2,97,268.6,97,270.3z"/>
		<g>
			<path class="st1" d="M267,282.2c-0.3,4.2-4.6,8.2-9,7.8c-4-0.3-5.8,1-7.4,4.7c-7.2,16-19.5,26.9-35.8,33.2
				c-8.8,3.4-17.9,4.9-27.3,4.9c-6.7,0-13.4,0.1-20.1,0.1c-1,0-2.1,0-3.1,0c-4.3,0-8.6,0-12.9-0.1c-5.4-0.1-10.7-0.6-15.9-1.6
				c-0.8-0.2-1.7-0.4-2.5-0.6c-8.9-2.1-17.4-5.9-25.1-11.7c-9.4-7-16.2-16-20.7-26.7c-0.7-1.8-1.7-2.3-3.4-2.2
				c-3.7,0.3-7.1-0.3-9.7-3.3c-0.9-1-1.5-2.1-1.7-3.4c-0.1-0.1-0.1-0.2-0.1-0.3c0-0.2,0.1-0.4,0.4-0.5c0.9-0.4,1.6,0,1.9,0.8
				c1.8,4.3,5.1,5.1,8.3,5.2c-1.3-0.2-2.6-0.5-3.9-0.9c-1.1-0.4-2.1-1-2.2-2.3c-0.1-0.8,0.3-1.4,0.9-1.7c1.1-0.6,2.2-0.4,3.1,0.5
				c0.4,0.4,0.8,0.9,1.3,0.8c4.2-0.7,7.6,2,11.5,2.3c2.3,0.2,2.9,0.7,3.8,3c0.2-1.2-0.5-1.8-0.9-2.6c-0.5-1-0.8-2-0.2-3
				c0.6-1.1,1.7-1.7,2.3-0.2c0.9,2.2,2.8,3.8,3.6,6c0.7-0.4,0.4-1,0.2-1.4c-2-2.9-2.8-6.3-4.3-9.4c-0.6-1.3-0.8-2.7-0.8-4.1
				c0-1.3-0.5-1.6-1.7-1.6c-6.6,0.2-13.2,0.1-19.9,0.1c-1.3,0-2.6,0.2-3.7-0.8v-1.6c1.1-1,2.4-0.9,3.7-0.9c5.3,0,10.6,0,15.9,0
				c1,0,2.1,0.1,3.2-0.3c-0.9-0.6-1.9-0.4-2.8-0.4c-5.4,0-10.8,0-16.2,0c-1.3,0-2.6,0.2-3.7-0.9c0.4-0.7,1.1-0.4,1.7-0.4
				c7.3,0,14.6,0,21.9,0c1.7,0,2.3,0.5,2.6,2.3c2.7,15.1,9.8,27.4,23,35.6c7.5,4.7,15.7,7.5,24.6,7.6c15.8,0.1,31.7,0.7,47.5-0.2
				c20.1-1.1,34.8-11.2,43.3-29.9c0.3-0.6,0.6-1.2,0.9-1.9c9.1-2.5,17.3-7.1,25.6-11.5c-5.9-0.2-11.8-0.1-17.6-0.2
				c-1.3,0-2.8,0.2-3.8-1c0.3-0.8,0.9-0.6,1.4-0.6c7.6,0,15.1,0,22.7,0c0.4,0,0.7,0,1,0.2C267.4,273.5,267.3,277.9,267,282.2z"/>
			<path class="st1" d="M103,291.6c-0.6,0.4-1.8,0.5-1.7-0.2c0.4-2.2-1.6-2.9-2.4-4.3c-0.5-0.9-0.7-1.9-1.1-3.1
				c-1.3,1-1.7,2.1-0.5,3.2c1.5,1.5,0.9,3,0.4,4.6c-0.2,0.6-0.5,1-1.1,0.7s-0.4-0.8-0.2-1.3c1.1-2.4-0.5-2.9-2.3-3.1
				c-2-0.3-4,0.4-5.8-1.8c-1-1.2-3.6-0.2-5.5-0.4c-1-0.1-2.1,0.3-2.5-1.2c-0.2-1.1-1.1-0.9-1.9-0.8c-0.7,0.1-1.1,0.6-1,1.3
				c0.1,0.9,0.7,1.6,1.5,1.6c2.6,0.2,4.9,1.7,7.6,1.2c0.6-0.1,1.2,0,1.8,0.2c0.5,0.1,0.5,0.7,0.4,1.1c-0.1,0.6-0.6,0.7-1,0.4
				c-1.6-1.4-3.5-0.7-5.2-0.7c-4,0.2-6.9-1.2-8.3-5.1c-0.4-1-0.7-1.7-1.7-0.6c0-0.1-0.1-0.2-0.1-0.3c-1-3.2-0.4-6.5-0.4-9.7
				c7.2,0,14.5,0,21.7,0c0.6,0,1.3,0.2,1.8,0c3.3-1.5,2.7,0.9,2.6,2.6c-0.1,1.6,0.7,2.9,1.2,4.4c1.1,3.5,3,6.6,4.6,9.8
				C104.5,291.2,103.6,291.3,103,291.6z"/>
			<path class="st1" d="M265.5,270.4c0,0.8-0.7,0.8-1.4,1.1c-3.3,1.5-6.5,3.4-9.9,4.9c-4.5,2.1-8.7,4.6-13.6,5.8c-1,0.3-2,0.7-3,0
				c1.2-4,2.5-7.9,3-12c0.1-0.9,0.4-1.4,1.4-1.4c8.1,0,16.3,0,24.4,0.1c0.1,0,0.2,0.2,0.4,0.3h-24.5c0.9,0.8,1.6,0.5,2.2,0.5
				c6.4,0,12.9,0,19.3,0C264.5,269.8,265.5,269.3,265.5,270.4z"/>
		</g>
	</g>
	<g>
		<path class="st1" d="M97,251.4c0-1.5-1.4-1.5-2.6-1.5c-7.5,0-14.9,0-22.4,0c-0.2,0.9-0.2,1.7,0.1,2.6c7.5,0,14.9,0,22.4,0
			C95.4,252.5,97,253.1,97,251.4z"/>
		<g>
			<path class="st1" d="M267,239.5c-0.3-4.2-4.6-8.2-9-7.8c-4,0.3-5.8-1-7.4-4.7c-7.2-16-19.5-26.9-35.8-33.2
				c-8.8-3.4-17.9-4.9-27.3-4.9c-6.7,0-13.4-0.1-20.1-0.1c-1,0-2.1,0-3.1,0c-4.3,0-8.6,0-12.9,0.1c-5.4,0.1-10.7,0.6-15.9,1.6
				c-0.8,0.2-1.7,0.4-2.5,0.6c-8.9,2.1-17.4,5.9-25.1,11.7c-9.4,7-16.2,16-20.7,26.7c-0.7,1.8-1.7,2.3-3.4,2.2
				c-3.7-0.3-7.1,0.3-9.7,3.3c-0.9,1-1.5,2.1-1.7,3.4c-0.1,0.1-0.1,0.2-0.1,0.3c0,0.2,0.1,0.4,0.4,0.5c0.9,0.4,1.6,0,1.9-0.8
				c1.8-4.3,5.1-5.1,8.3-5.2c-1.3,0.2-2.6,0.5-3.9,0.9c-1.1,0.4-2.1,1-2.2,2.3c-0.1,0.8,0.3,1.4,0.9,1.7c1.1,0.6,2.2,0.4,3.1-0.5
				c0.4-0.4,0.8-0.9,1.3-0.8c4.2,0.7,7.6-2,11.5-2.3c2.3-0.2,2.9-0.7,3.8-3c0.2,1.2-0.5,1.8-0.9,2.6c-0.5,1-0.8,2-0.2,3
				c0.6,1.1,1.7,1.7,2.3,0.2c0.9-2.2,2.8-3.8,3.6-6c0.7,0.4,0.4,1,0.2,1.4c-2,2.9-2.8,6.3-4.3,9.4c-0.6,1.3-0.8,2.7-0.8,4.1
				c0,1.3-0.5,1.6-1.7,1.6c-6.6-0.2-13.2-0.1-19.9-0.1c-1.3,0-2.6-0.2-3.7,0.8v1.6c1.1,1,2.4,0.9,3.7,0.9c5.3,0,10.6,0,15.9,0
				c1,0,2.1-0.1,3.2,0.3c-0.9,0.6-1.9,0.4-2.8,0.4c-5.4,0-10.8,0-16.2,0c-1.3,0-2.6-0.2-3.7,0.9c0.4,0.7,1.1,0.4,1.7,0.4
				c7.3,0,14.6,0,21.9,0c1.7,0,2.3-0.5,2.6-2.3c2.7-15.1,9.8-27.4,23-35.6c7.5-4.7,15.7-7.5,24.6-7.6c15.8-0.1,31.7-0.7,47.5,0.2
				c20.1,1.1,34.8,11.2,43.3,29.9c0.3,0.6,0.6,1.2,0.9,1.9c9.1,2.5,17.3,7.1,25.6,11.5c-5.9,0.2-11.8,0.1-17.6,0.2
				c-1.3,0-2.8-0.2-3.8,1c0.3,0.8,0.9,0.6,1.4,0.6c7.6,0,15.1,0,22.7,0c0.4,0,0.7,0,1-0.2C267.4,248.2,267.3,243.8,267,239.5z"/>
			<path class="st1" d="M103,230.1c-0.6-0.4-1.8-0.5-1.7,0.2c0.4,2.2-1.6,2.9-2.4,4.3c-0.5,0.9-0.7,1.9-1.1,3.1
				c-1.3-1-1.7-2.1-0.5-3.2c1.5-1.5,0.9-3,0.4-4.6c-0.2-0.6-0.5-1-1.1-0.7s-0.4,0.8-0.2,1.3c1.1,2.4-0.5,2.9-2.3,3.1
				c-2,0.3-4-0.4-5.8,1.8c-1,1.2-3.6,0.2-5.5,0.4c-1,0.1-2.1-0.3-2.5,1.2c-0.2,1.1-1.1,0.9-1.9,0.8c-0.7-0.1-1.1-0.6-1-1.3
				c0.1-0.9,0.7-1.6,1.5-1.6c2.6-0.2,4.9-1.7,7.6-1.2c0.6,0.1,1.2,0,1.8-0.2c0.5-0.1,0.5-0.7,0.4-1.1c-0.1-0.6-0.6-0.7-1-0.4
				c-1.6,1.4-3.5,0.7-5.2,0.7c-4-0.2-6.9,1.2-8.3,5.1c-0.4,1-0.7,1.7-1.7,0.6c0,0.1-0.1,0.2-0.1,0.3c-1,3.2-0.4,6.5-0.4,9.7
				c7.2,0,14.5,0,21.7,0c0.6,0,1.3-0.2,1.8,0c3.3,1.5,2.7-0.9,2.6-2.6c-0.1-1.6,0.7-2.9,1.2-4.4c1.1-3.5,3-6.6,4.6-9.8
				C104.5,230.5,103.6,230.5,103,230.1z"/>
			<path class="st1" d="M265.5,251.3c0-0.8-0.7-0.8-1.4-1.1c-3.3-1.5-6.5-3.4-9.9-4.9c-4.5-2.1-8.7-4.6-13.6-5.8c-1-0.3-2-0.7-3,0
				c1.2,4,2.5,7.9,3,12c0.1,0.9,0.4,1.4,1.4,1.4c8.1,0,16.3,0,24.4-0.1c0.1,0,0.2-0.2,0.4-0.3h-24.5c0.9-0.8,1.6-0.5,2.2-0.5
				c6.4,0,12.9,0,19.3,0C264.5,252,265.5,252.4,265.5,251.3z"/>
		</g>
	</g>
</g>
<g>
	<g>
		<path class="st3" d="M305.8,44.7c6.6-14.6,17.2-27.9,32-34.6c12.8-5.8,28.7-5.9,39.8,3.5c7.6,6.4,11.9,16,16.3,24.7
			c1.1,2.2,4.3,0.3,3.2-1.9c-4.2-8.4-8.4-17.4-15.3-24c-5.4-5.2-12.4-8.6-19.8-9.7c-15.8-2.3-31.6,4.8-42.8,15.7
			c-7.1,6.9-12.6,15.4-16.7,24.4C301.6,45,304.8,46.9,305.8,44.7L305.8,44.7z"/>
	</g>
	<g>
		<path class="st3" d="M395.5,38.1c11.8-2.9,24.6-6.6,36.9-4.6c7.8,1.3,15.1,4.7,20.9,10.1c10.8,9.9,16.1,25.7,11.2,39.8
			c-3.1,9-10,15.8-18.2,20.3c-2.1,1.2-0.2,4.4,1.9,3.2c7.9-4.3,14.9-10.8,18.6-19.1c3.3-7.4,4.1-15.6,2.5-23.5
			C466,48,452.8,34.6,436.6,30.6c-14-3.4-28.6,0.6-42.2,3.9C392.1,35.1,393.1,38.7,395.5,38.1L395.5,38.1z"/>
	</g>
	<g>
		<path class="st3" d="M442.8,105.9c9.9,13.1,14.1,32.5,4.1,46.8c-4.6,6.5-11.6,11-19.4,12.4c-7.6,1.4-15.6-0.2-22.7-3.1
			c-4-1.6-7.9-3.7-11.5-6.1c-4-2.7-8.2-5.9-9.2-10.9c-0.4-2.4-4.1-1.4-3.6,1c0.9,4.7,4.2,8.2,7.9,11c3.5,2.7,7.4,5,11.4,6.9
			c7.7,3.6,16.3,5.9,24.8,5.3c8.7-0.7,16.7-4.5,22.6-10.9c6.3-6.9,9.4-15.9,9.3-25.2c-0.2-10.5-4.1-20.8-10.4-29.1
			C444.6,102.1,441.3,104,442.8,105.9L442.8,105.9z"/>
	</g>
	<g>
		<path class="st3" d="M383,140.9c-5.3,11.2-13.3,20.9-25.4,25.1c-13.2,4.6-30.7,5-40.9-5.9c-5.8-6.2-8.7-14.5-11.4-22.3
			c-0.8-2.3-4.4-1.3-3.6,1c2.6,7.5,5.4,15.2,10.4,21.6c5.2,6.7,12.7,10.7,21.1,11.9c13.6,1.9,29-1.7,39.5-10.8
			c5.9-5.1,10.2-11.7,13.5-18.7C387.3,140.6,384.1,138.7,383,140.9L383,140.9z"/>
	</g>
	<g>
		<path class="st3" d="M299.4,138.1c0,0.3-0.1,0.5-0.1,0.8c0.4-0.4,0.9-0.9,1.3-1.3c-3.4,0.8-6.6,1.7-10.1,1.6
			c-3.1-0.1-6.2-0.5-9.2-1.2c-5.9-1.4-12.1-3.9-16.3-8.6c-4.8-5.3-5.9-13.1-5.4-20c0.4-5.9,2.6-11.4,6.2-16.1
			c4.1-5.3,9.3-9.7,14-14.5c0.7-0.7,0.7-1.9,0-2.7c-3.8-3.8-7.8-8-9-13.4c-1.2-5.2,0.7-10.8,4-14.8c6.9-8.5,19.6-12.5,29.8-7.8
			c0-1.1,0-2.2,0-3.2c-1,0.8-1.3,1.4-1.5,2.6c-0.3,2.4,3.5,2.4,3.8,0c-0.1,0.2-0.2,0.4-0.4,0.6c1-0.8,1.4-2.6,0-3.2
			c-9.4-4.4-20-2.7-28.4,3.2c-7.8,5.5-13.6,15.1-10.6,24.9c1.7,5.5,5.7,9.9,9.7,13.9c0-0.9,0-1.8,0-2.7c-4.6,4.7-9.7,9.1-13.8,14.3
			c-4.1,5.2-6.7,11.1-7.3,17.8c-0.8,7.4,0.4,15.7,4.9,21.9c4,5.5,10.4,8.8,16.8,10.7c3.8,1.1,7.7,1.8,11.6,2
			c4.3,0.2,8.2-0.8,12.4-1.7c0.6-0.1,1.2-0.7,1.3-1.3c0-0.3,0.1-0.5,0.1-0.8C303.4,136.7,299.8,135.7,299.4,138.1L299.4,138.1z"/>
	</g>
	<g>
		<path class="st3" d="M305.5,42.4c6.6-14.6,17.2-27.9,32-34.6c12.8-5.8,28.7-5.9,39.8,3.5c7.6,6.4,11.9,16,16.3,24.7
			c1.1,2.2,4.3,0.3,3.2-1.9c-4.2-8.4-8.4-17.4-15.3-24c-5.4-5.2-12.4-8.6-19.8-9.7c-15.8-2.3-31.6,4.8-42.8,15.7
			c-7.1,6.9-12.6,15.4-16.7,24.4C301.2,42.7,304.5,44.6,305.5,42.4L305.5,42.4z"/>
	</g>
	<g>
		<path class="st3" d="M395.1,35.8c11.8-2.9,24.6-6.6,36.9-4.6c7.8,1.3,15.1,4.7,20.9,10.1c10.8,9.9,16.1,25.7,11.2,39.8
			c-3.1,9-10,15.8-18.2,20.3c-2.1,1.2-0.2,4.4,1.9,3.2c7.9-4.3,14.9-10.8,18.6-19.1c3.3-7.4,4.1-15.6,2.5-23.5
			c-3.3-16.4-16.5-29.9-32.6-33.8c-14-3.4-28.6,0.6-42.2,3.9C391.8,32.8,392.8,36.4,395.1,35.8L395.1,35.8z"/>
	</g>
	<g>
		<path class="st3" d="M442.4,103.6c9.9,13.1,14.1,32.5,4.1,46.8c-4.6,6.5-11.6,11-19.4,12.4c-7.6,1.4-15.6-0.2-22.7-3.1
			c-4-1.6-7.9-3.7-11.5-6.1c-4-2.7-8.2-5.9-9.2-10.9c-0.4-2.4-4.1-1.4-3.6,1c0.9,4.7,4.2,8.2,7.9,11c3.5,2.7,7.4,5,11.4,6.9
			c7.7,3.6,16.3,5.9,24.8,5.3c8.7-0.7,16.7-4.5,22.6-10.9c6.3-6.9,9.4-15.9,9.3-25.2c-0.2-10.5-4.1-20.8-10.4-29.1
			C444.2,99.8,441,101.7,442.4,103.6L442.4,103.6z"/>
	</g>
	<g>
		<path class="st3" d="M381.6,141.7c-5.3,11.2-13.3,20.9-25.4,25.1c-13.2,4.6-30.7,5-40.9-5.9c-5.8-6.2-8.7-14.5-11.4-22.3
			c-0.8-2.3-4.4-1.3-3.6,1c2.6,7.5,5.4,15.2,10.4,21.6c5.2,6.7,12.7,10.7,21.1,11.9c13.6,1.9,29-1.7,39.5-10.8
			c5.9-5.1,10.2-11.7,13.5-18.7C385.9,141.4,382.7,139.5,381.6,141.7L381.6,141.7z"/>
	</g>
	<g>
		<path class="st3" d="M299,135.8c0,0.3-0.1,0.5-0.1,0.8c0.4-0.4,0.9-0.9,1.3-1.3c-3.4,0.8-6.6,1.7-10.1,1.6
			c-3.1-0.1-6.2-0.5-9.2-1.2c-5.9-1.4-12.1-3.9-16.3-8.6c-4.8-5.3-5.9-13.1-5.4-20c0.4-5.9,2.6-11.4,6.2-16.1
			c4.1-5.3,9.3-9.7,14-14.5c0.7-0.7,0.7-1.9,0-2.7c-3.8-3.8-7.8-8-9-13.4c-1.2-5.2,0.7-10.8,4-14.8c6.9-8.5,19.6-12.5,29.8-7.8
			c0-1.1,0-2.2,0-3.2c-1,0.8-1.3,1.4-1.5,2.6c-0.3,2.4,3.5,2.4,3.8,0c-0.1,0.2-0.2,0.4-0.4,0.6c1-0.8,1.4-2.6,0-3.2
			c-9.4-4.4-20-2.7-28.4,3.2C269.8,43.3,264,53,267,62.7c1.7,5.5,5.7,9.9,9.7,13.9c0-0.9,0-1.8,0-2.7c-4.6,4.7-9.7,9.1-13.8,14.3
			c-4.1,5.2-6.7,11.1-7.3,17.8c-0.8,7.4,0.4,15.7,4.9,21.9c4,5.5,10.4,8.8,16.8,10.7c3.8,1.1,7.7,1.8,11.6,2
			c4.3,0.2,8.2-0.8,12.4-1.7c0.6-0.1,1.2-0.7,1.3-1.3c0-0.3,0.1-0.5,0.1-0.8C303,134.4,299.4,133.4,299,135.8L299,135.8z"/>
	</g>
	<g>
		<path class="st3" d="M382.4,143.1c0.3,4.7,3.4,8.4,6.9,11.3c1.8,1.5,3.8,2.9,5.8,4.3c1.7,1.2,3.2,2.2,4.7,3.6
			c0.8,0.7,1.9,0.7,2.7,0c0.7-0.7,0.8-2,0-2.7c-3.1-2.7-6.8-4.8-9.9-7.4c-1.5-1.2-3.2-2.7-4.3-4.2c-0.6-0.8-1.1-1.6-1.5-2.5
			c0.1,0.2-0.1-0.4-0.2-0.5c-0.1-0.2-0.1-0.4-0.2-0.6c-0.2-0.6-0.2-0.7-0.2-1.3c-0.1-1-0.8-1.9-1.9-1.9
			C383.3,141.2,382.3,142.1,382.4,143.1L382.4,143.1z"/>
	</g>
	<g>
		<path class="st3" d="M380.7,171.7c-4.5-0.6-8.2,1.8-9.8,5.9c-0.7,1.7-1,3.7-1,5.5c0,2.6-0.3,5.2,0.8,7.6c1,2.2,3,4,5.4,4.5
			c2.1,0.5,4.4,0.2,6.6,0.3c2.4,0.1,4.9,0.2,7.1-0.8s3.6-3,4.3-5.2c1.6-4.5,0.5-10-2.8-13.4c-1.8-1.9-4-2.8-6.5-3.4
			c-2.7-0.7-5.2-1.4-8-1.2c-4.8,0.4-7.5,5.6-8.6,9.8c-1.1,4.3-0.8,9.6,3.1,12.4c2.4,1.7,5.3,1.8,8.1,2.3c2.8,0.5,5.8,0.9,8.5-0.2
			c2.3-0.9,4.7-2.9,6-5.1c1.5-2.5,0.7-5.5,0.6-8.3c0-2.4-3.8-2.4-3.8,0c0,1,0.1,1.9,0.2,2.9s0.2,2.1-0.1,3c-0.4,1.2-2.1,2.5-3.2,3.3
			c-1.5,1.1-3.5,1.1-5.3,0.9c-2-0.2-4.1-0.5-6-0.9c-1.7-0.3-3.3-0.9-4.2-2.5c-0.8-1.4-0.9-3-0.8-4.5c0.1-1.6,0.5-3.3,1.2-4.8
			c0.6-1.4,1.5-3,2.7-4c1.4-1.2,3.6-0.9,5.3-0.5c1,0.2,2,0.5,2.9,0.7s1.8,0.4,2.6,0.7c3.6,1.5,5.1,5.3,4.9,8.9
			c-0.1,1.5-0.5,3.2-1.4,4.4c-1,1.3-2.5,1.5-4.1,1.6c-1.9,0-3.7-0.2-5.6-0.1c-1.5,0-3.1,0.2-4.3-0.8c-1.8-1.4-1.9-3.4-1.9-5.6
			c0.1-1.8,0-3.5,0.4-5.2c0.4-1.5,1-2.8,2.2-3.8s2.9-1.1,4.6-0.9c1,0.1,1.9-1,1.9-1.9C382.6,172.4,381.7,171.8,380.7,171.7
			L380.7,171.7z"/>
	</g>
	<g>
		<path class="st3" d="M355.9,199.3c-3.5,1.7-5.3,5.3-4.9,9.2c0.2,1.8,0.8,3.5,2.2,4.7c1.3,1.2,2.9,2,4.5,2.6
			c3.4,1.3,7.6,1.5,10.6-0.8s5.2-6.6,3.9-10.4c-2.1-6.2-10.4-7.9-15.9-5.7c-2.8,1.1-5.1,3.2-6,6.2c-0.9,3.1-0.1,6.7,2.8,8.4
			c1.6,0.9,3.3,1.2,5.1,1.3c1.2,0.1,2.5,0.2,3.7,0.2c2.6,0,7.1-0.4,6.9-4c-0.1-1-0.8-1.9-1.9-1.9c-1,0-1.9,0.9-1.9,1.9
			c0,0.1,0,0.2,0,0.2c0-0.1,0-0.2,0-0.3c0,0.1,0,0.1,0,0s0.1-0.2,0,0s0.3-0.4,0.1-0.1c0.2-0.3,0.1-0.1-0.1,0c-0.2,0.2,0,0,0.1,0
			c-0.1,0-0.3,0.1-0.4,0.1c-0.2,0.1-0.4,0.1-0.6,0.1c-0.5,0.1,0.3,0-0.1,0c-0.1,0-0.2,0-0.3,0c-0.6,0-1.1,0.1-1.7,0.1
			c-1,0-2-0.1-3-0.2c-0.9-0.1-1.7-0.1-2.5-0.2c-0.3-0.1-0.6-0.1-0.9-0.2c-0.1,0-0.3-0.1-0.4-0.1c0.2,0.1-0.1,0-0.1-0.1
			c-0.1-0.1-0.2-0.1-0.3-0.2c0,0-0.5-0.3-0.3-0.2c0,0-0.4-0.4-0.5-0.5c-0.2-0.2,0.1,0.2,0,0c-0.1-0.1-0.2-0.2-0.2-0.4
			c0-0.1-0.1-0.3,0,0c0-0.1-0.1-0.2-0.1-0.3s-0.2-0.7-0.1-0.4c0-0.3,0-0.7,0-1c0-1,0.3-1.7,0.8-2.6c0.4-0.6,1.1-1.3,1.8-1.7
			c3.2-2,8.1-1.8,10.9,0.6c2.2,1.9,2,4.4,0.5,6.6c-1.5,2.3-3.8,3-6.3,2.6c-1.5-0.2-2.9-0.8-4.2-1.5c-0.7-0.4-1-0.6-1.5-1.1
			c-0.3-0.3-0.6-0.7-0.7-1.1c-0.4-1.3-0.3-2.7,0.2-3.9c0.4-1.1,1.4-2.1,2.7-2.7c0.9-0.5,1.2-1.7,0.7-2.6
			C357.9,199.1,356.8,198.9,355.9,199.3L355.9,199.3z"/>
	</g>
	<g>
		<path class="st3" d="M335.4,215.6c-1.7-0.3-3.3,0.1-4.7,1.2c-1.1,0.9-1.9,2.3-1.9,3.8c0,2.8,2.6,4.6,5.1,5.1
			c2.6,0.5,5.6,0.1,7.1-2.4c1.3-2,1.3-5.3-0.5-7c-1-0.9-2.2-1.6-3.5-2.1c-1.1-0.5-2.4-0.8-3.6-0.5c-1,0.2-1.6,1.4-1.3,2.3
			c0.3,1,1.3,1.5,2.3,1.3c0.3-0.1,0.1,0.1-0.2,0c0.1,0,0.2,0,0.2,0c0.1,0,0.2,0,0.2,0c0.3,0-0.5-0.1-0.2,0c0.4,0.1,0.8,0.2,1.1,0.3
			c0.1,0,0.2,0.1,0.3,0.1c0.2,0.1,0.4,0.2,0,0c0.2,0.1,0.3,0.2,0.5,0.2c0.4,0.2,0.8,0.4,1.2,0.7c0.1,0.1,0.5,0.5,0.1,0
			c0.1,0.1,0.3,0.2,0.4,0.3s0.1,0.1,0.2,0.2c0.2,0.2-0.3-0.4-0.1-0.2l0.1,0.2c-0.1,0-0.2-0.5,0-0.1c0.1,0.2,0.1,0.4,0.1,0.6
			c0.1,0.4,0-0.5,0-0.1c0,0.1,0,0.2,0,0.3c0,0.2,0,0.4,0,0.5c-0.1-0.4,0.1-0.3,0-0.1c0,0.1-0.1,0.3-0.1,0.4c0,0.1-0.1,0.2-0.1,0.3
			c-0.1,0.4,0.2-0.4,0-0.1c-0.1,0.2-0.2,0.3-0.3,0.5c-0.2,0.3,0.3-0.3,0,0c-0.1,0.1-0.1,0.2-0.2,0.2c-0.2,0.2-0.2,0,0.1,0
			c-0.1,0-0.3,0.2-0.4,0.2c-0.3,0.2,0.3-0.1,0.1,0c-0.1,0-0.1,0.1-0.2,0.1c-0.2,0.1-0.4,0.1-0.6,0.1c-0.4,0.1,0.5,0,0.1,0
			c-0.1,0-0.2,0-0.3,0c-0.2,0-0.4,0-0.7,0c-0.2,0-0.4-0.1-0.7-0.1c0.5,0,0.2,0,0.1,0s-0.2,0-0.3-0.1c-0.2,0-0.4-0.1-0.5-0.1
			s-0.2-0.1-0.3-0.1c-0.1,0-0.1,0-0.2-0.1c-0.2-0.1-0.1-0.1,0.2,0.1c-0.2-0.1-0.4-0.2-0.6-0.3c-0.1-0.1-0.3-0.2-0.4-0.3
			c0.4,0.3,0.2,0.2,0.1,0c-0.1-0.1-0.1-0.1-0.2-0.2c-0.2-0.2-0.1-0.3,0.1,0.1c0-0.1-0.1-0.2-0.2-0.3c-0.1-0.2,0.1-0.1,0.1,0.2
			c0,0-0.1-0.4-0.1-0.5c0,0.1,0,0.2,0,0.3c0-0.1,0-0.2,0-0.2c0-0.1,0-0.1,0-0.2c0,0.3-0.1,0.4,0,0.2c0-0.1,0.1-0.2,0.1-0.3
			c0.1-0.4-0.2,0.4,0,0c0.1-0.1,0.1-0.2,0.2-0.3c0-0.1,0.1-0.1,0.1-0.2c-0.2,0.2-0.2,0.3-0.1,0.1c0.1-0.1,0.2-0.2,0.2-0.2
			c0.1-0.1,0.1-0.1,0.2-0.2c-0.2,0.2-0.3,0.2-0.1,0.1c0.1,0,0.2-0.1,0.3-0.2c0.1,0,0.1-0.1,0.2-0.1c0.2-0.1,0.1-0.1-0.1,0l0.3-0.1
			c0.1,0,0.2,0,0.2-0.1c0.2,0,0.2,0-0.1,0c0,0,0.3,0,0.4,0s0.2,0,0.2,0c-0.3,0-0.3-0.1-0.1,0c1,0.2,2.1-0.3,2.3-1.3
			C336.9,217,336.4,215.8,335.4,215.6L335.4,215.6z"/>
	</g>
</g>
<g>
	<path class="st3" d="M371.4,109.1H356v-9.4c0-4.6,0.5-7.9,1.5-9.9s3.4-4.4,7.2-7.3c5.9-4.4,8.8-9.2,8.8-14.4c0-2.4-0.9-4.5-2.8-6.2
		c-1.8-1.7-4.1-2.6-6.7-2.6c-4,0-7.9,1.6-11.7,4.9l-5.9-8.8c5.9-5.4,12.9-8.2,21.2-8.2c7,0,12.4,2.4,16.2,7.3
		c2.9,3.7,4.4,8,4.4,12.9c0,7.6-3.1,14.5-9.3,20.7c-0.5,0.5-1.2,1.1-2,1.9c-3.7,3.3-5.5,6.8-5.5,10.7L371.4,109.1L371.4,109.1z
		 M354.8,121.2c0-2.4,0.8-4.5,2.5-6.2s3.7-2.5,6-2.5s4.4,0.8,6,2.5c1.7,1.7,2.5,3.7,2.5,6.2c0,2.3-0.8,4.3-2.4,6
		c-1.6,1.6-3.7,2.4-6.1,2.4s-4.5-0.8-6.1-2.4C355.7,125.6,354.8,123.6,354.8,121.2z"/>
</g>
<g>
	<path class="st3" d="M528.5,252.3c9.1,35.5,16.4,63.6,22,84.4l16.2-84.4h27l-31.4,126.6h-21.6l-26-88.4l-26.2,88.4h-21.8
		l-30.6-126.6h26.8l15.8,84.4c9.6-34.9,17.1-63.1,22.6-84.4L528.5,252.3L528.5,252.3z"/>
	<path class="st3" d="M608.3,263.7l25.2-13.8v49c2.1-4.1,6.5-7.7,13.2-10.6c4.4-1.9,8.5-2.8,12.4-2.8c11.6,0,20,3.2,25.3,9.5
		s7.9,16.5,7.9,30.5v53.4h-25.2v-52.4c0-13.1-5.6-19.6-16.8-19.6c-8.1,0-13.7,2.3-16.8,6.8v65.2h-25.2L608.3,263.7L608.3,263.7z"/>
	<path class="st3" d="M802.5,341.7h-62.4c0.5,6.1,3,11.2,7.5,15.3c4.5,4.1,9.8,6.1,15.9,6.1c8.7,0,17.7-2.7,27.2-8l6.4,13.4
		c-9.6,8.5-21.6,12.8-36,12.8c-15.5,0-27.5-4.4-36.2-13.2c-8.3-8.3-12.4-19.7-12.4-34.2c0-14.3,4.7-26.1,14-35.4
		c8.4-8.5,19.1-12.8,32-12.8c14.4,0,25.6,4.9,33.6,14.6c6.9,8.3,10.4,19,10.4,32.2V341.7z M738.7,323.1h38.6
		c-0.7-13.1-7-19.6-19-19.6C746.7,303.5,740.1,310.1,738.7,323.1z"/>
	<path class="st3" d="M845.1,288.1l2.4,8c1.3-2.8,3.9-5.2,7.7-7.3c3.8-2.1,7.7-3.1,11.7-3.1c12,0,20.9,5.7,26.8,17l-21.2,11.6
		c-4.4-5.1-9.1-7.6-14-7.6c-4.5,0-7.9,2.3-10,7v65.2h-24.8v-90.8L845.1,288.1L845.1,288.1z"/>
	<path class="st3" d="M986.1,341.7h-62.4c0.5,6.1,3,11.2,7.5,15.3c4.5,4.1,9.8,6.1,15.9,6.1c8.7,0,17.7-2.7,27.2-8l6.4,13.4
		c-9.6,8.5-21.6,12.8-36,12.8c-15.5,0-27.5-4.4-36.2-13.2c-8.3-8.3-12.4-19.7-12.4-34.2c0-14.3,4.7-26.1,14-35.4
		c8.4-8.5,19.1-12.8,32-12.8c14.4,0,25.6,4.9,33.6,14.6c6.9,8.3,10.4,19,10.4,32.2V341.7z M922.3,323.1h38.6
		c-0.7-13.1-7-19.6-19-19.6C930.3,303.5,923.7,310.1,922.3,323.1z"/>
	<path class="st3" d="M1089.2,252.3h22l46.6,126.6h-26.6c-2.3-6.7-5.1-15.5-8.4-26.4h-45.4c-1.9,6-4.7,14.8-8.6,26.4h-26.2
		L1089.2,252.3z M1100.4,286.5c-3.7,10.5-8.9,25.3-15.4,44.4h30.4C1109.2,312.5,1104.2,297.7,1100.4,286.5z"/>
	<path class="st3" d="M1196.6,296.9c7.5-7.5,16.8-11.2,28-11.2c7.7,0,14.6,1.6,20.5,4.9s10,7.6,12.3,13.1c2.9-5.3,7.5-9.7,13.7-13
		s13-5,20.3-5c21.3,0,32,12.9,32,38.8v54.4H1298v-47.6c0-8.9-1.3-15.2-3.9-18.9c-2.6-3.7-7-5.5-13.1-5.5c-8.8,0-15.9,3.5-21.4,10.4
		v61.6h-25.2v-50.4c0-7.9-1.4-13.4-4.2-16.7c-2.8-3.3-7.6-4.9-14.4-4.9c-4,0-7.8,0.6-11.3,1.8c-3.5,1.2-5.8,2.7-6.9,4.4v65.8h-25.2
		v-90.8h21.4l1.8,8.8L1196.6,296.9L1196.6,296.9z"/>
	<path class="st3" d="M1425.8,252.3v126.6H1400V252.3H1425.8z"/>
</g>
</svg>
