<?xml version="1.0" encoding="utf-8"?>
<!-- Generator: Adobe Illustrator 23.1.0, SVG Export Plug-In . SVG Version: 6.00 Build 0)  -->
<svg version="1.1" id="Layer_1" xmlns="http://www.w3.org/2000/svg" xmlns:xlink="http://www.w3.org/1999/xlink" x="0px" y="0px"
	 viewBox="0 0 500 200" style="enable-background:new 0 0 500 200;" xml:space="preserve">
<style type="text/css">
	.st0{fill:#941B80;}
	.st1{fill:#BFBFBF;}
</style>
<g>
	<rect class="st0" width="500" height="200"/>
</g>
<g>
	<path class="st1" d="M141.5,86.6c1.5-0.3,3.5-0.5,6-0.5c3.1,0,5.4,0.7,6.8,2c1.3,1.2,2.1,2.9,2.1,5.1c0,2.2-0.6,3.9-1.9,5.2
		c-1.7,1.8-4.4,2.7-7.4,2.7c-0.9,0-1.8,0-2.5-0.2v9.7h-3.1V86.6z M144.6,98.3c0.7,0.2,1.5,0.3,2.6,0.3c3.8,0,6.1-1.8,6.1-5.2
		c0-3.2-2.3-4.8-5.7-4.8c-1.4,0-2.4,0.1-3,0.3V98.3z"/>
	<path class="st1" d="M160.6,86.3h3.1v21.6h10.4v2.6h-13.5V86.3z"/>
	<path class="st1" d="M181.5,102.9l-2.5,7.6h-3.2l8.2-24.3h3.8l8.3,24.3h-3.3l-2.6-7.6H181.5z M189.5,100.5l-2.4-7
		c-0.5-1.6-0.9-3-1.3-4.4h-0.1c-0.4,1.4-0.8,2.9-1.2,4.4l-2.4,7H189.5z"/>
	<path class="st1" d="M216.1,109.8c-1.2,0.6-3.5,1.2-6.4,1.2c-6.8,0-12-4.3-12-12.3c0-7.6,5.1-12.7,12.7-12.7c3,0,4.9,0.6,5.8,1.1
		l-0.8,2.6c-1.2-0.6-2.9-1-4.9-1c-5.7,0-9.5,3.6-9.5,10c0,5.9,3.4,9.8,9.3,9.8c1.9,0,3.9-0.4,5.1-1L216.1,109.8z"/>
	<path class="st1" d="M232.5,99.2h-9.4v8.7h10.5v2.6H220V86.3h13.1v2.6h-10v7.7h9.4V99.2z"/>
	<path class="st1" d="M240.8,86.3v10.2h11.7V86.3h3.2v24.3h-3.2V99.2h-11.7v11.4h-3.1V86.3H240.8z"/>
	<path class="st1" d="M281.9,98.2c0,8.4-5.1,12.8-11.3,12.8c-6.4,0-10.9-5-10.9-12.3c0-7.7,4.8-12.7,11.3-12.7
		C277.6,85.9,281.9,91,281.9,98.2z M263.1,98.6c0,5.2,2.8,9.8,7.7,9.8c5,0,7.8-4.6,7.8-10.1c0-4.8-2.5-9.9-7.7-9.9
		C265.7,88.5,263.1,93.3,263.1,98.6z"/>
	<path class="st1" d="M286,86.3h3.1v21.6h10.4v2.6H286V86.3z"/>
	<path class="st1" d="M303,86.6c1.9-0.3,4.2-0.5,6.7-0.5c4.5,0,7.7,1,9.8,3c2.2,2,3.4,4.8,3.4,8.7c0,4-1.2,7.2-3.5,9.4
		c-2.3,2.3-6,3.5-10.7,3.5c-2.2,0-4.1-0.1-5.7-0.3V86.6z M306.1,108.1c0.8,0.1,1.9,0.2,3.2,0.2c6.7,0,10.3-3.7,10.3-10.3
		c0-5.7-3.2-9.4-9.8-9.4c-1.6,0-2.8,0.1-3.7,0.3V108.1z"/>
	<path class="st1" d="M339.5,99.2h-9.4v8.7h10.5v2.6h-13.6V86.3H340v2.6h-10v7.7h9.4V99.2z"/>
	<path class="st1" d="M344.6,86.6c1.6-0.3,3.9-0.5,6-0.5c3.3,0,5.5,0.6,7,2c1.2,1.1,1.9,2.7,1.9,4.6c0,3.2-2,5.3-4.6,6.2V99
		c1.9,0.6,3,2.4,3.6,4.9c0.8,3.4,1.4,5.7,1.9,6.7h-3.2c-0.4-0.7-0.9-2.8-1.6-5.8c-0.7-3.3-2-4.6-4.9-4.7h-3v10.5h-3.1V86.6z
		 M347.8,97.7h3.2c3.3,0,5.5-1.8,5.5-4.6c0-3.1-2.3-4.5-5.6-4.5c-1.5,0-2.6,0.1-3.1,0.3V97.7z"/>
</g>
</svg>
