<svg xmlns="http://www.w3.org/2000/svg" viewBox="0 0 75.54 75.54"><defs><style>.cls-1{fill:#ecf0f1;}</style></defs><title>Asset 4</title><g id="Layer_2" data-name="Layer 2"><g id="Layer_1-2" data-name="Layer 1"><g id="_4" data-name="4"><path class="cls-1" d="M37.77,0A37.77,37.77,0,1,0,75.54,37.77,37.77,37.77,0,0,0,37.77,0ZM54.3,40.13h-25L39,49.86A2.36,2.36,0,1,1,35.7,53.2L22.34,39.84a2.32,2.32,0,0,1-.61-2.07,2.32,2.32,0,0,1,.61-2.07L35.7,22.34A2.36,2.36,0,1,1,39,25.68l-9.73,9.73h25a2.36,2.36,0,0,1,0,4.72Z"/></g></g></g></svg>