<svg xmlns="http://www.w3.org/2000/svg" xmlns:xlink="http://www.w3.org/1999/xlink" viewBox="0 0 500 200"><defs><style>.cls-1{fill:none;}.cls-2{fill:#fff200;}.cls-3{clip-path:url(#clip-path);}.cls-4{fill:#951b81;}</style><clipPath id="clip-path"><rect class="cls-1" x="176.63" y="15" width="146.73" height="170"/></clipPath></defs><title>cus_srvc</title><g id="Layer_2" data-name="Layer 2"><g id="Layer_1-2" data-name="Layer 1"><rect class="cls-2" width="500" height="200"/><g class="cls-3"><path class="cls-4" d="M308.82,72.33a53.07,53.07,0,0,0-105-4.87,5.41,5.41,0,0,0-1.44.57l-6.21,3.73a9.51,9.51,0,0,0-4.32,5.63c-2.31,8.34-.63,22.69,20.35,43.66,16.64,16.65,29.11,21.14,37.72,21.14a22.9,22.9,0,0,0,5.94-.78,9.51,9.51,0,0,0,5.63-4.33l3.73-6.21a5,5,0,0,0,.56-1.45,53.06,53.06,0,0,0,43-57.09m-47,56.52-3.73,6.21a5.57,5.57,0,0,1-3.29,2.55c-10.37,2.85-24.52-4-39.85-19.35S192.78,88.8,195.63,78.43a5.59,5.59,0,0,1,2.55-3.3l6.22-3.73a1.13,1.13,0,0,1,1.52.34l9.92,14.86a1.14,1.14,0,0,1-.25,1.52L210,92.45a5,5,0,0,0-1.33,6.44l.44.8a52.65,52.65,0,0,0,10.73,13.69,52.44,52.44,0,0,0,13.7,10.73l.79.44a5,5,0,0,0,6.45-1.32l4.32-5.56a1.13,1.13,0,0,1,1.52-.25l14.86,9.9a1.14,1.14,0,0,1,.33,1.53m3.29-3.31a5,5,0,0,0-1.45-1.49l-14.86-9.9a5.08,5.08,0,0,0-6.8,1.1l-4.33,5.56a1.11,1.11,0,0,1-1.42.31l-.83-.46a48.94,48.94,0,0,1-12.8-10,49.19,49.19,0,0,1-10.06-12.8l-.45-.83a1.1,1.1,0,0,1,.3-1.42L218,91.23a5.08,5.08,0,0,0,1.11-6.8l-9.9-14.86a4.94,4.94,0,0,0-1.5-1.45,49.13,49.13,0,1,1,57.43,57.42"/><path class="cls-4" d="M236.07,59.76V92.9h-6.86V67.56c-.49.31-1.21.75-2.15,1.31-1.36.8-2.34,1.41-2.93,1.83q-.67-1.15-2.3-3.82l-.32-.47c-.24-.45-.43-.79-.57-1,1.11-.8,2.88-2,5.28-3.61,1.26-.84,2.25-1.52,3-2Z"/><path class="cls-4" d="M262.13,65.26H250.57V72a4.44,4.44,0,0,1,1.72-.26c3.84,0,6.83,1,9,2.87a9.75,9.75,0,0,1,3,7.59,10.8,10.8,0,0,1-3.77,8.43,11.62,11.62,0,0,1-8,2.94A15.14,15.14,0,0,1,241.56,89l2.83-4.34a12.39,12.39,0,0,0,7.38,2.88c3.66,0,5.5-1.65,5.5-4.93q0-5.49-7.07-5.49a30.5,30.5,0,0,0-6.44.89V59.76h18.37Z"/><path class="cls-4" d="M280.93,59.13q6.07,0,9.74,5.81a20.87,20.87,0,0,1,3.08,11.47q0,8-3.92,12.82A11.35,11.35,0,0,1,271.19,88a21.21,21.21,0,0,1-2.93-11.57q0-7.75,3.87-12.72a10.69,10.69,0,0,1,8.8-4.56M281,65q-5.65,0-5.65,11.1a19.71,19.71,0,0,0,1.62,8.8q1.47,2.88,3.88,2.88,2.67,0,4.21-3.12a19.53,19.53,0,0,0,1.54-8.56q0-11.1-5.6-11.1"/><path class="cls-4" d="M216.62,160.45a7.55,7.55,0,0,0-5.49,2.39,13.72,13.72,0,0,0-3.29,5.56c-.8-.11-1.2-.66-1.2-1.66v-4.65l-2.95,1.55v3.1a1.84,1.84,0,0,1-.38,1.3,1.71,1.71,0,0,1-1.27.39H198.9a1.71,1.71,0,0,1-1.27-.39,1.84,1.84,0,0,1-.37-1.3V156.13l-2.94,1.57v11.62a3.44,3.44,0,0,1-1,2.63,4.29,4.29,0,0,1-5.48-.06,3.73,3.73,0,0,1-1-2.76,6.38,6.38,0,0,1,1-3.5l-2.91.66a6.12,6.12,0,0,0-.85,3.24,6,6,0,0,0,1.41,4,6.34,6.34,0,0,0,5.16,2.21,7,7,0,0,0,4.06-1.17,5.93,5.93,0,0,0,2.42-3.67,4,4,0,0,0,1.55.36h3.71a4.38,4.38,0,0,0,2.84-.92,4.34,4.34,0,0,0,2.83.92h10.14a4.28,4.28,0,0,0,3-1,4.2,4.2,0,0,0,1.34-3.33v-.51a5.91,5.91,0,0,0-1.41-4,5.58,5.58,0,0,0-4.43-1.92m2.88,6.26a2.12,2.12,0,0,1-.31,1.35,1.47,1.47,0,0,1-1.16.37h-7.3a9.5,9.5,0,0,1,2.5-3.83,5,5,0,0,1,3.41-1.41,2.65,2.65,0,0,1,2.07.9,3.31,3.31,0,0,1,.79,2.3Z"/><polygon class="cls-4" points="226.1 171.27 229.06 171.27 229.06 156.13 226.1 157.7 226.1 171.27"/><path class="cls-4" d="M245.25,158.78c1,0,1.52-.52,1.52-1.57a1.54,1.54,0,1,0-3.07,0,1.56,1.56,0,0,0,.42,1.15,1.53,1.53,0,0,0,1.13.42"/><path class="cls-4" d="M248.84,158.78c1,0,1.52-.52,1.52-1.57a1.56,1.56,0,0,0-2.64-1.1,1.46,1.46,0,0,0-.43,1.1,1.57,1.57,0,0,0,.42,1.14,1.5,1.5,0,0,0,1.13.43"/><path class="cls-4" d="M255.55,166.36a2.25,2.25,0,0,1-.46,1.6,2.09,2.09,0,0,1-1.53.47h-2.19a1.7,1.7,0,0,1-1.26-.39,1.84,1.84,0,0,1-.38-1.3v-5.89l-3,1.55v4.34a1.84,1.84,0,0,1-.37,1.3,1.71,1.71,0,0,1-1.27.39h-3.59v-3.64a4.37,4.37,0,0,0-1-3,4.08,4.08,0,0,0-3.26-1.34,4.35,4.35,0,0,0-3.29,1.31,5.77,5.77,0,0,0-1.4,4.09,5.06,5.06,0,0,0,4.83,5.25l.61.07.59.05a1.79,1.79,0,0,1-.84,1.29,2.92,2.92,0,0,1-1.74.54,5,5,0,0,1-2.54-.73v2.56a5.81,5.81,0,0,0,2.89.8,5.45,5.45,0,0,0,3.28-1,4.49,4.49,0,0,0,1.88-3.38h3.87a4.36,4.36,0,0,0,2.84-.92,4.36,4.36,0,0,0,2.84.92h2.63A4.62,4.62,0,0,0,257.1,170a4.86,4.86,0,0,0,1.38-3.63V156.13l-2.93,1.57Zm-16.94,2a9.66,9.66,0,0,1-1.06-.11,2.22,2.22,0,0,1-2.06-2.54c0-1.7.59-2.56,1.78-2.56.89,0,1.34.52,1.34,1.55Z"/><polygon class="cls-4" points="262.71 171.27 265.67 171.27 265.67 156.13 262.71 157.7 262.71 171.27"/><path class="cls-4" d="M278.1,158.48a1.38,1.38,0,0,0,1.53-1.58,1.5,1.5,0,0,0-.41-1.11,1.54,1.54,0,0,0-1.12-.41,1.51,1.51,0,0,0-1.12.42,1.46,1.46,0,0,0-.43,1.1,1.52,1.52,0,0,0,.43,1.15,1.48,1.48,0,0,0,1.12.43"/><path class="cls-4" d="M293.12,166.64a5.31,5.31,0,0,0-2.39-4.67,6.24,6.24,0,0,0-3.1-1.05l4.27-4.79h-3l-4.76,5.3v2.84a7.42,7.42,0,0,1,2.48-.47,3.91,3.91,0,0,1,2.55.8,2.55,2.55,0,0,1,1,2.07v.14a1.45,1.45,0,0,1-1.65,1.62h-7.11a1.72,1.72,0,0,1-1.27-.39,1.84,1.84,0,0,1-.37-1.3v-5.89l0,0v0l-1,.54-1.93,1V170a3.47,3.47,0,0,1-.71,2.31,2.5,2.5,0,0,1-2,.83,4.81,4.81,0,0,1-2.39-.68v2.59a6,6,0,0,0,2.88.75,4.87,4.87,0,0,0,3.27-1.18,5.5,5.5,0,0,0,1.8-3.57,4.73,4.73,0,0,0,1.48.22h7.7a4.37,4.37,0,0,0,3-1,4.27,4.27,0,0,0,1.31-3.31Z"/><path class="cls-4" d="M314.88,162.16a4.28,4.28,0,0,0-3.62-1.71,4,4,0,0,0-4.27,4.34v2a1.84,1.84,0,0,1-.37,1.3,1.72,1.72,0,0,1-1.27.39h-2.82a1.7,1.7,0,0,1-1.26-.39,1.84,1.84,0,0,1-.38-1.3v-5.89l0,0v0l-1,.54-1.93,1V170a3.47,3.47,0,0,1-.71,2.31,2.5,2.5,0,0,1-2,.83,4.81,4.81,0,0,1-2.39-.68v2.59a6.07,6.07,0,0,0,2.88.75,4.87,4.87,0,0,0,3.27-1.18,5.5,5.5,0,0,0,1.8-3.57,4.73,4.73,0,0,0,1.48.22h3.38a4.54,4.54,0,0,0,2.72-.82,5.38,5.38,0,0,0,3.08.82,4.14,4.14,0,0,0,3.16-1.32,5.79,5.79,0,0,0,1.39-4.1,5.91,5.91,0,0,0-1.1-3.69m-3.55,6.27q-1.38,0-1.38-1.32v-2.37c0-1,.44-1.55,1.31-1.55,1.21,0,1.81.86,1.81,2.56s-.58,2.68-1.74,2.68"/></g></g></g></svg>