<svg xmlns="http://www.w3.org/2000/svg" viewBox="0 0 412.27 133.7"><defs><style>.cls-1{font-size:95.43px;font-family:DINCondensed-Bold, DIN Condensed;font-weight:700;}.cls-1,.cls-2{fill:#fff;}</style></defs><title>Asset 4</title><g id="Layer_2" data-name="Layer 2"><g id="Layer_1-2" data-name="Layer 1"><text class="cls-1" transform="translate(133.16 103.93)">INTERNET</text><path class="cls-2" d="M96.21,49.34a2.1,2.1,0,0,1-1.5-.62,29.15,29.15,0,0,0-41,0,2.13,2.13,0,0,1-3-3,33.4,33.4,0,0,1,47,0,2.13,2.13,0,0,1-1.5,3.64Z"/><path class="cls-2" d="M88.55,56.94a2.15,2.15,0,0,1-1.5-.62,18.24,18.24,0,0,0-25.69,0,2.13,2.13,0,0,1-3-3,22.49,22.49,0,0,1,31.69,0,2.13,2.13,0,0,1-1.5,3.64Z"/><path class="cls-2" d="M80.89,64.53a2.12,2.12,0,0,1-1.51-.63A7.52,7.52,0,0,0,69,63.9a2.12,2.12,0,1,1-3-3,11.6,11.6,0,0,1,16.4,0,2.14,2.14,0,0,1,0,3,2.12,2.12,0,0,1-1.5.61Z"/><path class="cls-2" d="M70.66,87.14h-7.1a5,5,0,0,1-5-5v-7.1a2.13,2.13,0,0,1,4.26,0v7.1a.71.71,0,0,0,.71.71h7.1a2.13,2.13,0,0,1,0,4.26Z"/><path class="cls-2" d="M87.69,95.66H80.6a5,5,0,0,1-5-5V77.91a5,5,0,0,1,5-5h7.09a2.13,2.13,0,1,1,0,4.26H80.6a.71.71,0,0,0-.71.71V90.69a.71.71,0,0,0,.71.71h5V87.14H83.44a2.13,2.13,0,0,1,0-4.26h4.25A2.13,2.13,0,0,1,89.82,85v8.52A2.13,2.13,0,0,1,87.69,95.66Z"/><path class="cls-2" d="M103.31,75.07h-7.1a2.13,2.13,0,1,1,0-4.25h7.1a2.13,2.13,0,1,1,0,4.25Z"/><path class="cls-2" d="M70.66,72.94a2.13,2.13,0,0,0-2.13,2.13V93.53a2.13,2.13,0,1,0,4.26,0V75.07A2.14,2.14,0,0,0,70.66,72.94Z"/><path class="cls-2" d="M99.76,67.27a2.13,2.13,0,0,0-2.13,2.13v7.09a2.13,2.13,0,0,0,4.26,0V69.4A2.13,2.13,0,0,0,99.76,67.27Z"/><path class="cls-2" d="M73.5,36.35a17.25,17.25,0,0,1,3,.28V8.89A8.92,8.92,0,0,0,67.61,0H8.9A8.92,8.92,0,0,0,0,8.89v113.9a8.91,8.91,0,0,0,8.9,8.9H67.61a8.91,8.91,0,0,0,8.89-8.89V97H70.32v18.24H6.19V14.1H70.32V36.68A16.19,16.19,0,0,1,73.5,36.35Zm-35.24,82a4.45,4.45,0,1,1-4.46,4.44A4.44,4.44,0,0,1,38.26,118.35ZM47.65,8.57H28.86a1.08,1.08,0,0,1,0-2.16H47.65a1.08,1.08,0,0,1,0,2.16Z"/></g></g></svg>