<svg xmlns="http://www.w3.org/2000/svg" viewBox="0 0 253.33 99.65"><defs><style>.cls-1{fill:#fff;}</style></defs><title>Asset 3</title><g id="Layer_2" data-name="Layer 2"><g id="Layer_1-2" data-name="Layer 1"><path class="cls-1" d="M231.85,26.4s-2.12.42-2.39,2.15-2.09,11.7-2.09,11.7-.63,3.25,3.16,1.56,11.65-1.86,15.12,4.9c0,0,1.26,1.7-4,4.38-5.47,2.81-12.58,5.11-13.69,4.45s-2.58-1.15-3.27,1.61-2.27,11.2-2.13,13c0,.54.26,2.58,3.15,2s18-5.2,21.68-12,5.82-18.48,5.82-18.48,2.47-19.5-21.41-15.26"/><path class="cls-1" d="M208.31,41.23a3.35,3.35,0,0,1,1.85.33s3.57,3,4.81-1.1,2.33-10.78,2.33-10.78a2.07,2.07,0,0,0-1.79-2.41c-2.58-.68-26.58-3.09-33.25,32a2.93,2.93,0,0,1-1.51,2c-1.37.82-7.14,4.12-7.14,4.12s-1.51.41-1.1-1.51,5.36-40.53-7.15-62.65c0,0-1.23-1.93-3,.41s-6.59,8.93-6.59,8.93a2.1,2.1,0,0,0-.14,2.06c.55,1.1,13.52,8.9,9,61.39,0,0,.27,9.07,7.14,6.87a34.17,34.17,0,0,0,6.68-3.41s1.78,0,2.47,2.34,5.22,12.64,17,10.85c0,0,9.89-2.33,10.85-12.22s1.38-18.14,1.38-18.14,0-5-4-7.42-12.78.27-19.23,5.22c0,0,9.22-17.2,21.37-16.82m-18.63,29.6s8-6.87,11.55-4.4C203.56,68,206,70,203.42,72.06s-7,5.64-13.87.69c0,0-1.93-1.1.13-1.92"/><path class="cls-1" d="M33.48,44.13a2.41,2.41,0,0,1,1.78,2.2s.69,2.47,3,0c0,0,6.74-8.11,7.15-10s.27-1.92-1-3.16S38.58,29.41,36.82,28c-1.59-1.31-2.88-2.89-5-.74a90.06,90.06,0,0,0-6.6,8.66s-1.24,1.51.41,3.43,6.05,4.26,7.84,4.81"/><path class="cls-1" d="M237.5,79.39c-1.74-1.12-4-2-5.59,0-1,1.23-2.67,3.16-4,5-3.16,0-6.1-3.76-6.63-4.65-.27-.45-1.16-2.76-3.49-.28,0,0-6.49,8.17-7.15,10-.5,1.42-.16,1.82,1,3.16a37.56,37.56,0,0,0,6.75,5.51c1.74,1.1,3.77,2.54,5.89.39a57.17,57.17,0,0,0,4.44-5.59c4.58,1.48,5.68,4.16,5.88,4.7s1,3.8,3.79.85c0,0,6.62-8.13,7.14-10,.43-1.52.12-1.79-1-3.16a37.25,37.25,0,0,0-7.05-5.86"/><path class="cls-1" d="M135.14,36.72c-8,1-32.29,17.72-32.29,17.72-1.13.35-.52-.86,0-1.58a106.81,106.81,0,0,0,7.52-13.19C114,32.25,108.82,20.37,87,28.75a11.47,11.47,0,0,0-5.15,4,88.86,88.86,0,0,0-4.74,10.3c-2.37,5.77,1.34,3.71,3.4,2.27s2.44.31,2.44.31,1.78,7.14,1.65,8.52a2.54,2.54,0,0,1-1.1,1.92S66.7,65.2,62.79,65.27c-1.31,0-1.3-1-1.16-1.62C62,61.72,67,23.12,54.48,1c0,0-1.23-1.92-3,.42s-6.59,8.93-6.59,8.93a2.1,2.1,0,0,0-.14,2.06c.55,1.1,13.52,8.9,9,61.39,0,0,.21,8.83,7.14,6.86,5.57-1.58,22.51-10.92,23.44-11.51,2.12-1.33,2.2,0,2.2,0s.27,2.62.27,3.16.75,1.9,3.85,1.1c3.39-.86,25.56-14.84,25.56-14.84a64.24,64.24,0,0,0-3.3,10.72c-1.51,9.62,9.34,10.44,9.34,10.44,13.88,1,21.44-28.16,21.85-32.28s-1-11.68-8.93-10.72m-33.25,7.55c-.28,1.24-5.92,4.86-7.7,5.78-1.3.67-1.37-.55-1.37-.55s-1-5.5-1.38-7a1.69,1.69,0,0,1,1-2.06c11.81-1.79,9.75,2.61,9.48,3.84m24.73,19.79c-5.64-.14-5.17-7-4.4-8.52,2.75-5.56,9.89-3.71,9.89-3.71,5.5,1.44.14,12.37-5.49,12.23"/><path class="cls-1" d="M40.71,53.1c-2.78.82-22.23,11.66-22.23,11.66l-.27.15s-1.51.41-1.1-1.51S22.47,22.87,10,.74c0,0-1.24-1.92-3,.42S.35,10.09.35,10.09a2.1,2.1,0,0,0-.14,2.06c.55,1.1,13.53,8.9,9,61.38,0,0-.55,9.76,7.15,6.88A49.17,49.17,0,0,0,23,77s8.86-5.61,10-6.28c1.86-1.13,3.81-2.37,6.08-2.27a3.73,3.73,0,0,0,3.51-1.65A73.34,73.34,0,0,0,46,56.5c.92-3.71-2.48-4.23-5.26-3.4"/><path class="cls-1" d="M79.28,22.74c5-2.22,15.26-7.79,25.14-7.55s14.72-.34,16.7-1.16,6.86-6.12,8.39-7,1.35-3.07-2.35-3.57-40.77,9.24-52,18c0,0-.94,3.49,4.08,1.27"/></g></g></svg>