<?xml version="1.0" encoding="utf-8"?>
<!-- Generator: Adobe Illustrator 23.1.0, SVG Export Plug-In . SVG Version: 6.00 Build 0)  -->
<svg version="1.1" id="Layer_1" xmlns="http://www.w3.org/2000/svg" xmlns:xlink="http://www.w3.org/1999/xlink" x="0px" y="0px"
	 viewBox="0 0 412.3 133.7" style="enable-background:new 0 0 412.3 133.7;" xml:space="preserve">
<style type="text/css">
	.st0{fill:#FFFFFF;}
</style>
<g>
	<g>
		<g>
			<path class="st0" d="M139,104.1V36.4h15.6c11.4,0,17.1,6.6,17.1,19.9c0,4-0.6,7.4-1.9,10.2c-1.2,2.8-3.4,5-6.5,6.7l10.4,30.9
				h-10.3l-9-28.9h-5.8v28.9H139z M148.7,45.5v21.1h5.5c1.7,0,3.1-0.2,4.1-0.7c1-0.5,1.8-1.2,2.4-2c0.5-0.9,0.9-2,1-3.3
				c0.2-1.3,0.3-2.8,0.3-4.5s-0.1-3.2-0.3-4.5c-0.2-1.3-0.6-2.4-1.1-3.4c-1.2-1.8-3.5-2.7-6.8-2.7H148.7z"/>
		</g>
		<g>
			<path class="st0" d="M178.9,52.4c0-2.7,0.5-5.1,1.4-7.2c1-2.1,2.2-3.8,3.8-5.2c1.5-1.3,3.2-2.3,5.2-3c1.9-0.7,3.9-1,5.8-1
				c2,0,3.9,0.3,5.8,1c1.9,0.7,3.7,1.7,5.3,3c1.5,1.4,2.8,3.1,3.7,5.2c1,2.1,1.4,4.5,1.4,7.2v35.7c0,2.8-0.5,5.3-1.4,7.3
				c-0.9,2-2.2,3.7-3.7,5c-1.6,1.4-3.3,2.4-5.3,3.1c-1.9,0.7-3.9,1-5.8,1c-2,0-3.9-0.3-5.8-1c-1.9-0.7-3.7-1.7-5.2-3.1
				c-1.6-1.3-2.8-3-3.8-5c-1-2-1.4-4.5-1.4-7.3V52.4z M188.6,88.1c0,2.3,0.6,4.1,1.9,5.2c1.3,1.1,2.8,1.7,4.6,1.7
				c1.8,0,3.3-0.6,4.6-1.7c1.3-1.1,1.9-2.8,1.9-5.2V52.4c0-2.3-0.7-4.1-1.9-5.2c-1.3-1.1-2.8-1.7-4.6-1.7c-1.8,0-3.3,0.6-4.6,1.7
				c-1.3,1.1-1.9,2.8-1.9,5.2V88.1z"/>
		</g>
		<g>
			<path class="st0" d="M214.4,104.1l15.1-67.6h8.1l15.1,67.6H243l-2.9-14.5H227l-2.9,14.5H214.4z M238.4,80.4l-4.8-24.5h-0.2
				l-4.8,24.5H238.4z"/>
		</g>
		<g>
			<path class="st0" d="M257.5,104.1V36.4h9.3l12.4,35.8h0.2l12.4-35.8h9.4v67.6h-9.7V62.9h-0.2L281.7,92h-4.8l-9.5-29.1h-0.2v41.1
				H257.5z"/>
		</g>
		<g>
			<path class="st0" d="M310.6,104.1V36.4h9.7v67.6H310.6z"/>
		</g>
		<g>
			<path class="st0" d="M329.3,104.1V36.4h9.3l14.6,40.8h0.2V36.4h9.7v67.6H354l-14.8-40.7H339v40.7H329.3z"/>
		</g>
		<g>
			<path class="st0" d="M371.3,52.4c0-2.7,0.5-5.1,1.4-7.2c1-2.1,2.2-3.8,3.8-5.2c1.5-1.3,3.2-2.3,5.2-3c1.9-0.7,3.9-1,5.8-1
				c2,0,3.9,0.3,5.8,1c1.9,0.7,3.7,1.7,5.3,3c1.5,1.4,2.8,3.1,3.7,5.2c1,2.1,1.4,4.5,1.4,7.2v3.4h-9.7v-3.4c0-2.3-0.7-4.1-1.9-5.2
				c-1.3-1.1-2.8-1.7-4.6-1.7c-1.8,0-3.3,0.6-4.6,1.7c-1.3,1.1-1.9,2.8-1.9,5.2v35.7c0,2.3,0.6,4.1,1.9,5.2c1.3,1.1,2.8,1.7,4.6,1.7
				c1.8,0,3.3-0.6,4.6-1.7c1.3-1.1,1.9-2.8,1.9-5.2V75.4h-7.7v-8.5h17.4v21.3c0,2.8-0.5,5.3-1.4,7.3c-0.9,2-2.2,3.7-3.7,5
				c-1.6,1.4-3.3,2.4-5.3,3.1c-1.9,0.7-3.9,1-5.8,1c-2,0-3.9-0.3-5.8-1c-1.9-0.7-3.7-1.7-5.2-3.1c-1.6-1.3-2.8-3-3.8-5
				c-1-2-1.4-4.5-1.4-7.3V52.4z"/>
		</g>
	</g>
	<g>
		<g>
			<path class="st0" d="M76.5,52.5V9.9c0-5-3.9-8.9-8.9-8.9H8.9C3.9,1,0,4.9,0,9.9v113.9c0,5,3.9,8.9,8.9,8.9h58.7
				c5,0,8.9-3.9,8.9-8.9V84.2h-6.2v32H6.2V15.2h64.2v41L76.5,52.5z M38.2,119.4c2.4,0,4.4,2,4.4,4.4c0,2.4-2,4.4-4.4,4.4
				c-2.4,0-4.4-2-4.4-4.4l0,0C33.8,121.4,35.8,119.4,38.2,119.4L38.2,119.4z M47.7,9.6H28.9c-0.6,0.1-1.1-0.4-1.2-1s0.4-1.1,1-1.2
				c0.1,0,0.1,0,0.2,0h18.8c0.6,0.1,1,0.6,1,1.2C48.6,9.1,48.2,9.5,47.7,9.6z"/>
		</g>
		<g>
			<path class="st0" d="M48.5,71.8L48.5,71.8c-0.7,0.4-1,1.3-0.6,2.1c0.3,0.7,1.1,1,1.8,0.7l21.2-7.1l-4,6.5
				c-0.3,0.6-0.2,1.3,0.4,1.7c0.4,0.2,0.8,0.2,1.2,0l4.2-2.2c0.1-0.1,0.2-0.2,0.3-0.2l12.3-12.9l15.2-7.9c5.8-3.1,5.1-5.5,4.8-6.2
				c-0.5-0.8-1.3-1.4-2.2-1.5c-1.8-0.4-3.7-0.3-5.5,0.1C97,45,96.5,45,95.9,45c-1.6,0-2.7,0.1-8.2,2.9l-30,15.6l-11.6-6
				c-0.4-0.2-1-0.2-1.4,0l-2,1c-0.4,0.2-0.7,0.6-0.8,1s0,0.9,0.3,1.3l8.1,10.1L48.5,71.8z"/>
		</g>
		<g>
			<path class="st0" d="M106.6,86.9c0,1.6-1.3,2.9-2.9,2.9H46.9c-1.6-0.1-2.8-1.5-2.7-3.1c0.1-1.5,1.3-2.6,2.7-2.7h56.8
				C105.3,84,106.6,85.3,106.6,86.9z"/>
		</g>
	</g>
</g>
</svg>
