<?xml version="1.0" encoding="utf-8"?>
<!-- Generator: Adobe Illustrator 23.1.0, SVG Export Plug-In . SVG Version: 6.00 Build 0)  -->
<svg version="1.1" id="Layer_1" xmlns="http://www.w3.org/2000/svg" xmlns:xlink="http://www.w3.org/1999/xlink" x="0px" y="0px"
	 viewBox="0 0 418 105" style="enable-background:new 0 0 418 105;" xml:space="preserve">
<style type="text/css">
	.st0{fill:#92278F;}
	.st1{fill:#FFFFFF;}
</style>
<path class="st0" d="M395.9,102.2H22.1c-6.1,0-11-4.9-11-11V13.8c0-6.1,4.9-11,11-11h373.8c6.1,0,11,4.9,11,11v77.4
	C407,97.3,402,102.2,395.9,102.2z"/>
<title>amzg</title>
<g>
	<g id="Layer_1-2">
		<path class="st1" d="M97.9,55.9H87.5v19.3h-5.9V55.9H71V50h10.6V30.7h5.9V50h10.5V55.9z"/>
		<path class="st1" d="M115.2,54.7c2.7-0.1,5.4,1,7.3,3c1.9,1.9,3,4.6,2.9,7.3c0.1,2.7-1,5.4-2.9,7.3c-4,4-10.5,4-14.5,0
			c-2-1.9-3-4.6-2.9-7.3c0-2.7,1-5.4,3-7.3C109.9,55.7,112.5,54.6,115.2,54.7z M120.7,64.9c0-1.5-0.5-3-1.6-4.1
			c-1-1.1-2.5-1.6-3.9-1.6c-1.4,0-2.8,0.6-3.8,1.6c-1.1,1.1-1.7,2.5-1.6,4.1c0,1.5,0.6,2.9,1.6,4c1,1.1,2.4,1.7,3.8,1.6
			c1.5,0,2.9-0.6,3.9-1.6C120.2,67.8,120.7,66.4,120.7,64.9z"/>
		<path class="st1" d="M163.5,75.2h-32.9V30.8h32.9v5.9h-27v32.6h27V75.2z"/>
		<path class="st1" d="M181.5,54.7c2.7-0.1,5.4,1,7.3,3c1.9,1.9,3,4.6,2.9,7.3c0.1,2.7-1,5.4-2.9,7.3c-4,4-10.5,4-14.5,0
			c-1.9-1.9-3-4.6-2.9-7.3c-0.1-2.7,1-5.4,2.9-7.3C176.2,55.7,178.8,54.6,181.5,54.7z M187,64.9c0-1.5-0.5-3-1.6-4.1
			c-1-1.1-2.5-1.6-3.9-1.6c-1.4,0-2.8,0.6-3.8,1.6c-1.1,1.1-1.7,2.5-1.6,4.1c0,1.5,0.6,2.9,1.6,4c1,1.1,2.4,1.6,3.8,1.6
			c1.5,0,2.9-0.6,3.9-1.6C186.5,67.8,187,66.4,187,64.9z"/>
		<path class="st1" d="M219.8,55.9c4.5-0.2,8.8,1.3,12.2,4.3c3.3,3,4.9,7.9,4.7,14.9h-5.9c0.1-5.1-1.2-8.9-4.1-11.5
			c-1.5-1.1-3.8-1.7-6.9-1.8v13.3h-5.9V61.8c-3.1,0.1-5.4,0.7-6.9,1.8c-2.9,2.5-4.2,6.4-4,11.6H197c-0.2-7,1.4-12,4.7-15
			c3.4-3,7.8-4.5,12.3-4.3v-5.7c-4.5,0.2-8.9-1.3-12.2-4.3c-3.3-3-4.9-8-4.7-15h5.9c-0.2,5.2,1.1,9,4,11.5c1.4,1.1,3.7,1.8,6.9,1.8
			V30.8h5.9v13.3c3.2-0.1,5.5-0.7,6.9-1.8c2.9-2.5,4.3-6.4,4.1-11.5h5.9c0.1,7-1.4,12-4.7,15c-3.3,3-7.7,4.5-12.2,4.3V55.9z"/>
		<path class="st1" d="M253,62.1l19.5,8V76l-30.1-12.2L256.3,52l-13.4-11.7L272.5,29v5.9L254,42l10.8,9.5L253,62.1z"/>
		<path class="st1" d="M278.3,30.7h5.9v19h22.7v-19h5.9v24.9h-14.3v19.5h-6V55.7h-14.3V30.7z"/>
		<path class="st1" d="M347,55.9h-10.5v19.3h-5.9V55.9H320V50h10.6V30.7h5.9V50H347V55.9z"/>
	</g>
</g>
</svg>
