<svg xmlns="http://www.w3.org/2000/svg" viewBox="0 0 422 425.6"><defs><style>.cls-1{fill:#ffc74a;}.cls-2{fill:#0f0f33;}.cls-3{fill:#92278f;}</style></defs><title>logo_lg_1</title><g id="Layer_2" data-name="Layer 2"><g id="Layer_1-2" data-name="Layer 1"><path class="cls-1" d="M353.67,161.82l-38.51,66.71-4,7L299,256.71a40.51,40.51,0,0,1-10.8,12l-1.65.94A39.8,39.8,0,0,1,265.37,276h-109A38.17,38.17,0,0,1,123,256.71l-12.22-21.14-4-6.81L88,196.35l-1.17-1.88L68.31,161.82a20.94,20.94,0,0,1-1.88-4c-.23-.47-.47-1.17-.7-1.64a38.29,38.29,0,0,1,2.35-32.42l.23-.46.94-1.88,47.21-82,.94-1.41,5.4-9.4A38.86,38.86,0,0,1,156.39,9.4H265.6A38.19,38.19,0,0,1,299,28.65l4.7,8.22,1.41,2.35,48.61,84.09A38.8,38.8,0,0,1,353.67,161.82Z"/><path class="cls-2" d="M265.37,285.36h-109a47.78,47.78,0,0,1-41.52-24L78.7,199.11,60.14,166.46a30.35,30.35,0,0,1-2.44-5.14c-.12-.27-.23-.55-.34-.83l-.42-1a47.41,47.41,0,0,1,2.84-40.15l1.33-2.62,47.54-82.5.76-1.15L114.66,24A48,48,0,0,1,156.39,0H265.6a47.78,47.78,0,0,1,41.52,24l6,10.38,48.7,84.21a48,48,0,0,1,0,47.87l0,.05-54.72,94.89a49.66,49.66,0,0,1-13.37,14.84l-.91.59-1.48.85A49.12,49.12,0,0,1,265.37,285.36ZM94.94,189.66l1.23,2,35,60.37a29,29,0,0,0,25.22,14.56h109a30.45,30.45,0,0,0,16.13-4.89l1.48-.86a31.26,31.26,0,0,0,7.92-8.95l54.62-94.72a29.3,29.3,0,0,0,0-29.2L290.79,33.31A29,29,0,0,0,265.6,18.79H156.39A29.33,29.33,0,0,0,130.9,33.42l-54.67,95a29.06,29.06,0,0,0-1.82,24.15c.13.29.27.61.39.93l.55,1.34a11,11,0,0,0,1,2.13Z"/><path d="M143.7,105.46c0,1.4-1.4,1.4-2.34,1.4H120.69a3.89,3.89,0,0,1,0-2.34h20.67C142.3,104.52,143.7,104.05,143.7,105.46Z"/><path class="cls-2" d="M315.16,228.53l-4,7-19.72-34.29-.71-1.17h0a25.42,25.42,0,0,0-1.64-2.59l-.47-.47a12.3,12.3,0,0,0-2.35-2.58l-.71-.71a28.19,28.19,0,0,0-14.79-7c-.47,0-.94-.24-1.41-.24-.94,0-1.88-.23-2.82-.23H155.45a28.37,28.37,0,0,0-24.19,13.62l-20.44,35.47-4-6.81,18.55-32.18A35,35,0,0,1,155.45,179H266.54a37.55,37.55,0,0,1,11.27,1.88c.71.23,1.18.47,1.88.7a11.26,11.26,0,0,1,1.65.71l1.64.94c.94.47,1.88,1.17,2.82,1.64a13.32,13.32,0,0,1,1.88,1.41c.7.47,1.17.94,1.88,1.41a5.57,5.57,0,0,1,1.64,1.64,43.92,43.92,0,0,1,5.64,7.28h0l.7,1.41Z"/><path class="cls-2" d="M311.2,247.41l-25.72-44.67a13.88,13.88,0,0,0-.86-1.35l-.7-.81a10.14,10.14,0,0,0-1.17-1.41l-.63-.54-.7-.71a22.11,22.11,0,0,0-11.34-5.36,8,8,0,0,1-1.26-.22c-.54,0-1.07-.08-1.6-.15a5.05,5.05,0,0,0-.68-.07H155.45a22.63,22.63,0,0,0-19.18,10.81L110.87,247,100,228.55l20.26-35.14a41,41,0,0,1,35.15-20.31H266.54a43.39,43.39,0,0,1,13,2.14c.58.2,1,.35,1.37.51.2.08.38.16.61.23a17.76,17.76,0,0,1,2.38,1l1.86,1.05c.57.3,1.15.65,1.72,1,.31.19.62.4.93.55a10.57,10.57,0,0,1,2.5,1.75c.51.36.93.69,1.35,1,.17.14.33.27.53.41a11.23,11.23,0,0,1,2.91,2.75,49.4,49.4,0,0,1,6.07,7.91l.3.53.62,1.25,19.21,33.29Zm-41.85-55h0Z"/><path class="cls-3" d="M191.62,105.93a5.82,5.82,0,0,1-5.87,5.87h-6.82a6,6,0,0,1-6.34-5.64V96.77h0V88.08a6,6,0,0,1,5.64-6.35h7.05a5.68,5.68,0,0,1,6.1,5.64v.47A155.29,155.29,0,0,1,191.62,105.93Z"/><path class="cls-3" d="M249.16,105.69a6,6,0,0,1-5.87,6.11h-6.81a6,6,0,0,1-6.34-5.64V87.37A5.81,5.81,0,0,1,236,81.5h6.81a5.82,5.82,0,0,1,6.1,5.64v9.63h0C249.16,99.82,249.16,102.87,249.16,105.69Z"/><path class="cls-2" d="M301.3,116.49a8.4,8.4,0,0,1-8.46,7.28c-3.75-.23-5.4.94-6.81,4.47A57.72,57.72,0,0,1,252.92,159a66.43,66.43,0,0,1-25.37,4.47H194.2a79,79,0,0,1-14.8-1.41l-2.34-.47a60.3,60.3,0,0,1-23.26-10.81,58.52,58.52,0,0,1-19.26-24.66,2.34,2.34,0,0,0-3-1.88,9.88,9.88,0,0,1-8.92-3,7.76,7.76,0,0,1-1.65-3v-.24c0-.23,0-.47.24-.47a1.35,1.35,0,0,1,1.64.47v.24a7.75,7.75,0,0,0,7.75,4.7,30.3,30.3,0,0,1-3.76-.94,2.8,2.8,0,0,1-2.11-2.12,1.57,1.57,0,0,1,.94-1.64,2.49,2.49,0,0,1,2.82.47c.23.47.7.94,1.17.7,3.76-.7,7,1.88,10.57,2.12,2.12.23,2.59.7,3.52,2.81.24-1.17-.47-1.64-.7-2.34a3,3,0,0,1-.23-2.82c.46-1.18,1.64-1.65,2.11-.24.94,2.12,2.58,3.53,3.29,5.64.7-.47.47-.94.23-1.17a58.36,58.36,0,0,1-4-8.69,10.69,10.69,0,0,1-.71-3.76c0-1.18-.47-1.41-1.64-1.41-6.11.23-12.21,0-18.32,0a4.83,4.83,0,0,1-3.52-.71v-1.41a5.68,5.68,0,0,1,3.52-.94h14.8a6.08,6.08,0,0,0,2.82-.46c-.94-.71-1.65-.47-2.59-.47h-15a4.83,4.83,0,0,1-3.52-.71c.47-.7.94-.47,1.64-.47H142.3c1.64,0,2.11.47,2.34,2.11,2.35,14.1,9.16,25.37,21.38,33.12a44.09,44.09,0,0,0,22.78,7.05c14.56,0,29.36.7,43.92-.24,18.79-1.17,32.41-10.33,40.16-27.71a6,6,0,0,1,.94-1.65,125.49,125.49,0,0,0,23.72-10.57c-5.4-.23-10.8,0-16.44-.23-1.17,0-2.58.23-3.52-.94.23-.7.7-.47,1.17-.47h21.14a1.38,1.38,0,0,1,.94.24A46.7,46.7,0,0,1,301.3,116.49Z"/><path class="cls-2" d="M149.34,125.18c-.47.47-1.64.47-1.64-.23.23-2.11-1.41-2.58-2.35-4a13,13,0,0,1-.94-2.82c-1.18.94-1.64,1.88-.47,3s.7,2.82.47,4.23c-.24.47-.47.94-.94.7s-.47-.7-.24-1.17c.94-2.11-.46-2.58-2.11-2.82s-3.76.47-5.4-1.64c-.94-1.18-3.29-.24-5.17-.47-.94,0-2.11.23-2.35-1.18-.23-.94-1.17-.94-1.88-.7-.7,0-.94.7-.94,1.17h0a1.52,1.52,0,0,0,1.41,1.41c2.35.24,4.47,1.65,7,1.18a4.06,4.06,0,0,1,1.64.23,1,1,0,0,1,.47.94.69.69,0,0,1-.94.47c-1.4-1.17-3.28-.7-4.93-.7a7.16,7.16,0,0,1-7.75-4.7c-.23-.94-.7-1.65-1.64-.47v-.24a28.59,28.59,0,0,1-.24-8.92H142.3c3-1.41,2.34.94,2.34,2.35a7.85,7.85,0,0,0,1.18,4,77.93,77.93,0,0,0,4.23,9.16C150.75,125,149.81,125,149.34,125.18Z"/><path class="cls-2" d="M299.89,105.69c0,.7-.7.7-1.17,1.17-3.06,1.41-6.11,3.06-9.16,4.7a63.52,63.52,0,0,1-12.45,5.17c-.94.23-1.88.7-2.82,0a80.35,80.35,0,0,0,2.82-11.27,1.25,1.25,0,0,1,1.41-1.41h22.54a.85.85,0,0,0,.47.23H278.75c.71.71,1.41.47,2.12.47h17.85C299,105,299.89,104.52,299.89,105.69Z"/><path class="cls-2" d="M276.87,59a6.67,6.67,0,0,0-4.69,7c0,.7,0,1.64-.94,1.88s-1.41-.94-1.65-1.65c-.47-1.41-1.17-2.11-2.82-1.64a46.42,46.42,0,0,0-31-16.68,37.73,37.73,0,0,0-7.28-.23H193.26A58.58,58.58,0,0,0,176.35,50c-.47-.24-1.17,0-1.41-.47v-.24c.24-1.41,1.41-1.17,2.35-1.41s2.35-.23,2.58-1.64-.7-2.11-1.88-2.35a2,2,0,0,1-1.4-2.11c0-1.65-.71-2.35-2.59-2.35s-2.35-.94-1.88-2.82a6.35,6.35,0,0,1-5.4.94c-.47-.24-1.41-.24-1.17-1.18a67.88,67.88,0,0,1,27.95-5.87c11.27,0,22.78-.47,34.05,0l3.06.24H232a79.82,79.82,0,0,1,14.8,2.35l2.35.7h0a61.69,61.69,0,0,1,25.6,15.74c.7.7,1.88,1.41,1.88,2.58-.24.94.47,1.18.94,1.64C279.69,55.43,279.46,58,276.87,59Z"/><path class="cls-2" d="M301.3,88.31c0,.94-.47,1.17-1.41,1.17H278.28c-1.64,0-1.41-1.17-1.64-2.11a51.75,51.75,0,0,0-9.87-23c1.88-1.64,2.59-1.64,3.06.71A21.53,21.53,0,0,0,271,67.64a4,4,0,0,0,.47-2.82,5.91,5.91,0,0,1,4.7-6.34c2.82-.94,3.05-3,.94-5.16-.94-.71-.47-1.18,0-1.65.94,1.41,3.05,2.11,3.05,4.23-.94,4.46,1.88,7.28,4.7,10.1s5.87,5.4,8.69,8.45c1.88,2.12,3.76,3.29,6.58,1.88a1.08,1.08,0,0,1,1.17,0A68.47,68.47,0,0,1,301.3,88.31Z"/><path class="cls-2" d="M144.88,87.14c.23,1.64-.24,2.34-2.35,2.34h-20c-1.65,0-2.12-.47-2.12-2.11V78.45a8.58,8.58,0,0,1,8.22-8.69h.47c3.53.23,5.4-.71,6.58-4.23a14.21,14.21,0,0,1,2.11-4.23.45.45,0,0,1,.71,0h0l.23.24A2.83,2.83,0,0,1,140,62.71c2.11,4.23,4.93,8,7.28,11.74h0a.81.81,0,0,0,.23.47c0,.24.24.47.24.71A32.86,32.86,0,0,0,144.88,87.14Z"/><path class="cls-2" d="M180.58,46.74c-.47,1.88-2.35,1.64-3.76,1.88-.94,0-1.64,0-1.88.7h0c-3.29,2.35-7,3.29-10.33,5.64h-1.88c-1.18,0-1.41-.47-1.65-2.82,0-.23,0-.94-.23-.94-2.11-.23-3.29-2.35-5.4-2.82h-.94c-3-2.11-4.93.24-6.58,2.35a45.2,45.2,0,0,0-6.57,8.46c-.47.94-.94,1.88-1.88,2.11H138.3a46.52,46.52,0,0,1,10.57-13.86A61.25,61.25,0,0,1,166,35.93a5.74,5.74,0,0,0,5.16.24,5.19,5.19,0,0,1,3.76-.24c0,.71-.23.71-.7.71s-1.65-.24-1.41.7a1.28,1.28,0,0,0,1.64,1.18h.24c2.82-.94,3.52.47,3.28,2.82,0,.7,0,1.41.94,1.41C180.81,43.22,181.05,44.86,180.58,46.74Z"/><path class="cls-2" d="M301.06,76.57c-4.22,2.11-4.93,1.88-8.22-1.41l-12-12a5.74,5.74,0,0,1-.94-7,5.17,5.17,0,0,1,2.82,3.06A70.78,70.78,0,0,1,287,67.64,3,3,0,0,0,290,69.76a6.47,6.47,0,0,1,3.52,1.87,6.72,6.72,0,0,0,6.81,2.82A3.8,3.8,0,0,1,301.06,76.57Z"/><path class="cls-2" d="M176.35,49.79c-17.38,6.34-27.24,18.79-31,36.64a1.78,1.78,0,0,1-.47.94,22.79,22.79,0,0,1,2.82-11.74h0a1.4,1.4,0,0,1-.24-.94,1.38,1.38,0,0,1,.24-.94,41.73,41.73,0,0,1,11-15.27,27.06,27.06,0,0,1,4-3.29,3.45,3.45,0,0,1,1.64-.47,65.58,65.58,0,0,1,10.81-5.16h0C175.41,49.32,175.88,49.32,176.35,49.79Z"/><path class="cls-2" d="M300.36,74.45a3.41,3.41,0,0,1-4.93-.47v-.23a21.56,21.56,0,0,0-4.93-4.23C295.43,69.29,298.48,70.93,300.36,74.45Z"/><path class="cls-2" d="M274.52,62.47c0-.93,0-2.11.94-2.11s1.41,1.18,1.41,2.11,0,1.65-1.17,1.88S274.76,63.41,274.52,62.47Z"/><path class="cls-2" d="M164.14,54.49A47.25,47.25,0,0,0,147.7,75.16a72.82,72.82,0,0,1-7.52-11.28c-.47-.94-1.17-1.64-1.64-2.58,2.58-3,4.46-6.58,7-9.63,1.41-1.64,3.29-2.82,4.47-4.7.23-.47.7-.47,1.17-.23,1.41.47,2.58,1.64,4.46.94.47-.24.94.47,1.18.94s.94,1.17,1.41,1.17c2.34.24,3.75.94,3,3.76C161.08,55.43,163.43,53.78,164.14,54.49Z"/><path class="cls-2" d="M43.49,425.44H2.23A2,2,0,0,1,0,423.21V345.79a2,2,0,0,1,2.23-2.23h8a2,2,0,0,1,2.23,2.23v67.39c0,.79.47,1.27,1.59,1.27H43.65a2,2,0,0,1,2.23,2.23v6.69C45.56,424.81,44.92,425.44,43.49,425.44Z"/><path class="cls-2" d="M70.41,345.79v77.58a2,2,0,0,1-2.23,2.23h-8A2,2,0,0,1,58,423.37V345.79a2,2,0,0,1,2.23-2.23h8A2,2,0,0,1,70.41,345.79Z"/><path class="cls-2" d="M89.53,423.37V345.79a2,2,0,0,1,2.23-2.23H122c6.21,0,11.15,1.75,14.65,5.1s5.26,8.12,5.26,14.34v6.21q0,11-10.51,14.34a13.51,13.51,0,0,1,8.28,4.3c2.23,2.39,3.19,5.73,3.19,9.88v8.12q0,9.31-5.26,14.34c-3.5,3.34-8.28,5.1-14.5,5.1H91.76C90.33,425.44,89.53,424.81,89.53,423.37Zm13.86-44.92H120c6.53,0,9.71-3,9.71-9.24v-5.89c0-6.06-3.18-9.24-9.39-9.24H103.39c-1,0-1.43.47-1.43,1.27v21.82C102,378,102.43,378.45,103.39,378.45Zm0,36.48h17.84c6.37,0,9.56-3,9.56-9.24v-8c0-6.06-3.35-9.24-10-9.24H103.39c-1,0-1.43.47-1.43,1.27V413.5A1.26,1.26,0,0,0,103.39,414.93Z"/><path class="cls-2" d="M187,425.44H178.9a2,2,0,0,1-2.23-2.23v-28l-23.9-49.39a1.45,1.45,0,0,1,0-1.59,1.56,1.56,0,0,1,1.44-.64H164.4c1.12,0,1.91.8,2.55,2.23l15.61,35h.8l15.45-35a2.82,2.82,0,0,1,2.55-2.23h10.2a1.55,1.55,0,0,1,1.43.64,1.43,1.43,0,0,1,0,1.59L189.1,395.18v28.19C189.25,424.81,188.62,425.44,187,425.44Z"/><path class="cls-2" d="M229.08,425.44h-9.24c-1.11,0-1.59-.79-1.27-2.23l22.14-77.58a2.94,2.94,0,0,1,3-2.23h12.74a2.73,2.73,0,0,1,3,2.23L282,423.37c.32,1.44-.16,2.23-1.43,2.23h-9.08a2.17,2.17,0,0,1-1.6-.47,3.1,3.1,0,0,1-.63-1.76l-4.78-16.56h-28l-4.78,16.56A2.51,2.51,0,0,1,229.08,425.44Zm21-69.61L239,396.61h23.1l-11.31-40.78Z"/><path class="cls-2" d="M304.59,425.44h-8a2,2,0,0,1-2.23-2.23V345.79a2,2,0,0,1,2.23-2.23h7.17a3,3,0,0,1,2.86,1.44l30.91,55.43h.48V345.79a2,2,0,0,1,2.23-2.23h8a2,2,0,0,1,2.23,2.23v77.58a2,2,0,0,1-2.23,2.23h-6.85a3.75,3.75,0,0,1-3.34-2.07l-30.59-54.8H307v54.64A2.09,2.09,0,0,1,304.59,425.44Z"/><path class="cls-2" d="M402.09,425.44H387.27c-6.21,0-11.15-1.75-14.65-5.25s-5.1-8.29-5.1-14.5V363.32c0-6.22,1.75-11.16,5.1-14.66s8.28-5.1,14.65-5.1h14.82c6.21,0,11.15,1.75,14.65,5.1s5.26,8.28,5.26,14.66v42.37c0,6.21-1.75,11-5.26,14.5S408.46,425.44,402.09,425.44ZM389,414.61h11.16c6.21,0,9.23-3.18,9.23-9.4V363.79c0-6.21-3-9.4-9.23-9.4H389c-6,0-9.24,3.19-9.24,9.4v41.42C379.94,411.58,383,414.61,389,414.61Z"/></g></g></svg>