<svg xmlns="http://www.w3.org/2000/svg" viewBox="0 0 803 75"><defs><style>.cls-1{fill:#ecf0f1;}</style></defs><title>explr_en</title><g id="Layer_2" data-name="Layer 2"><g id="Layer_1-2" data-name="Layer 1"><rect class="cls-1" width="803" height="75"/><path d="M5.76,9.14H18.88c10.3,0,17.24,3.47,17.24,13.53,0,9.67-6.91,14.19-17,14.19H11.61V55.09H5.76Zm12.66,23c8,0,11.87-2.91,11.87-9.45s-4.08-8.79-12.15-8.79H11.61V32.12Z"/><path d="M43.79,10.34a3.7,3.7,0,0,1,4-3.72,3.71,3.71,0,0,1,4,3.72,4,4,0,0,1-8,0Zm1.05,10.72H50.6v34H44.84Z"/><path d="M59.53,38.12c0-11.36,7.67-17.9,16.37-17.9a14.31,14.31,0,0,1,10,4l-3,3.81a9.84,9.84,0,0,0-6.75-3C70,25,65.48,30.32,65.48,38.12s4.27,13,10.53,13a12.3,12.3,0,0,0,8-3.39l2.49,3.85a16.49,16.49,0,0,1-11,4.33C66.44,55.93,59.53,49.39,59.53,38.12Z"/><path d="M94,5.21h5.65V39h.2l14.52-17.93h6.39l-11.4,13.68,12.9,20.35h-6.3L106,38.74l-6.39,7.42v8.93H94Z"/><path d="M140.52,46.25c0-7.41,6.4-11.12,20.9-12.69,0-4.38-1.46-8.6-7-8.6-3.94,0-7.48,1.87-10.15,3.65L142,24.66c3.12-2.05,7.9-4.44,13.36-4.44,8.31,0,11.82,5.52,11.82,14V55.09h-4.76L161.94,51h-.2c-3.24,2.7-7,4.91-11.25,4.91C144.79,55.93,140.52,52.39,140.52,46.25Zm20.9.54V37.34c-11.4,1.37-15.26,4.16-15.26,8.51,0,3.87,2.63,5.44,6,5.44S158.13,49.69,161.42,46.79Z"/><path d="M191.91,48.25v-43h5.76V48.67c0,1.77.76,2.47,1.6,2.47a5,5,0,0,0,1.26-.14l.78,4.39a9.06,9.06,0,0,1-3.31.54C193.68,55.93,191.91,53.18,191.91,48.25Z"/><path d="M207.65,46.25c0-7.41,6.4-11.12,20.9-12.69,0-4.38-1.47-8.6-7-8.6-3.94,0-7.49,1.87-10.15,3.65l-2.26-3.95c3.13-2.05,7.91-4.44,13.37-4.44,8.3,0,11.82,5.52,11.82,14V55.09h-4.76L229.06,51h-.19c-3.24,2.7-7,4.91-11.25,4.91C211.92,55.93,207.65,52.39,207.65,46.25Zm20.9.54V37.34c-11.4,1.37-15.26,4.16-15.26,8.51,0,3.87,2.63,5.44,6,5.44S225.25,49.69,228.55,46.79Z"/><path d="M245,21.06h4.75l.49,4.91h.19c3.24-3.19,6.75-5.75,11.42-5.75,7.17,0,10.39,4.63,10.39,13.31V55.09h-5.76V34.27c0-6.34-1.92-9.05-6.42-9.05-3.48,0-5.89,1.78-9.3,5.23V55.09H245Z"/><path d="M280.75,61.63c0-2.92,1.85-5.66,5-7.7v-.28a6.28,6.28,0,0,1-3.05-5.58c0-2.82,2-5.07,3.75-6.31v-.28A11.83,11.83,0,0,1,282,32.34c0-7.44,5.86-12.12,12.77-12.12a13.82,13.82,0,0,1,4.8.84h11.87v4.43h-7a9.86,9.86,0,0,1,2.77,7c0,7.28-5.51,11.79-12.46,11.79a12.06,12.06,0,0,1-5.07-1.15,5,5,0,0,0-2.17,4c0,2.16,1.4,3.69,6,3.69h6.63c7.91,0,11.88,2.49,11.88,8.13,0,6.32-6.69,11.77-17.2,11.77C286.49,70.75,280.75,67.49,280.75,61.63Zm25.64-1.79c0-3.14-2.39-4.22-6.85-4.22h-5.88a19.3,19.3,0,0,1-4.42-.51c-2.43,1.73-3.47,3.75-3.47,5.71,0,3.65,3.69,6,9.87,6C302.13,66.78,306.39,63.4,306.39,59.84ZM302,32.34c0-4.94-3.22-7.94-7.23-7.94s-7.23,3-7.23,7.94,3.31,8.09,7.23,8.09S302,37.29,302,32.34Z"/><path d="M318.15,42.62V21.06h5.76V41.88c0,6.34,1.92,9,6.42,9,3.48,0,5.89-1.72,9.11-5.74V21.06h5.76v34h-4.76L340,49.76h-.2c-3.15,3.72-6.55,6.17-11.22,6.17C321.37,55.93,318.15,51.3,318.15,42.62Z"/><path d="M354.58,46.25c0-7.41,6.39-11.12,20.9-12.69,0-4.38-1.47-8.6-7-8.6-3.93,0-7.48,1.87-10.14,3.65l-2.26-3.95c3.13-2.05,7.91-4.44,13.37-4.44,8.3,0,11.82,5.52,11.82,14V55.09h-4.76L376,51h-.19c-3.24,2.7-7,4.91-11.25,4.91C358.85,55.93,354.58,52.39,354.58,46.25Zm20.9.54V37.34c-11.41,1.37-15.26,4.16-15.26,8.51,0,3.87,2.62,5.44,6,5.44S372.18,49.69,375.48,46.79Z"/><path d="M389.39,61.63c0-2.92,1.85-5.66,5-7.7v-.28a6.28,6.28,0,0,1-3.05-5.58c0-2.82,2-5.07,3.75-6.31v-.28a11.83,11.83,0,0,1-4.41-9.14c0-7.44,5.86-12.12,12.77-12.12a13.86,13.86,0,0,1,4.8.84h11.87v4.43h-7a9.86,9.86,0,0,1,2.77,7c0,7.28-5.51,11.79-12.46,11.79a12.06,12.06,0,0,1-5.07-1.15,5,5,0,0,0-2.17,4c0,2.16,1.4,3.69,6,3.69h6.63c7.91,0,11.88,2.49,11.88,8.13,0,6.32-6.69,11.77-17.2,11.77C395.13,70.75,389.39,67.49,389.39,61.63ZM415,59.84c0-3.14-2.39-4.22-6.86-4.22H402.3a19.3,19.3,0,0,1-4.42-.51c-2.43,1.73-3.47,3.75-3.47,5.71,0,3.65,3.68,6,9.87,6C410.77,66.78,415,63.4,415,59.84Zm-4.36-27.5c0-4.94-3.22-7.94-7.23-7.94s-7.23,3-7.23,7.94,3.31,8.09,7.23,8.09S410.67,37.29,410.67,32.34Z"/><path d="M423.6,38.12c0-11.08,7.46-17.9,15.3-17.9,8.68,0,13.58,6.23,13.58,16a18.81,18.81,0,0,1-.27,3.27H429.29c.41,7.21,4.82,11.88,11.31,11.88a14.89,14.89,0,0,0,8.47-2.72l2.06,3.78a20,20,0,0,1-11.24,3.53C430.82,55.93,423.6,49.3,423.6,38.12Zm23.79-2.79c0-6.82-3.07-10.52-8.39-10.52-4.79,0-9.06,3.84-9.76,10.52Z"/><path d="M485,14.09h-13.9V9.14H504.7v4.95H490.8v41H485Z"/><path d="M504.87,38.12c0-11.36,7.43-17.9,15.77-17.9s15.77,6.54,15.77,17.9S529,55.93,520.64,55.93,504.87,49.39,504.87,38.12Zm25.59,0c0-7.8-4-13.11-9.82-13.11s-9.82,5.31-9.82,13.11,4,13,9.82,13S530.46,45.92,530.46,38.12Z"/><path d="M559,9.3h27.55v6.84H567.12V27.87h16.46V34.7H567.12V48.26h20.13v6.83H559Z"/><path d="M600.05,37.17,589.88,20.7h8.68l3.81,6.53c1,1.9,2.09,3.89,3.14,5.79h.28c.88-1.9,1.83-3.89,2.71-5.79l3.25-6.53h8.38L610,38.06l10.89,17h-8.68l-4.2-6.8c-1.13-2-2.28-4.12-3.47-6.08h-.28c-1,2-2,4-3.05,6.08l-3.64,6.8h-8.37Z"/><path d="M627,20.7h6.61l.61,3.67h.23c2.9-2.49,6.58-4.51,10.36-4.51,8.6,0,13.52,6.89,13.52,17.5,0,11.76-7,18.57-14.67,18.57-3,0-6-1.37-8.85-3.78l.25,5.71V68.7H627Zm23,16.75c0-6.86-2.24-10.92-7.47-10.92-2.49,0-4.85,1.26-7.51,3.86v16a10.74,10.74,0,0,0,6.89,2.86C646.51,49.27,650,45.23,650,37.45Z"/><path d="M666,46.24V5.64h8.06v41c0,2,.9,2.69,1.74,2.69a4.75,4.75,0,0,0,1.26-.14l1,6a11.37,11.37,0,0,1-4.26.7C668.13,55.93,666,52.23,666,46.24Z"/><path d="M682.73,37.92c0-11.45,7.78-18.06,16.35-18.06s16.36,6.61,16.36,18.06-7.79,18-16.36,18S682.73,49.32,682.73,37.92Zm24.42,0c0-6.88-3-11.48-8.07-11.48S691,31,691,37.92s3,11.43,8.06,11.43S707.15,44.81,707.15,37.92Z"/><path d="M723.43,20.7H730l.61,6.13h.23c2.45-4.48,6.09-7,9.77-7a8.81,8.81,0,0,1,3.89.7l-1.4,7a11.82,11.82,0,0,0-3.53-.56c-2.74,0-6,1.88-8.12,7.12v21h-8.06Z"/><path d="M746.57,37.92c0-11.17,7.76-18.06,15.85-18.06,9.3,0,14.2,6.72,14.2,16.33a21.06,21.06,0,0,1-.35,3.92H754.44c.67,6.1,4.59,9.58,10.14,9.58a14.66,14.66,0,0,0,8-2.5l2.74,5a21.36,21.36,0,0,1-11.79,3.72C754,55.93,746.57,49.27,746.57,37.92Zm23.07-3.3c0-5.29-2.35-8.51-7-8.51-4,0-7.54,3-8.24,8.51Z"/><path d="M785,50.5a5.21,5.21,0,1,1,5.21,5.43A5.23,5.23,0,0,1,785,50.5Zm1.4-34.36-.26-8h8.13l-.26,8L792.92,40h-5.37Z"/></g></g></svg>