<?xml version="1.0" encoding="utf-8"?>
<!-- Generator: Adobe Illustrator 23.1.0, SVG Export Plug-In . SVG Version: 6.00 Build 0)  -->
<svg version="1.1" id="Layer_1" xmlns="http://www.w3.org/2000/svg" xmlns:xlink="http://www.w3.org/1999/xlink" x="0px" y="0px"
	 viewBox="0 0 512 512" style="enable-background:new 0 0 512 512;" xml:space="preserve">
<style type="text/css">
	.st0{fill:url(#SVGID_1_);}
	.st1{fill:url(#SVGID_2_);}
</style>
<linearGradient id="SVGID_1_" gradientUnits="userSpaceOnUse" x1="-25.2482" y1="94" x2="304.1756" y2="94" gradientTransform="matrix(6.123234e-17 1 1 -6.123234e-17 162 150)">
	<stop  offset="0" style="stop-color:#AA0071"/>
	<stop  offset="0.354" style="stop-color:#E900D7"/>
	<stop  offset="0.705" style="stop-color:#EC7FFF"/>
	<stop  offset="1" style="stop-color:#FFFFFF"/>
</linearGradient>
<path class="st0" d="M448,336v-16h32c17.7,0,32-14.3,32-32v-64c0-17.7-14.3-32-32-32h-32v-16c0-26.5-21.5-48-48-48H48
	c-26.5,0-48,21.5-48,48v160c0,26.5,21.5,48,48,48h352C426.5,384,448,362.5,448,336z M480,224v64h-32v-64H480z M48,352
	c-8.8,0-16-7.2-16-16V176c0-8.8,7.2-16,16-16h352c8.8,0,16,7.2,16,16v160c0,8.8-7.2,16-16,16H48z"/>
<linearGradient id="SVGID_2_" gradientUnits="userSpaceOnUse" x1="-25.2482" y1="-50" x2="304.1756" y2="-50" gradientTransform="matrix(6.123234e-17 1 1 -6.123234e-17 162 150)">
	<stop  offset="0" style="stop-color:#AA0071"/>
	<stop  offset="0.354" style="stop-color:#E900D7"/>
	<stop  offset="0.713" style="stop-color:#EC7FFF"/>
	<stop  offset="1" style="stop-color:#FFFFFF"/>
</linearGradient>
<path class="st1" d="M160,320V192c0-8.8-7.2-16-16-16H80c-8.8,0-16,7.2-16,16v128c0,8.8,7.2,16,16,16h64
	C152.8,336,160,328.8,160,320z M96,304v-96h32v96H96z"/>
</svg>
