<?xml version="1.0" encoding="utf-8"?>
<!-- Generator: Adobe Illustrator 23.1.0, SVG Export Plug-In . SVG Version: 6.00 Build 0)  -->
<svg version="1.1" id="Layer_1" xmlns="http://www.w3.org/2000/svg" xmlns:xlink="http://www.w3.org/1999/xlink" x="0px" y="0px"
	 viewBox="0 0 412.3 133.7" style="enable-background:new 0 0 412.3 133.7;" xml:space="preserve">
<style type="text/css">
	.st0{fill:#FFFFFF;}
</style>
<g>
	<path class="st0" d="M394.1,35.6V9.9c0-4.9-3.9-8.9-8.9-8.9h-58.7c-4.9,0-8.8,4-8.8,8.9v113.9c0,4.9,3.9,8.9,8.9,8.9h58.7
		c4.9,0,8.9-4,8.9-8.9V98h-6.3v18.3h-64V15.1H388v20.5h6.2l0,0H394.1z M355.9,119.3c2.4,0,4.5,2,4.5,4.5s-2,4.5-4.5,4.5
		s-4.5-2-4.5-4.5l0,0C351.5,121.4,353.4,119.3,355.9,119.3C355.8,119.3,355.8,119.3,355.9,119.3z M365.3,9.6h-18.8
		c-0.6-0.1-1-0.6-1-1.2c0-0.5,0.5-0.9,1-1h18.7c0.6-0.1,1.1,0.4,1.2,1c0.1,0.6-0.4,1.1-1,1.2C365.4,9.6,365.4,9.6,365.3,9.6z"/>
	<path class="st0" d="M404.1,55l-1.8-1.5l-0.8,2.3c0,0-1.6,4-4.1,3.3c-0.5-0.1-0.9-0.5-1.1-1c-0.6-1.3-0.3-3.7,0.7-6
		c1.4-3.2,0.8-6.7-1.8-9.8c-1.1-1.4-2.5-2.7-4-3.7l-2.6-1.6l0.1,3.1c0,0,0.1,5.5-4,7.5c-2.4,1.1-4.2,3.2-5,5.7
		c-0.7,2.3-0.4,4.8,0.8,6.9c0.4,0.6,0.6,1.4,0.5,2.2c-0.3,0.6-0.8,1.1-1.5,1.3c-2.9,1.3-4.8-2.7-4.9-2.9l-1.3-2.8l-1.6,2.8
		c-6.3,10.3-3,23.8,7.3,30.1c3.3,2,7.2,3.1,11.1,3.2h0.3c12.1,0,21.9-9.8,21.9-21.9C412.2,65.4,409.2,59.2,404.1,55z M383.5,83.8
		L383.5,83.8c0-1.4,0.3-2.9,0.8-4.2l4.1,1.2v-2.2c0-2.6,1.3-5,3.4-6.5c0.4,1.6,1,3.1,1.8,4.5c1,1.6,1.8,2.9,2.7,4.1
		c0.6,0.9,0.9,2,0.8,3.1l0,0c0,3.8-3,6.8-6.8,6.8l0,0l0,0C386.5,90.7,383.5,87.5,383.5,83.8L383.5,83.8z M399.5,88.2
		c0.7-1.4,1-2.9,1-4.4c0.1-1.8-0.4-3.6-1.4-5.1c-0.9-1.3-1.7-2.5-2.5-3.8c-1-1.7-1.6-3.6-1.7-5.6l-0.2-2.2l-2,0.8
		c-1.4,0.6-2.6,1.4-3.7,2.3c-1.8,1.6-3.1,3.8-3.6,6.2l-3-0.9l-0.7,1.3c-1,2.2-1.6,4.6-1.6,7c0,1.5,0.3,3,1,4.4
		c-8.2-4.7-11.6-14.7-7.9-23.4c0.2,0.2,0.3,0.3,0.5,0.5c1.8,1.9,4.5,2.5,6.9,1.5c2.8-1,4.3-4,3.4-6.9c-0.2-0.5-0.4-1-0.7-1.4
		c-0.8-1.3-0.9-2.8-0.5-4.3c0.5-1.6,1.7-3,3.3-3.7c2.8-1.5,4.8-4.2,5.4-7.4c0.4,0.4,0.8,0.8,1.1,1.2c1.7,2.2,2.1,4.3,1.3,6.4
		c-1.4,3.3-1.6,6.5-0.6,8.7c0.6,1.3,1.8,2.4,3.2,2.8c2.3,0.7,4.5-0.1,6.3-2.2c0.3-0.3,0.5-0.7,0.7-1c7.2,7.3,7.1,19-0.2,26.2
		C402.2,86.4,400.9,87.3,399.5,88.2L399.5,88.2z"/>
</g>
<g>
	<path class="st0" d="M135.6,83.5h5.2v9.1h-6.1c-3.7,0-6.7-1-9.1-2.9c-2.4,1.9-5.5,2.9-9.2,2.9H89.7c-4.3,0-7.6-1.4-10-4.3
		c-2.2-2.5-3.2-5.7-3.2-9.7v-7.6l9.4-4.9v12c0,2,0.4,3.4,1.2,4.2c0.8,0.8,2.2,1.2,4.1,1.2h24.5c1.9,0,3.2-0.4,4-1.3
		c0.8-0.8,1.2-2.2,1.2-4.2V64.2l9.4-4.9v18.8c0,1.9,0.4,3.3,1.2,4.2S133.7,83.5,135.6,83.5z M96.9,57.7c-1.5,0-2.7-0.5-3.6-1.4
		c-0.9-0.9-1.3-2.1-1.3-3.6c0-1.4,0.5-2.6,1.3-3.5c0.9-0.9,2.1-1.4,3.6-1.4s2.7,0.4,3.6,1.3c0.9,0.9,1.3,2.1,1.3,3.6
		C101.8,56,100.2,57.7,96.9,57.7z M108.5,57.7c-1.5,0-2.7-0.5-3.6-1.4c-0.9-0.9-1.3-2.1-1.3-3.7c0-3.2,1.7-4.9,5-4.9
		c1.5,0,2.7,0.4,3.6,1.3c0.9,0.9,1.3,2.1,1.3,3.6C113.3,56,111.7,57.7,108.5,57.7z"/>
	<path class="st0" d="M136.4,92.5v-9.1h6.8c1.9,0,3.2-0.4,4-1.2s1.2-2.2,1.2-4.2V64.2l9.5-4.9v19.3c0,4.6-1.4,8.1-4.2,10.7
		c-2.5,2.2-5.7,3.4-9.6,3.4H136.4z M153.3,51.7c-1.5,0-2.7-0.5-3.6-1.4c-0.9-0.9-1.3-2.1-1.3-3.7c0-1.4,0.5-2.6,1.3-3.5
		c0.9-0.9,2.1-1.4,3.6-1.4s2.7,0.4,3.6,1.3c0.9,0.9,1.3,2.1,1.3,3.6C158.2,50,156.6,51.7,153.3,51.7z"/>
	<path class="st0" d="M190.1,83.5h6.8v9.1h-7.7c-1.7,0-3.3-0.2-4.7-0.7c-0.7,4.8-2.6,8.6-5.8,11.4c-2.9,2.5-6.4,3.8-10.4,3.8
		c-3.2,0-6.2-0.8-9.2-2.4v-8.2c2.6,1.4,5.2,2.2,7.6,2.2c2.7,0,4.9-0.9,6.4-2.7c1.5-1.8,2.3-4.2,2.3-7.4V64.2l6.2-3.2l3.2-1.7v0.1
		l0.1-0.1v18.8c0,1.9,0.4,3.3,1.2,4.2C186.9,83.1,188.2,83.5,190.1,83.5z"/>
	<path class="st0" d="M219.1,83.5h6.8v9.1h-7.7c-3.7,0-6.7-1-9.1-2.9c-2.4,1.9-5.4,2.9-9.1,2.9h-7.7v-9.1h6.8c1.9,0,3.2-0.4,4-1.2
		s1.2-2.2,1.2-4.2V64.2l9.5-4.9v18.8c0,1.9,0.4,3.3,1.2,4.2C215.8,83.1,217.2,83.5,219.1,83.5z M199.5,52.6c-1.5,0-2.7-0.5-3.6-1.4
		c-0.9-0.9-1.4-2.1-1.4-3.7c0-1.4,0.5-2.6,1.4-3.5c0.9-0.9,2.1-1.3,3.6-1.3s2.7,0.4,3.6,1.3c0.9,0.9,1.3,2.1,1.3,3.6
		C204.4,51,202.8,52.6,199.5,52.6z M211,52.6c-1.5,0-2.7-0.5-3.6-1.4c-0.9-0.9-1.4-2.1-1.4-3.6c0-1.4,0.5-2.6,1.4-3.5
		c0.9-0.9,2.1-1.3,3.6-1.3c1.5,0,2.7,0.4,3.6,1.3c0.9,0.9,1.3,2.1,1.3,3.6C215.9,51,214.2,52.6,211,52.6z"/>
	<path class="st0" d="M221.3,92.5v-9.1h6.8c1.9,0,3.2-0.4,4-1.2s1.2-2.2,1.2-4.2V64.2l9.5-4.9v19.3c0,4.6-1.4,8.1-4.2,10.7
		c-2.5,2.2-5.7,3.4-9.6,3.4H221.3z M238.3,51.7c-1.5,0-2.7-0.5-3.6-1.4c-0.9-0.9-1.3-2.1-1.3-3.7c0-1.4,0.5-2.6,1.3-3.5
		c0.9-0.9,2.1-1.4,3.6-1.4s2.7,0.4,3.6,1.3c0.9,0.9,1.3,2.1,1.3,3.6C243.2,50,241.5,51.7,238.3,51.7z"/>
	<path class="st0" d="M253.4,40l2.4-4.3h2.2c-0.6-1-0.8-2-0.8-3.1c0-1.6,0.6-3,1.8-4.1c1.2-1.1,2.6-1.7,4.2-1.7
		c1.5,0,2.9,0.5,4.2,1.6v4.4c-1.2-1.1-2.4-1.6-3.6-1.6c-1.7,0-2.5,0.8-2.5,2.2c0,0.8,0.3,1.5,1,2.3h7.4l-2.4,4.3H253.4z M256.3,92.5
		V49.2l9.5-5v48.4H256.3z"/>
</g>
</svg>
