<?xml version="1.0" encoding="utf-8"?>
<!-- Generator: Adobe Illustrator 23.1.0, SVG Export Plug-In . SVG Version: 6.00 Build 0)  -->
<svg version="1.1" xmlns="http://www.w3.org/2000/svg" xmlns:xlink="http://www.w3.org/1999/xlink" x="0px" y="0px"
	 viewBox="0 0 1122 1122" style="enable-background:new 0 0 1122 1122;" xml:space="preserve">
<style type="text/css">
	.st0{fill:#FFFFFF;}
	.st1{fill:#494949;}
	.st2{fill:#E5E5E6;}
	.st3{fill:#CFD1D2;}
	.st4{fill:#6FB9EC;}
	.st5{fill:#98CEEC;}
	.st6{fill:#CF1A5D;}
	.st7{fill:#B01750;}
	.st8{fill:#919395;}
	.st9{fill:#A5A6A9;}
	.st10{fill:#3F3F3F;}
</style>
<g id="BG">
</g>
<g id="Object">
	<g>
		<g>
			<path class="st0" d="M1027.1,556h-17.5v13.8h19.6v4.2h-25.4v-38.4h24.4v4.2h-18.6v12.1h17.5V556z"/>
		</g>
		<g>
			<g>
				<path class="st0" d="M551.9,124.4V86h6.4l14.5,19.4c3.3,4.5,6,8.5,8.1,12.5l0.1-0.1c-0.5-5.1-0.7-9.8-0.7-15.8V86h5.5v38.4h-5.9
					l-14.3-19.5c-3.1-4.3-6.2-8.7-8.4-12.8l-0.2,0.1c0.3,4.8,0.5,9.4,0.5,15.8v16.4H551.9z"/>
			</g>
			<g>
				<path class="st0" d="M556.6,1029.4c2.6,1.4,6.4,2.5,10.5,2.5c6,0,9.4-2.7,9.4-6.5c0-3.6-2.4-5.6-8.5-7.6
					c-7.4-2.2-11.9-5.5-11.9-10.9c0-6,5.8-10.4,14.6-10.4c4.6,0,8,0.9,10,1.9l-1.6,4c-1.5-0.7-4.5-1.8-8.6-1.8
					c-6.2,0-8.5,3.1-8.5,5.7c0,3.6,2.7,5.4,9,7.4c7.6,2.5,11.5,5.6,11.5,11.3c0,5.9-5.2,11-15.8,11c-4.4,0-9.1-1.1-11.5-2.4
					L556.6,1029.4z"/>
			</g>
			<g>
				<path class="st0" d="M104.3,573.5l-11.5-38.4H99l5.4,19.4c1.3,4.8,2.5,9.6,3.3,13.3h0.1c0.7-3.8,2.1-8.4,3.7-13.3l6-19.4h6.1
					l5.5,19.5c1.3,4.6,2.5,9.1,3.1,13.1h0.1c0.9-4.2,2.2-8.5,3.6-13.3l6-19.4h6l-12.8,38.4h-6.1l-5.7-20c-1.4-4.9-2.3-8.7-2.9-12.5
					h-0.1c-0.8,3.8-1.8,7.6-3.5,12.5l-6.4,20H104.3z"/>
			</g>
			<g>
				<path class="st0" d="M835,273.8l13.5-13.5l2.2,2.2l-1.8,11.9c-0.4,2.8-0.9,5.1-1.6,7.2l0.1,0c1.6-2,3.2-3.7,5.3-5.8l5.7-5.6
					l1.9,1.9l-13.5,13.5l-2.1-2.1l1.8-11.9c0.4-2.6,0.9-5.2,1.6-7.5l-0.1-0.1c-1.6,1.8-3.2,3.5-5.4,5.7l-5.8,5.8L835,273.8z"/>
				<path class="st0" d="M865,291.3l-6.2-6.2l-4.9,4.9l6.9,6.9l-1.5,1.5l-8.9-9l13.5-13.5l8.6,8.6l-1.5,1.5l-6.5-6.5l-4.3,4.3
					l6.2,6.2L865,291.3z"/>
			</g>
			<g>
				<path class="st0" d="M275.6,296.5L262.1,283l2.2-2.2l11.9,1.8c2.8,0.4,5.1,0.9,7.2,1.6l0-0.1c-2-1.6-3.7-3.2-5.8-5.3l-5.6-5.7
					l1.9-1.9l13.5,13.5l-2.1,2.1l-11.9-1.8c-2.6-0.4-5.2-0.9-7.5-1.6l-0.1,0.1c1.8,1.6,3.5,3.2,5.7,5.4l5.8,5.8L275.6,296.5z"/>
				<path class="st0" d="M293.8,278.4l-17.5-9.5l2.2-2.2l8.7,5c2.2,1.2,4.3,2.5,5.8,3.5l0,0c-1.1-1.6-2.2-3.7-3.4-6l-4.7-8.9
					l2.1-2.1l8.8,4.9c2,1.2,4.1,2.3,5.7,3.5l0,0c-1.1-1.8-2.2-3.8-3.4-5.9l-4.7-8.9l2.1-2.1l9,18l-2.2,2.1l-9-5
					c-2.2-1.2-3.9-2.2-5.4-3.4l0,0c1.1,1.6,2,3.3,3.2,5.6l4.7,9.3L293.8,278.4z"/>
			</g>
			<g>
				<path class="st0" d="M307.9,842.1c-0.4-1.4-1.4-3.1-2.8-4.6c-2.1-2.1-4.3-2.4-5.6-1c-1.3,1.3-1.1,2.8,0.3,5.7
					c1.8,3.4,2.3,6.1,0.4,8c-2.1,2.1-5.7,1.6-8.8-1.5c-1.6-1.6-2.5-3.1-2.8-4.2l2-0.9c0.3,0.8,0.9,2.2,2.4,3.7c2.2,2.2,4.1,1.9,5,1
					c1.3-1.3,0.9-2.8-0.5-5.8c-1.8-3.6-2.1-6-0.1-8c2.1-2.1,5.7-2.1,9.4,1.7c1.5,1.5,2.8,3.6,3.2,4.9L307.9,842.1z"/>
				<path class="st0" d="M295.6,825.5l-9.5,17.5l-2.2-2.2l5-8.7c1.2-2.2,2.5-4.3,3.5-5.8l0,0c-1.6,1.1-3.7,2.2-6,3.4l-8.9,4.7
					l-2.1-2.2l4.9-8.8c1.2-2,2.3-4.1,3.5-5.7l0,0c-1.8,1.1-3.8,2.2-5.9,3.4l-8.9,4.7l-2.1-2.1l18-9l2.1,2.2l-5,9
					c-1.2,2.2-2.2,3.9-3.4,5.4l0,0c1.6-1.1,3.3-2,5.6-3.2l9.3-4.7L295.6,825.5z"/>
			</g>
			<g>
				<path class="st0" d="M855.7,818.8c-1.4,0.4-3.1,1.4-4.6,2.8c-2.1,2.1-2.4,4.3-1,5.6c1.3,1.3,2.8,1.1,5.7-0.3
					c3.4-1.8,6.1-2.3,8-0.4c2.1,2.1,1.6,5.7-1.5,8.8c-1.6,1.6-3.1,2.5-4.2,2.8l-0.9-2c0.8-0.3,2.2-0.9,3.7-2.4c2.2-2.2,1.9-4.1,1-5
					c-1.3-1.3-2.8-0.9-5.8,0.5c-3.6,1.8-6,2.1-8,0.1c-2.1-2.1-2.1-5.7,1.7-9.4c1.5-1.5,3.6-2.8,4.9-3.2L855.7,818.8z"/>
				<path class="st0" d="M839.7,843.1l6.2-6.2l-4.9-4.9l-6.9,6.9l-1.5-1.5l9-8.9l13.5,13.5l-8.6,8.6l-1.5-1.5l6.5-6.5l-4.3-4.3
					l-6.2,6.2L839.7,843.1z"/>
			</g>
			<g>
				<g>
					<g>
						<g>
							<path class="st0" d="M570,881.3c-86.7,0-168.2-33.8-229.5-95.1c-61.3-61.3-95.1-142.8-95.1-229.5s33.8-168.2,95.1-229.5
								c61.3-61.3,142.8-95.1,229.5-95.1s168.2,33.8,229.5,95.1c61.3,61.3,95.1,142.8,95.1,229.5s-33.8,168.2-95.1,229.5
								C738.2,847.5,656.7,881.3,570,881.3z M570,243.1c-83.8,0-162.5,32.6-221.7,91.8c-59.2,59.2-91.8,138-91.8,221.7
								s32.6,162.5,91.8,221.7c59.2,59.2,138,91.8,221.7,91.8s162.5-32.6,221.7-91.8c59.2-59.2,91.8-138,91.8-221.7
								S851,394.2,791.7,335C732.5,275.8,653.8,243.1,570,243.1z"/>
						</g>
						<g>
							<g>
								<g>
									<polygon class="st0" points="887.6,544.4 990.8,556.7 887.6,569.1 									"/>
								</g>
								<g>
									<polygon class="st0" points="252.4,569.1 149.2,556.7 252.4,544.4 									"/>
								</g>
							</g>
							<g>
								<g>
									<polygon class="st0" points="582.3,874.4 570,977.5 557.7,874.4 									"/>
								</g>
								<g>
									<polygon class="st0" points="557.7,239.1 570,135.9 582.3,239.1 									"/>
								</g>
							</g>
							<g>
								<g>
									<polygon class="st0" points="336.7,340.8 303,289.7 354.1,323.4 									"/>
								</g>
								<g>
									<polygon class="st0" points="803.3,772.6 837,823.7 785.9,790.1 									"/>
								</g>
							</g>
							<g>
								<g>
									<polygon class="st0" points="785.9,323.4 837,289.7 803.3,340.8 									"/>
								</g>
								<g>
									<polygon class="st0" points="354.1,790.1 303,823.7 336.7,772.6 									"/>
								</g>
							</g>
						</g>
						<g>
							<path class="st0" d="M570,817.6c-143.9,0-260.9-117-260.9-260.9s117-260.9,260.9-260.9c143.9,0,260.9,117,260.9,260.9
								c0,69.7-27.1,135.2-76.4,184.5C705.2,790.5,639.7,817.6,570,817.6z M570,300.7c-141.1,0-256,114.8-256,256s114.8,256,256,256
								c141.1,0,256-114.8,256-256S711.1,300.7,570,300.7z"/>
						</g>
					</g>
					<g>
						<g>
							<path class="st0" d="M570,803.1c-135.8,0-246.3-110.5-246.3-246.3c0-135.8,110.5-246.3,246.3-246.3s246.3,110.5,246.3,246.3
								C816.3,692.6,705.8,803.1,570,803.1z M570,320.1c-130.5,0-236.6,106.1-236.6,236.6S439.5,793.3,570,793.3
								s236.6-106.1,236.6-236.6S700.5,320.1,570,320.1z"/>
						</g>
						<g>
							<path class="st0" d="M570,783.5c-125,0-226.7-101.7-226.7-226.7S445,330,570,330c125,0,226.7,101.7,226.7,226.7
								S695,783.5,570,783.5z M570,333.9c-122.9,0-222.9,100-222.9,222.9s100,222.9,222.9,222.9c122.9,0,222.9-100,222.9-222.9
								S692.9,333.9,570,333.9z"/>
						</g>
						<g>
							<path class="st0" d="M570,738.1c-100,0-181.3-81.3-181.3-181.3c0-100,81.3-181.3,181.3-181.3s181.3,81.3,181.3,181.3
								C751.3,656.7,670,738.1,570,738.1z M570,378.5c-98.3,0-178.2,80-178.2,178.2c0,98.3,80,178.2,178.2,178.2
								s178.2-80,178.2-178.2C748.2,458.4,668.3,378.5,570,378.5z"/>
						</g>
						<g>
							<g>
								<g>
									
										<rect x="726.5" y="389.9" transform="matrix(0.7071 -0.7071 0.7071 0.7071 -61.8571 634.4082)" class="st0" width="16.7" height="3.9"/>
								</g>
								<g>
									
										<rect x="396.8" y="719.6" transform="matrix(0.7071 -0.7071 0.7071 0.7071 -391.5722 497.8392)" class="st0" width="16.7" height="3.9"/>
								</g>
							</g>
							<g>
								<g>
									
										<rect x="732.9" y="713.2" transform="matrix(0.7071 -0.7071 0.7071 0.7071 -294.9992 730.9669)" class="st0" width="3.9" height="16.7"/>
								</g>
								<g>
									
										<rect x="403.2" y="383.5" transform="matrix(0.7071 -0.7071 0.7071 0.7071 -158.4298 401.2869)" class="st0" width="3.9" height="16.7"/>
								</g>
							</g>
						</g>
					</g>
				</g>
			</g>
		</g>
		<g>
			<g>
				<path class="st1" d="M607.7,562.1c0-2.7-0.3-5.3-0.9-7.9L573,273.7v0l-33.8,280.5c-0.6,2.5-0.9,5.2-0.9,7.9c0,0.6,0,1.2,0.1,1.9
					c0,0.6-0.1,1.2-0.1,1.9c0,2.7,0.3,5.3,0.9,7.9L573,854.1v0l33.8-280.5c0.6-2.5,0.9-5.2,0.9-7.9c0-0.6,0-1.2-0.1-1.9
					C607.7,563.3,607.7,562.7,607.7,562.1z M573,580.5c-9.2,0-16.6-7.4-16.7-16.5c0.1-9.2,7.6-16.5,16.7-16.5
					c9.2,0,16.6,7.4,16.7,16.5C589.6,573.1,582.2,580.5,573,580.5z"/>
			</g>
			<g>
				<g>
					<path class="st1" d="M567.1,599.6c2.7,0,5.3-0.3,7.9-0.9l280.5-33.8h0L575,531.1c-2.5-0.6-5.2-0.9-7.9-0.9
						c-0.6,0-1.2,0-1.9,0.1c-0.6,0-1.2-0.1-1.9-0.1c-2.7,0-5.3,0.3-7.9,0.9L275,564.9h0l280.5,33.8c2.5,0.6,5.2,0.9,7.9,0.9
						c0.6,0,1.2,0,1.9-0.1C565.8,599.6,566.5,599.6,567.1,599.6z M548.7,564.9c0-9.2,7.4-16.6,16.5-16.7c9.2,0.1,16.5,7.6,16.5,16.7
						c0,9.2-7.4,16.6-16.5,16.7C556.1,581.6,548.7,574.1,548.7,564.9z"/>
				</g>
				<g>
					<g>
						<path class="st2" d="M568.6,576.7c-9.2,0-16.7-7.5-16.7-16.7H278.2l280.5,33.8c2.5,0.6,5.2,0.9,7.9,0.9
							c19.2,0,34.7-15.5,34.7-34.7h-15.9C585.4,569.2,577.9,576.7,568.6,576.7z"/>
					</g>
					<g>
						<path class="st3" d="M566.5,525.3c-2.7,0-5.3,0.3-7.9,0.9L278.2,560h0h273.7c0-9.2,7.5-16.7,16.7-16.7
							c9.2,0,16.7,7.5,16.7,16.7h15.9l0,0C601.2,540.8,585.7,525.3,566.5,525.3z"/>
					</g>
				</g>
				<g>
					<g>
						<path class="st3" d="M568,543.2c9.2,0,16.7,7.5,16.7,16.7h273.7l-280.5-33.8c-2.5-0.6-5.2-0.9-7.9-0.9
							c-19.2,0-34.7,15.5-34.7,34.7h15.9C551.2,550.7,558.7,543.2,568,543.2z"/>
					</g>
					<g>
						<path class="st2" d="M570,594.7c2.7,0,5.3-0.3,7.9-0.9L858.4,560h0H584.7c0,9.2-7.5,16.7-16.7,16.7c-9.2,0-16.7-7.5-16.7-16.7
							h-15.9l0,0C535.3,579.1,550.9,594.7,570,594.7z"/>
					</g>
				</g>
			</g>
			<g>
				<g>
					<g>
						<path class="st4" d="M584.8,560.5c0,9.2-7.5,16.7-16.7,16.7V851l33.8-280.5c0.6-2.5,0.9-5.2,0.9-7.9
							c0-19.2-15.5-34.7-34.7-34.7v15.9C577.3,543.8,584.8,551.3,584.8,560.5z"/>
					</g>
					<g>
						<path class="st5" d="M533.3,562.6c0,2.7,0.3,5.3,0.9,7.9L568,851l0,0V577.3c-9.2,0-16.7-7.5-16.7-16.7
							c0-9.3,7.5-16.7,16.7-16.7v-15.9h0C548.9,527.9,533.3,543.4,533.3,562.6z"/>
					</g>
				</g>
				<g>
					<g>
						<path class="st6" d="M551.3,561.2c0-9.2,7.5-16.7,16.7-16.7V270.7l-33.8,280.5c-0.6,2.5-0.9,5.2-0.9,7.9
							c0,19.2,15.5,34.7,34.7,34.7v-15.9C558.8,577.9,551.3,570.4,551.3,561.2z"/>
					</g>
					<g>
						<path class="st7" d="M602.7,559.1c0-2.7-0.3-5.3-0.9-7.9L568,270.7v0v273.7c9.2,0,16.7,7.5,16.7,16.7
							c0,9.2-7.5,16.7-16.7,16.7v15.9l0,0C587.2,593.8,602.7,578.3,602.7,559.1z"/>
					</g>
				</g>
				<g>
					<g>
						<path class="st3" d="M587.5,560.5c0,10.7-8.7,19.4-19.4,19.4c-10.7,0-19.4-8.7-19.4-19.4c0-10.7,8.7-19.4,19.4-19.4
							C578.8,541,587.5,549.7,587.5,560.5z"/>
					</g>
					<g>
						<path class="st8" d="M586.4,560.5c0,10.1-8.2,18.3-18.3,18.3c-10.1,0-18.3-8.2-18.3-18.3c0-10.1,8.2-18.3,18.3-18.3
							C578.2,542.1,586.4,550.3,586.4,560.5z"/>
					</g>
					<g>
						<path class="st3" d="M578.4,560.5c0,5.7-4.6,10.4-10.4,10.4c-5.7,0-10.4-4.6-10.4-10.4c0-5.7,4.6-10.4,10.4-10.4
							C573.8,550.1,578.4,554.7,578.4,560.5z"/>
					</g>
					<g>
						<path class="st9" d="M577,560.5c0,5-4,9-9,9c-5,0-9-4-9-9c0-5,4-9,9-9C573,551.4,577,555.5,577,560.5z"/>
					</g>
					<g>
						<path class="st10" d="M575.6,560.5c0,4.2-3.4,7.6-7.6,7.6c-4.2,0-7.6-3.4-7.6-7.6c0-4.2,3.4-7.6,7.6-7.6
							C572.2,552.9,575.6,556.3,575.6,560.5z"/>
					</g>
					<g>
						<path class="st0" d="M573.3,560.5c0,2.9-2.4,5.3-5.3,5.3c-2.9,0-5.3-2.4-5.3-5.3c0-2.9,2.4-5.3,5.3-5.3
							C571,555.1,573.3,557.5,573.3,560.5z"/>
					</g>
				</g>
			</g>
		</g>
	</g>
</g>
</svg>
