<?xml version="1.0" encoding="utf-8"?>
<!-- Generator: Adobe Illustrator 23.1.0, SVG Export Plug-In . SVG Version: 6.00 Build 0)  -->
<svg version="1.1" id="Layer_1" xmlns="http://www.w3.org/2000/svg" xmlns:xlink="http://www.w3.org/1999/xlink" x="0px" y="0px"
	 viewBox="0 0 181.4 181.8" style="enable-background:new 0 0 181.4 181.8;" xml:space="preserve">
<style type="text/css">
	.st0{fill:url(#SVGID_1_);}
	.st1{fill:url(#SVGID_2_);}
	.st2{fill:url(#SVGID_3_);}
	.st3{fill:url(#SVGID_4_);}
	.st4{fill:url(#SVGID_5_);}
</style>
<g>
	
		<linearGradient id="SVGID_1_" gradientUnits="userSpaceOnUse" x1="-746.935" y1="-91" x2="-746.935" y2="90.8003" gradientTransform="matrix(1 0 0 -1 837.65 90.8003)">
		<stop  offset="1.500000e-02" style="stop-color:#DA3D94"/>
		<stop  offset="0.542" style="stop-color:#9B2CD5"/>
		<stop  offset="1" style="stop-color:#2DA4E0"/>
	</linearGradient>
	<path class="st0" d="M181.4,91c1,48.9-39.9,90.9-90.6,90.8C40.5,181.7,0,140.6,0,90.8C0,40.9,41-0.1,90.9,0
		C141.7,0,182.7,42.5,181.4,91L181.4,91z M15.3,91c-1.4,39.6,32.8,75.6,74.7,75.8c42.1,0.2,77-33.1,76.9-76.1
		c-0.1-43.8-35.9-75.8-76.1-75.9C48.9,14.8,13.8,50.8,15.3,91L15.3,91z"/>
	
		<linearGradient id="SVGID_2_" gradientUnits="userSpaceOnUse" x1="-776.5784" y1="-47.9072" x2="-776.5784" y2="47.7461" gradientTransform="matrix(1 0 0 -1 837.65 90.8003)">
		<stop  offset="1.500000e-02" style="stop-color:#DA3D94"/>
		<stop  offset="0.542" style="stop-color:#9B2CD5"/>
		<stop  offset="1" style="stop-color:#2DA4E0"/>
	</linearGradient>
	<path class="st1" d="M61,90.7c-1.5-2.5-3.7-4.1-5.5-6C42.9,71.9,46.8,51.2,63.1,44c6-2.7,11.3,0.6,11.3,7.1
		c0.1,26.3,0.1,52.6,0,78.9c0,7.6-5.2,10.6-12.1,7.5c-9.3-4.2-14.2-11.7-14.6-21.4c-0.4-8.2,3-15.6,9.6-21
		C58.5,93.8,60.1,92.8,61,90.7z"/>
	
		<linearGradient id="SVGID_3_" gradientUnits="userSpaceOnUse" x1="-749.35" y1="-46.4032" x2="-749.35" y2="45.5107" gradientTransform="matrix(1 0 0 -1 837.65 90.8003)">
		<stop  offset="1.500000e-02" style="stop-color:#DA3D94"/>
		<stop  offset="0.542" style="stop-color:#9B2CD5"/>
		<stop  offset="1" style="stop-color:#2DA4E0"/>
	</linearGradient>
	<path class="st2" d="M94.3,90.9v36.9c0,1.5,0,3-0.3,4.5c-0.6,2.9-2.9,4.8-5.6,4.9c-2.8,0.1-5.4-2-6-5c-0.2-1-0.2-2-0.2-3
		c0-25,0.1-49.9,0.1-74.9c0-1.9,0.2-3.7,0.9-5.4c1-2.4,3.3-3.9,5.9-3.7c2.4,0.2,4.7,2.1,5.1,4.7c0.2,1.3,0.2,2.7,0.2,4
		C94.4,66.2,94.4,78.5,94.3,90.9C94.4,90.9,94.4,90.9,94.3,90.9z"/>
	
		<linearGradient id="SVGID_4_" gradientUnits="userSpaceOnUse" x1="-729.3778" y1="-27.9811" x2="-729.3778" y2="27.8879" gradientTransform="matrix(1 0 0 -1 837.65 90.8003)">
		<stop  offset="1.500000e-02" style="stop-color:#DA3D94"/>
		<stop  offset="0.542" style="stop-color:#9B2CD5"/>
		<stop  offset="1" style="stop-color:#2DA4E0"/>
	</linearGradient>
	<path class="st3" d="M102.3,90.9V72v-1.5c0.2-4.8,2.5-7.6,6.1-7.5s5.9,2.9,5.9,7.8c0.1,13.5,0,26.9,0,40.4c0,0.7,0,1.3-0.1,2
		c-0.6,3.6-3.3,6-6.4,5.7c-3.2-0.3-5.5-2.7-5.6-6.4C102.2,105.2,102.2,98,102.3,90.9C102.2,90.9,102.3,90.9,102.3,90.9z"/>
	
		<linearGradient id="SVGID_5_" gradientUnits="userSpaceOnUse" x1="-709.2881" y1="-9.3036" x2="-709.2881" y2="8.9934" gradientTransform="matrix(1 0 0 -1 837.65 90.8003)">
		<stop  offset="1.500000e-02" style="stop-color:#DA3D94"/>
		<stop  offset="0.542" style="stop-color:#9B2CD5"/>
		<stop  offset="1" style="stop-color:#2DA4E0"/>
	</linearGradient>
	<path class="st4" d="M122.3,90.7c0-1.3-0.1-2.7,0-4c0.4-2.9,2.1-4.5,4.9-4.9c2.9-0.4,5,0.5,6.1,3.2c1.6,3.8,1.6,7.8,0.1,11.7
		c-1.1,2.8-3.5,3.8-6.6,3.2c-2.7-0.5-4.2-2.2-4.5-5.2C122.1,93.4,122.3,92.1,122.3,90.7L122.3,90.7z"/>
</g>
</svg>
