<svg xmlns="http://www.w3.org/2000/svg" viewBox="0 0 80 80"><defs><style>.cls-1{fill:#fff;}</style></defs><title>ar</title><g id="Layer_2" data-name="Layer 2"><g id="Layer_1-2" data-name="Layer 1"><path class="cls-1" d="M75.49,0h-71A4.51,4.51,0,0,0,0,4.51v71A4.51,4.51,0,0,0,4.51,80h71A4.51,4.51,0,0,0,80,75.49v-71A4.51,4.51,0,0,0,75.49,0ZM54.07,49.76H39.86a11.15,11.15,0,0,0-3.92.63,7.64,7.64,0,0,0-2.76,1.72,7.26,7.26,0,0,0-1.65,2.45A7.48,7.48,0,0,0,31,57.39a7.34,7.34,0,0,0,2.42,5.74q2.41,2.17,7.24,2.17a16,16,0,0,0,2-.13c.73-.1,1.44-.21,2.14-.36s1.35-.29,2-.45L48.19,64a0,0,0,0,1,0,0l1.11,7.19a9.83,9.83,0,0,1-1.64.6q-1.1.31-2.49.6c-.93.18-1.93.33-3,.45a26.85,26.85,0,0,1-3.05.17,21.16,21.16,0,0,1-6-.87,15.55,15.55,0,0,1-5.32-2.74A14.16,14.16,0,0,1,24,64.66a15.12,15.12,0,0,1-1.47-6.95,15.38,15.38,0,0,1,3.05-9.92,16.09,16.09,0,0,1,8.5-5.37A12,12,0,0,1,30.2,38.2a12.35,12.35,0,0,1-1.61-6.32A14.12,14.12,0,0,1,29.46,27a12.33,12.33,0,0,1,2.7-4.26,13.07,13.07,0,0,1,4.69-3,19,19,0,0,1,6.86-1.12c1.07,0,2.24.06,3.5.18s2.68.29,4.27.52l-.91,8c-1.21-.18-2.29-.32-3.22-.41a26.26,26.26,0,0,0-2.8-.15,8.67,8.67,0,0,0-5.81,1.75,5.83,5.83,0,0,0-2,4.66,6.8,6.8,0,0,0,.95,3.59,8.27,8.27,0,0,0,2.48,2.62A12.13,12.13,0,0,0,43.71,41a15.82,15.82,0,0,0,4.2.55h6.16Z"/></g></g></svg>