<?xml version="1.0" encoding="utf-8"?>
<!-- Generator: Adobe Illustrator 23.1.0, SVG Export Plug-In . SVG Version: 6.00 Build 0)  -->
<svg version="1.1" id="Layer_1" xmlns="http://www.w3.org/2000/svg" xmlns:xlink="http://www.w3.org/1999/xlink" x="0px" y="0px"
	 viewBox="0 0 419 105" style="enable-background:new 0 0 419 105;" xml:space="preserve">
<style type="text/css">
	.st0{fill:#92278F;}
	.st1{fill:#FFFFFF;}
</style>
<path class="st0" d="M396.4,102.2H22.6c-6.1,0-11-4.9-11-11V13.8c0-6.1,4.9-11,11-11h373.8c6.1,0,11,4.9,11,11v77.4
	C407.5,97.3,402.5,102.2,396.4,102.2z"/>
<title>arb</title>
<g>
	<g id="Layer_1-2">
		<path class="st1" d="M144.6,63.1h4.6v5.7h-5.3c-4.8,0-8.3-1.8-10.4-5.3c-2.2,2.1-5.2,3.3-8.3,3.2c-3.8,0.1-7.5-1.6-9.8-4.6
			c-2.1-2.8-3.1-6.1-3-9.6c0-4.5,1.4-8.2,4.1-10.9c2.2-2.3,5.3-3.6,8.5-3.6c2.4,0,4.7,0.7,6.7,2v-3l6.1-3.2v22.4
			C137.8,60.8,140.1,63.1,144.6,63.1z M131.7,46.4c-1.6-1.8-3.9-2.9-6.3-2.9c-2,0-3.8,0.9-5,2.5c-1.4,1.9-2.1,4.1-2,6.5
			c-0.1,2.3,0.6,4.6,2,6.5c1.2,1.6,3,2.5,5,2.5c2.5,0,5-1.1,6.5-3.2c-0.1-0.8-0.1-1.5-0.1-2V46.4z M122.7,29.2
			c-2.3,0-3.4-1.2-3.4-3.5s1.1-3.5,3.4-3.4c2.2,0,3.4,1.1,3.4,3.4S124.9,29.2,122.7,29.2L122.7,29.2z M131.6,29.2
			c-2.3,0-3.4-1.2-3.4-3.5s1.1-3.5,3.4-3.4c2.2,0,3.4,1.1,3.4,3.4S133.8,29.2,131.6,29.2L131.6,29.2z"/>
		<path class="st1" d="M169.4,63.1h4.6v5.7h-5.3c-3.5,0.2-6.8-1.2-9.2-3.7c-2.4,2.5-5.7,3.9-9.2,3.7H145v-5.7h4.6
			c4.6,0,6.9-2.3,6.9-7V41.6l6-3.2v17.7C162.5,60.8,164.8,63.1,169.4,63.1z M152.7,75.8c2.2,0,3.4,1.2,3.4,3.5s-1.1,3.5-3.4,3.4
			c-2.3,0-3.4-1.1-3.4-3.4S150.4,75.8,152.7,75.8z M161.6,75.8c2.2,0,3.4,1.2,3.4,3.5s-1.1,3.5-3.4,3.4c-2.3,0-3.4-1.1-3.4-3.4
			S159.3,75.8,161.6,75.8z"/>
		<path class="st1" d="M169.8,68.8v-5.7h4.6c4.6,0,6.9-2.3,6.9-7V41.6l6-3.2v17.9c0,4-1.2,7.1-3.6,9.4c-2.4,2.1-5.4,3.2-8.6,3.1
			L169.8,68.8z M181.1,82.7c-2.3,0-3.4-1.2-3.4-3.5c0-2.3,1.1-3.5,3.4-3.4c2.2,0,3.4,1.1,3.4,3.4S183.3,82.7,181.1,82.7z"/>
		<path class="st1" d="M221.6,63.1h4.6v5.7h-5.3c-2.1,0.1-4.3-0.4-6.2-1.4c-0.2,4.2-1.9,8.1-4.8,11.1c-2.6,2.5-6.1,3.9-9.7,3.8
			c-2.9,0-5.7-0.7-8.2-2.1v-5.3c2.2,1.3,4.6,2,7.1,2c2.7,0.1,5.3-1,7-3c1.7-2,2.5-4.8,2.5-8.3V41.6l6-3.2v0.1l0.1-0.1v19.1
			C215.2,61.2,217.5,63.1,221.6,63.1z"/>
		<path class="st1" d="M256.6,63.1h18.5v5.7h-19c-2.6,0-5.1-0.5-7.5-1.5c-2.4,1-5,1.5-7.6,1.5h-19v-5.7h19.5
			c-4-3.5-7.5-7.6-10.3-12.1v-3.1c2.1-3.1,4.8-5.7,8-7.6c5.7-3.7,13-3.7,18.7,0c3.2,2,6,4.6,8.1,7.7v3c-2.9,4.5-6.4,8.6-10.4,12.1
			H256.6z M236.7,49.5c4.3,5.9,8.2,9.8,11.8,11.6c3.6-1.9,7.5-5.8,11.9-11.7c-3.5-4.2-7.5-6.4-11.9-6.4
			C244.1,43,240.2,45.1,236.7,49.5z"/>
		<path class="st1" d="M270.9,68.8v-5.7h3.7c4.8,0,7.3-2.5,7.3-7.6V26.8l6.1-3.2v31.9c0,4.1-1.2,7.4-3.7,9.9
			c-2.5,2.3-5.8,3.5-9.2,3.4H270.9z"/>
		<path class="st1" d="M300.6,68.8V26.8l6-3.2v45.2H300.6z"/>
	</g>
</g>
</svg>
