<?xml version="1.0" encoding="utf-8"?>
<!-- Generator: Adobe Illustrator 23.1.0, SVG Export Plug-In . SVG Version: 6.00 Build 0)  -->
<svg version="1.1" id="Layer_1" xmlns="http://www.w3.org/2000/svg" xmlns:xlink="http://www.w3.org/1999/xlink" x="0px" y="0px"
	 viewBox="0 0 512 512" style="enable-background:new 0 0 512 512;" xml:space="preserve">
<style type="text/css">
	.st0{fill:#FFFFFF;}
</style>
<g>
	<g>
		<path class="st0" d="M0,256c0,141.2,114.8,256,256,256s256-114.8,256-256S397.2,0,256,0C114.8,0,0,114.8,0,256z M289.8,256
			l-91.6-91.6c-8.3-8.4-8.4-21.9,0-30.2s21.9-8.3,30.2,0l106.7,106.7c8.3,8.4,8.3,21.9,0,30.2L228.5,377.8
			c-4.2,4.2-9.6,6.3-15.1,6.3s-10.9-2.1-15.1-6.3c-8.3-8.4-8.3-21.9,0-30.2L289.8,256z"/>
	</g>
</g>
</svg>
