<?xml version="1.0" encoding="utf-8"?>
<!-- Generator: Adobe Illustrator 23.1.0, SVG Export Plug-In . SVG Version: 6.00 Build 0)  -->
<svg version="1.1" id="Layer_1" xmlns="http://www.w3.org/2000/svg" xmlns:xlink="http://www.w3.org/1999/xlink" x="0px" y="0px"
	 viewBox="0 0 419 105" style="enable-background:new 0 0 419 105;" xml:space="preserve">
<style type="text/css">
	.st0{fill:#92278F;}
	.st1{fill:#FFFFFF;}
</style>
<path class="st0" d="M396.4,102.2H22.6c-6.1,0-11-4.9-11-11V13.8c0-6.1,4.9-11,11-11h373.8c6.1,0,11,4.9,11,11v77.4
	C407.5,97.3,402.5,102.2,396.4,102.2z"/>
<title>eng</title>
<g>
	<g id="Layer_1-2">
		<path class="st1" d="M107.2,27.1h27v5.4h-20.5v13.2h17.2v5.4h-17.2V66h21.4v5.4h-27.9V27.1z"/>
		<path class="st1" d="M149.3,42.8h0.3c2.4-2.7,5.7-4,9.9-4c7.8,0,11.7,4.6,11.7,13.7v18.9h-6V52.8c0-5.9-2.6-8.9-7.8-8.9
			c-1.5,0-3,0.4-4.4,1c-1.3,0.5-2.4,1.4-3.3,2.5v23.9h-6V39.6h5L149.3,42.8z"/>
		<path class="st1" d="M203.3,68.4V68c-2.1,2.8-5.5,4.4-9,4.2c-4.3,0.2-8.5-1.7-11.2-5.2c-2.4-3.1-3.6-7-3.4-10.9
			c0-5.8,1.7-10.3,5-13.4c2.6-2.6,6.2-4,9.9-3.9c1.9,0,3.8,0.4,5.6,1.2c1.5,0.6,2.8,1.6,3.8,2.9l0.7-3.3h4.7v28.8
			c0,10.9-4.8,16.4-14.3,16.4c-4.2,0-8.2-1.5-12.1-4.6l1.8-3.2c2.8,1.9,6.1,3,9.5,2.9C200.3,79.9,203.3,76,203.3,68.4z M203.3,61.4
			V48.8c-0.4-1.6-1.4-2.9-2.8-3.8c-1.4-1-3.1-1.6-4.9-1.6c-2.7-0.1-5.3,1.2-6.9,3.4c-1.8,2.5-2.8,5.6-2.6,8.7c0,4.1,0.9,7.2,2.8,9.3
			c1.6,1.8,3.9,2.9,6.3,2.8c1.8,0,3.6-0.6,5-1.8C201.7,64.7,202.8,63.1,203.3,61.4z"/>
		<path class="st1" d="M226.3,26.2v45.2h-6V29.5L226.3,26.2z"/>
		<path class="st1" d="M236.9,29.8c0-0.9,0.3-1.9,1-2.5c0.7-0.7,1.6-1,2.5-1c1,0,1.9,0.4,2.6,1.1c0.7,0.6,1.1,1.6,1.1,2.5
			c0,2-1.6,3.6-3.5,3.6c0,0-0.1,0-0.1,0c-1,0-1.9-0.3-2.6-1C237.1,31.8,236.8,30.8,236.9,29.8z M243.4,39.6v31.8h-6V39.6H243.4z"/>
		<path class="st1" d="M271.7,45.4c-2.3-1.3-5-2-7.7-2c-1.3-0.1-2.6,0.3-3.7,1.1c-0.9,0.7-1.4,1.8-1.4,2.9c-0.1,1.2,0.4,2.3,1.3,3.1
			c1.5,1,3.1,1.7,4.9,2.1c3.6,1,6.1,2.1,7.5,3.3c2,1.8,3,4.3,2.9,6.9c0.1,2.6-1.1,5.2-3.1,6.9c-2.3,1.8-5.3,2.8-8.2,2.6
			c-4.2,0.1-8.4-1.2-11.8-3.8l2.1-3.4c2.6,1.6,5.6,2.5,8.7,2.4c4.3,0,6.4-1.6,6.4-4.9c0.1-1.2-0.4-2.4-1.4-3.2
			c-1.6-1-3.4-1.7-5.2-2.1c-6.8-1.7-10.2-5-10.2-9.9c0-2.4,1.1-4.8,3-6.3c2.2-1.7,4.9-2.6,7.7-2.5c3.7-0.1,7.3,1.1,10.3,3.3
			L271.7,45.4z"/>
		<path class="st1" d="M290.3,26.2v16.9c2.5-2.8,6.1-4.4,9.9-4.3c7.8,0,11.7,4.6,11.7,13.7v18.9h-6V52.8c0-5.9-2.6-8.9-7.8-8.9
			c-1.5,0-3,0.4-4.4,1c-1.3,0.5-2.4,1.4-3.3,2.5v23.9h-6V29.5L290.3,26.2z"/>
	</g>
</g>
</svg>
