<?xml version="1.0" encoding="utf-8"?>
<!-- Generator: Adobe Illustrator 23.1.0, SVG Export Plug-In . SVG Version: 6.00 Build 0)  -->
<svg version="1.1" id="Layer_1" xmlns="http://www.w3.org/2000/svg" xmlns:xlink="http://www.w3.org/1999/xlink" x="0px" y="0px"
	 viewBox="0 0 412.3 133.7" style="enable-background:new 0 0 412.3 133.7;" xml:space="preserve">
<style type="text/css">
	.st0{fill:#FFFFFF;}
</style>
<g>
	<path class="st0" d="M135.6,83.5h5.2v9.1h-6.1c-3.7,0-6.7-1-9.1-2.9c-2.4,1.9-5.5,2.9-9.2,2.9H89.7c-4.3,0-7.6-1.4-10-4.3
		c-2.2-2.5-3.2-5.7-3.2-9.7V71l9.4-4.9v12c0,2,0.4,3.4,1.2,4.2c0.8,0.8,2.2,1.2,4.1,1.2h24.5c1.9,0,3.2-0.4,4-1.3
		c0.8-0.8,1.2-2.2,1.2-4.2V64.2l9.4-4.9v18.8c0,1.9,0.4,3.3,1.2,4.2S133.7,83.5,135.6,83.5z M96.9,57.7c-1.5,0-2.7-0.5-3.6-1.4
		S92,54.2,92,52.7c0-1.4,0.5-2.6,1.3-3.5c0.9-0.9,2.1-1.4,3.6-1.4s2.7,0.4,3.6,1.3c0.9,0.9,1.3,2.1,1.3,3.6
		C101.8,56,100.2,57.7,96.9,57.7z M108.5,57.7c-1.5,0-2.7-0.5-3.6-1.4s-1.3-2.1-1.3-3.7c0-3.2,1.7-4.9,5-4.9c1.5,0,2.7,0.4,3.6,1.3
		c0.9,0.9,1.3,2.1,1.3,3.6C113.3,56,111.7,57.7,108.5,57.7z"/>
	<path class="st0" d="M136.4,92.5v-9.1h6.8c1.9,0,3.2-0.4,4-1.2s1.2-2.2,1.2-4.2V64.2l9.5-4.9v19.3c0,4.6-1.4,8.1-4.2,10.7
		c-2.5,2.2-5.7,3.4-9.6,3.4h-7.7V92.5z M153.3,51.7c-1.5,0-2.7-0.5-3.6-1.4c-0.9-0.9-1.3-2.1-1.3-3.7c0-1.4,0.5-2.6,1.3-3.5
		c0.9-0.9,2.1-1.4,3.6-1.4s2.7,0.4,3.6,1.3c0.9,0.9,1.3,2.1,1.3,3.6C158.2,50,156.6,51.7,153.3,51.7z"/>
	<path class="st0" d="M190.1,83.5h6.8v9.1h-7.7c-1.7,0-3.3-0.2-4.7-0.7c-0.7,4.8-2.6,8.6-5.8,11.4c-2.9,2.5-6.4,3.8-10.4,3.8
		c-3.2,0-6.2-0.8-9.2-2.4v-8.2c2.6,1.4,5.2,2.2,7.6,2.2c2.7,0,4.9-0.9,6.4-2.7c1.5-1.8,2.3-4.2,2.3-7.4V64.2l6.2-3.2l3.2-1.7v0.1
		l0.1-0.1v18.8c0,1.9,0.4,3.3,1.2,4.2C186.9,83.1,188.2,83.5,190.1,83.5z"/>
	<path class="st0" d="M219.1,83.5h6.8v9.1h-7.7c-3.7,0-6.7-1-9.1-2.9c-2.4,1.9-5.4,2.9-9.1,2.9h-7.7v-9.1h6.8c1.9,0,3.2-0.4,4-1.2
		s1.2-2.2,1.2-4.2V64.2l9.5-4.9v18.8c0,1.9,0.4,3.3,1.2,4.2C215.8,83.1,217.2,83.5,219.1,83.5z M199.5,52.6c-1.5,0-2.7-0.5-3.6-1.4
		c-0.9-0.9-1.4-2.1-1.4-3.7c0-1.4,0.5-2.6,1.4-3.5s2.1-1.3,3.6-1.3s2.7,0.4,3.6,1.3c0.9,0.9,1.3,2.1,1.3,3.6
		C204.4,51,202.8,52.6,199.5,52.6z M211,52.6c-1.5,0-2.7-0.5-3.6-1.4c-0.9-0.9-1.4-2.1-1.4-3.6c0-1.4,0.5-2.6,1.4-3.5
		s2.1-1.3,3.6-1.3s2.7,0.4,3.6,1.3c0.9,0.9,1.3,2.1,1.3,3.6C215.9,51,214.2,52.6,211,52.6z"/>
	<path class="st0" d="M221.3,92.5v-9.1h6.8c1.9,0,3.2-0.4,4-1.2s1.2-2.2,1.2-4.2V64.2l9.5-4.9v19.3c0,4.6-1.4,8.1-4.2,10.7
		c-2.5,2.2-5.7,3.4-9.6,3.4h-7.7V92.5z M238.3,51.7c-1.5,0-2.7-0.5-3.6-1.4c-0.9-0.9-1.3-2.1-1.3-3.7c0-1.4,0.5-2.6,1.3-3.5
		c0.9-0.9,2.1-1.4,3.6-1.4s2.7,0.4,3.6,1.3c0.9,0.9,1.3,2.1,1.3,3.6C243.2,50,241.5,51.7,238.3,51.7z"/>
	<path class="st0" d="M253.4,40l2.4-4.3h2.2c-0.6-1-0.8-2-0.8-3.1c0-1.6,0.6-3,1.8-4.1c1.2-1.1,2.6-1.7,4.2-1.7
		c1.5,0,2.9,0.5,4.2,1.6v4.4c-1.2-1.1-2.4-1.6-3.6-1.6c-1.7,0-2.5,0.8-2.5,2.2c0,0.8,0.3,1.5,1,2.3h7.4l-2.4,4.3H253.4z M256.3,92.5
		V49.2l9.5-5v48.4h-9.5V92.5z"/>
</g>
<g>
	<g>
		<path class="st0" d="M402.9,50.3c-0.6,0-1.1-0.2-1.5-0.6c-11.4-11.2-29.6-11.2-41,0c-0.9,0.8-2.2,0.6-3-0.3
			c-0.7-0.8-0.7-1.9,0-2.7c13-12.9,34-12.9,47,0c0.8,0.8,0.8,2.2,0,3C404,50.1,403.5,50.4,402.9,50.3L402.9,50.3z"/>
	</g>
	<g>
		<path class="st0" d="M395.3,57.9c-0.6,0-1.1-0.2-1.5-0.6c-7.1-7.1-18.6-7.1-25.7,0c-0.9,0.8-2.2,0.6-3-0.3c-0.7-0.8-0.7-1.9,0-2.7
			c8.8-8.7,22.9-8.7,31.7,0c0.8,0.8,0.8,2.2,0,3C396.4,57.7,395.8,58,395.3,57.9L395.3,57.9z"/>
	</g>
	<g>
		<path class="st0" d="M387.6,65.5c-0.6,0-1.1-0.2-1.5-0.6c-2.9-2.8-7.5-2.8-10.4,0c-0.8,0.8-2.2,0.8-3,0s-0.8-2.2,0-3
			c4.5-4.5,11.9-4.5,16.4,0c0.8,0.8,0.8,2.2,0,3C388.7,65.3,388.2,65.5,387.6,65.5L387.6,65.5z"/>
	</g>
	<g>
		<path class="st0" d="M377.4,88.1h-7.1c-2.8,0-5-2.2-5-5V76c0-1.2,1-2.1,2.1-2.1s2.1,1,2.1,2.1v7.1c0,0.4,0.3,0.7,0.7,0.7h7.1
			c1.2,0,2.1,1,2.1,2.1C379.5,87.1,378.5,88.1,377.4,88.1L377.4,88.1z"/>
	</g>
	<g>
		<path class="st0" d="M394.4,96.6h-7.1c-2.8,0-5-2.2-5-5V78.9c0-2.8,2.2-5,5-5h7.1c1.2,0,2.1,1,2.1,2.1c0,1.2-1,2.1-2.1,2.1h-7.1
			c-0.4,0-0.7,0.3-0.7,0.7v12.8c0,0.4,0.3,0.7,0.7,0.7h5V88h-2.2c-1.2,0-2.1-1-2.1-2.1c0-1.2,1-2.1,2.1-2.1h4.2
			c1.2,0,2.1,0.9,2.1,2.1v8.5C396.5,95.6,395.6,96.6,394.4,96.6L394.4,96.6z"/>
	</g>
	<g>
		<path class="st0" d="M410,76.1h-7.1c-1.2,0.1-2.2-0.8-2.3-2s0.8-2.2,2-2.3c0.1,0,0.2,0,0.3,0h7.1c1.2-0.1,2.2,0.8,2.3,2
			s-0.8,2.2-2,2.3C410.2,76.1,410.1,76.1,410,76.1z"/>
	</g>
	<g>
		<path class="st0" d="M377.4,73.9c-1.2,0-2.1,1-2.1,2.1v18.5c0,1.2,1,2.1,2.1,2.1c1.2,0,2.1-1,2.1-2.1V76.1
			C379.5,74.9,378.5,73.9,377.4,73.9z"/>
	</g>
	<g>
		<path class="st0" d="M406.5,68.3c-1.2,0-2.1,1-2.1,2.1v7.1c0,1.2,1,2.1,2.1,2.1c1.2,0,2.1-1,2.1-2.1v-7.1
			C408.6,69.1,407.6,68.3,406.5,68.3L406.5,68.3z"/>
	</g>
	<g>
		<path class="st0" d="M380.2,37.3c1,0,2,0.1,3,0.3V9.9c0-4.9-4-8.9-8.9-8.9h-58.7c-4.9,0-8.9,4-8.9,8.9v113.9c0,4.9,4,8.9,8.9,8.9
			h58.7c4.9,0,8.9-4,8.9-8.9V98H377v18.2h-64.1V15.1H377v22.6C378.1,37.5,379.1,37.4,380.2,37.3z M345,119.3c2.5,0,4.4,2,4.4,4.5
			s-2,4.4-4.5,4.4s-4.4-2-4.4-4.5C340.5,121.3,342.5,119.3,345,119.3C344.9,119.3,345,119.3,345,119.3z M354.4,9.6h-18.8
			c-0.6,0-1.1-0.5-1.1-1.1s0.5-1.1,1.1-1.1h18.8c0.6,0,1.1,0.5,1.1,1.1C355.4,9.1,354.9,9.6,354.4,9.6z"/>
	</g>
</g>
</svg>
