<?xml version="1.0" encoding="utf-8"?>
<!-- Generator: Adobe Illustrator 23.1.0, SVG Export Plug-In . SVG Version: 6.00 Build 0)  -->
<svg version="1.1" id="Layer_1" xmlns="http://www.w3.org/2000/svg" xmlns:xlink="http://www.w3.org/1999/xlink" x="0px" y="0px"
	 viewBox="0 0 434.8 121.4" style="enable-background:new 0 0 434.8 121.4;" xml:space="preserve">
<style type="text/css">
	.st0{fill:#FFC74A;stroke:#0F0F33;stroke-width:8;stroke-miterlimit:10;}
	.st1{fill:#0F0F33;stroke:#0F0F33;stroke-width:5;stroke-miterlimit:10;}
	.st2{fill:#92278F;}
	.st3{fill:#0F0F33;}
	.st4{enable-background:new    ;}
	.st5{fill:#FFFFFF;}
</style>
<title>Asset 7</title>
<g>
	<g>
		<path class="st0" d="M127.7,68.9l-16.4,28.4l-1.7,3l-5.2,9c-1.2,2-2.7,3.7-4.6,5.1l-0.7,0.4c-2.7,1.7-5.8,2.7-9,2.7H43.7
			c-5.9,0-11.3-3.1-14.2-8.2l-5.2-9l-1.7-2.9l-8-13.8l-0.5-0.8L6.2,68.9c-0.3-0.5-0.6-1.1-0.8-1.7c-0.1-0.2-0.2-0.5-0.3-0.7
			c-1.7-4.5-1.4-9.6,1-13.8l0.1-0.2l0.4-0.8l20.1-34.9l0.4-0.6l2.3-4C32.4,7.1,37.8,4,43.7,4h46.5c5.9,0,11.3,3.1,14.2,8.2l2,3.5
			l0.6,1l20.7,35.8C130.6,57.6,130.6,63.8,127.7,68.9z"/>
		<path d="M38.3,44.9c0,0.6-0.6,0.6-1,0.6h-8.8c-0.1-0.3-0.1-0.7,0-1c2.9,0,5.9,0,8.8,0C37.7,44.5,38.3,44.3,38.3,44.9z"/>
		<path class="st1" d="M111.3,97.3l-1.7,3l-8.4-14.6l-0.3-0.5l0,0c-0.2-0.4-0.5-0.8-0.7-1.1l-0.2-0.2c-0.3-0.4-0.6-0.8-1-1.1
			l-0.3-0.3c-1.7-1.6-3.9-2.6-6.3-3c-0.2,0-0.4-0.1-0.6-0.1c-0.4,0-0.8-0.1-1.2-0.1H43.3c-4.2,0-8.1,2.2-10.3,5.8l-8.7,15.1
			l-1.7-2.9l7.9-13.7c2.7-4.6,7.6-7.4,12.8-7.4h47.3c1.6,0,3.2,0.3,4.8,0.8c0.3,0.1,0.5,0.2,0.8,0.3s0.5,0.2,0.7,0.3l0.7,0.4
			c0.4,0.2,0.8,0.5,1.2,0.7s0.5,0.4,0.8,0.6s0.5,0.4,0.8,0.6s0.5,0.4,0.7,0.7c0.9,0.9,1.7,2,2.4,3.1l0,0l0.3,0.6L111.3,97.3z"/>
		<path class="st2" d="M58.7,45.1c0,1.4-1.1,2.5-2.5,2.5c-1,0-1.9,0-2.9,0c-1.4,0.1-2.6-1-2.7-2.4c0-0.1,0-0.2,0-0.3
			c0-1.2,0-2.5,0-3.7l0,0c0-1.2,0-2.5,0-3.7c-0.1-1.4,1-2.6,2.4-2.7c0.1,0,0.3,0,0.4,0h2.6c1.4-0.1,2.6,1,2.6,2.4c0,0.1,0,0.1,0,0.2
			C58.8,39.9,58.8,42.5,58.7,45.1z"/>
		<path class="st2" d="M83.2,45c0,1.4-1.1,2.6-2.5,2.6c-0.1,0-0.1,0-0.2,0c-0.9,0-1.8,0-2.7,0c-1.4,0.1-2.6-1-2.7-2.4
			c0-0.1,0-0.1,0-0.2c0-2.6,0-5.2,0-7.8c0-1.4,1.1-2.5,2.5-2.5c0,0,0.1,0,0.1,0c0.9,0,1.9,0,2.8,0c1.4,0,2.6,1,2.6,2.4
			c0,0,0,0,0,0.1c0,1.3,0,2.7,0,4l0,0C83.2,42.5,83.2,43.8,83.2,45z"/>
		<path class="st3" d="M105.4,49.6c-0.2,1.8-1.8,3.1-3.6,3.1c-1.6-0.1-2.3,0.4-2.9,1.9c-2.7,6.1-7.8,10.8-14.1,13.1
			c-3.4,1.3-7.1,2-10.8,1.9c-2.7,0-5.3,0-7.9,0h-1.2c-1.7,0-3.4,0-5.1,0c-2.1,0-4.2-0.2-6.3-0.6l-1-0.2c-3.6-0.8-7-2.4-9.9-4.6
			c-3.6-2.7-6.5-6.3-8.2-10.5c-0.1-0.6-0.7-1-1.3-0.8c-1.4,0.2-2.8-0.2-3.8-1.3c-0.3-0.4-0.6-0.8-0.7-1.3c0,0,0-0.1,0-0.1
			c0-0.1,0-0.2,0.1-0.2c0.3-0.1,0.6,0,0.7,0.2c0,0,0,0,0,0.1c0.5,1.3,1.9,2.1,3.3,2c-0.5-0.1-1-0.2-1.6-0.4
			c-0.5-0.1-0.8-0.5-0.9-0.9c0-0.3,0.1-0.6,0.4-0.7c0.4-0.2,0.9-0.1,1.2,0.2c0.1,0.2,0.3,0.4,0.5,0.3c1.6-0.3,3,0.8,4.5,0.9
			c0.9,0.1,1.1,0.3,1.5,1.2c0.1-0.5-0.2-0.7-0.3-1c-0.2-0.3-0.3-0.8-0.1-1.2c0.2-0.5,0.7-0.7,0.9-0.1c0.4,0.9,1.1,1.5,1.4,2.4
			c0.3-0.2,0.2-0.4,0.1-0.5c-0.7-1.2-1.2-2.4-1.7-3.7c-0.2-0.5-0.3-1.1-0.3-1.6c0-0.5-0.2-0.6-0.7-0.6c-2.6,0.1-5.2,0-7.8,0
			c-0.5,0.1-1,0-1.5-0.3v-0.6c0.4-0.3,0.9-0.4,1.5-0.4h6.3c0.4,0,0.8,0,1.2-0.2c-0.4-0.3-0.7-0.2-1.1-0.2c-2.1,0-4.3,0-6.4,0
			c-0.5,0.1-1,0-1.5-0.3c0.2-0.3,0.4-0.2,0.7-0.2c2.9,0,5.8,0,8.7,0c0.7,0,0.9,0.2,1,0.9c1,6,3.9,10.8,9.1,14.1
			c2.9,1.9,6.3,2.9,9.7,3c6.2,0,12.5,0.3,18.7-0.1c8-0.5,13.8-4.4,17.1-11.8c0.1-0.2,0.2-0.5,0.4-0.7c3.5-1.1,6.9-2.7,10.1-4.5
			c-2.3-0.1-4.6,0-7-0.1c-0.5,0-1.1,0.1-1.5-0.4c0.1-0.3,0.3-0.2,0.5-0.2h9c0.1,0,0.3,0,0.4,0.1C105.5,46.2,105.5,47.9,105.4,49.6z"
			/>
		<path class="st3" d="M40.7,53.3c-0.2,0.2-0.7,0.2-0.7-0.1c0.1-0.9-0.6-1.1-1-1.7c-0.2-0.4-0.3-0.8-0.4-1.2
			c-0.5,0.4-0.7,0.8-0.2,1.3s0.3,1.2,0.2,1.8c-0.1,0.2-0.2,0.4-0.4,0.3s-0.2-0.3-0.1-0.5c0.4-0.9-0.2-1.1-0.9-1.2s-1.6,0.2-2.3-0.7
			c-0.4-0.5-1.4-0.1-2.2-0.2c-0.4,0-0.9,0.1-1-0.5c-0.1-0.4-0.5-0.4-0.8-0.3c-0.3,0-0.4,0.3-0.4,0.5c0,0,0,0,0,0
			c0,0.3,0.3,0.6,0.6,0.6c1,0.1,1.9,0.7,3,0.5c0.2,0,0.5,0,0.7,0.1c0.2,0.1,0.2,0.3,0.2,0.4s-0.2,0.3-0.4,0.2
			c-0.6-0.5-1.4-0.3-2.1-0.3c-1.4,0.2-2.8-0.6-3.3-2c-0.1-0.4-0.3-0.7-0.7-0.2V50c-0.2-1.3-0.3-2.6-0.1-3.8H37c0.2,0,0.5,0,0.7,0
			c1.3-0.6,1,0.4,1,1c0,0.6,0.2,1.2,0.5,1.7c0.5,1.3,1.1,2.6,1.8,3.9C41.3,53.2,40.9,53.2,40.7,53.3z"/>
		<path class="st3" d="M104.8,45c0,0.3-0.3,0.3-0.5,0.5c-1.3,0.6-2.6,1.3-3.9,2c-1.7,0.9-3.5,1.7-5.3,2.2c-0.4,0.1-0.8,0.3-1.2,0
			c0.5-1.5,0.9-3.1,1.2-4.8c0-0.4,0.2-0.6,0.6-0.6h9.6c0,0,0.1,0.1,0.2,0.1h-9.7c0.3,0.3,0.6,0.2,0.9,0.2h7.6
			C104.4,44.7,104.8,44.5,104.8,45z"/>
		<path class="st3" d="M95,25.1c-1.3,0.4-2.1,1.6-2,3c0,0.3,0,0.7-0.4,0.8s-0.6-0.4-0.7-0.7c-0.2-0.6-0.5-0.9-1.2-0.7
			c-3.3-4-8.1-6.6-13.2-7.1c-1-0.1-2.1-0.2-3.1-0.1c-5,0-10,0-15,0c-2.4,0-4.9,0.3-7.2,1c-0.2-0.1-0.5,0-0.6-0.2v-0.1
			c0.1-0.6,0.6-0.5,1-0.6s1-0.1,1.1-0.7s-0.3-0.9-0.8-1c-0.4-0.1-0.6-0.5-0.6-0.9c0-0.7-0.3-1-1.1-1s-1-0.4-0.8-1.2
			c-0.7,0.5-1.5,0.6-2.3,0.4c-0.2-0.1-0.6-0.1-0.5-0.5c3.8-1.7,7.8-2.5,11.9-2.5c4.8,0,9.7-0.2,14.5,0l1.3,0.1h0.6
			c2.1,0.1,4.2,0.5,6.3,1l1,0.3l0,0c4.1,1.3,7.9,3.6,10.9,6.7c0.3,0.3,0.8,0.6,0.8,1.1c-0.1,0.4,0.2,0.5,0.4,0.7
			C96.2,23.6,96.1,24.7,95,25.1z"/>
		<path class="st3" d="M105.4,37.6c0,0.4-0.2,0.5-0.6,0.5c-3.1,0-6.2,0-9.2,0c-0.7,0-0.6-0.5-0.7-0.9c-0.6-3.6-2-6.9-4.2-9.8
			c0.8-0.7,1.1-0.7,1.3,0.3c0.1,0.4,0.3,0.6,0.5,1.1c0.2-0.4,0.3-0.8,0.2-1.2c-0.1-1.3,0.7-2.4,2-2.7c1.2-0.4,1.3-1.3,0.4-2.2
			c-0.4-0.3-0.2-0.5,0-0.7c0.4,0.6,1.3,0.9,1.3,1.8c-0.4,1.9,0.8,3.1,2,4.3s2.5,2.3,3.7,3.6c0.8,0.9,1.6,1.4,2.8,0.8
			c0.2-0.1,0.3-0.1,0.5,0C105.5,34.2,105.6,35.9,105.4,37.6z"/>
		<path class="st3" d="M38.8,37.1c0.1,0.7-0.1,1-1,1c-2.8,0-5.7,0-8.5,0c-0.7,0-0.9-0.2-0.9-0.9c0-1.3,0-2.5,0-3.8
			c0-2,1.5-3.6,3.5-3.7c0.1,0,0.1,0,0.2,0c1.5,0.1,2.3-0.3,2.8-1.8c0.2-0.6,0.5-1.3,0.9-1.8c0.1-0.1,0.2-0.1,0.3,0l0,0l0.1,0.1
			c0.2,0.1,0.4,0.3,0.5,0.5c0.9,1.8,2.1,3.4,3.1,5l0,0c0,0.1,0.1,0.2,0.1,0.2c0,0.1,0.1,0.2,0.1,0.3C39.3,33.8,38.9,35.4,38.8,37.1z
			"/>
		<path class="st3" d="M54,19.9c-0.2,0.8-1,0.7-1.6,0.8c-0.4,0-0.7,0-0.8,0.3l0,0c-1.4,1-3,1.4-4.4,2.4l-0.4,0h-0.4
			c-0.5,0-0.6-0.2-0.7-1.2c0-0.1,0-0.4-0.1-0.4c-0.9-0.1-1.4-1-2.3-1.2c-0.1,0-0.3,0-0.4,0c-1.3-0.9-2.1,0.1-2.8,1
			c-1.1,1.1-2,2.3-2.8,3.6c-0.2,0.4-0.4,0.8-0.8,0.9h-0.2h-0.3c1.1-2.2,2.6-4.2,4.5-5.9c2.1-2,4.6-3.7,7.3-4.9
			c0.7,0.4,1.5,0.4,2.2,0.1c0.5-0.2,1-0.3,1.6-0.1c0,0.3-0.1,0.3-0.3,0.3s-0.7-0.1-0.6,0.3c0,0.3,0.3,0.6,0.7,0.5c0,0,0.1,0,0.1,0
			c1.2-0.4,1.5,0.2,1.4,1.2c0,0.3,0,0.6,0.4,0.6C54.1,18.4,54.2,19.1,54,19.9z"/>
		<path class="st3" d="M105.3,32.6c-1.8,0.9-2.1,0.8-3.5-0.6l-5.1-5.1c-0.8-0.8-1-2.1-0.4-3c0.6,0.3,1,0.7,1.2,1.3
			c0.7,1.2,1.3,2.4,1.8,3.6c0.2,0.6,0.7,0.9,1.3,0.9c0.6,0.1,1.1,0.4,1.5,0.8c0.6,0.9,1.7,1.4,2.9,1.2
			C105.2,32,105.3,32.3,105.3,32.6z"/>
		<path class="st3" d="M52.2,21.2c-7.4,2.7-11.6,8-13.2,15.6c0,0.1-0.1,0.3-0.2,0.4c-0.1-1.7,0.4-3.5,1.2-5l0,0
			c-0.1-0.1-0.1-0.3-0.1-0.4c0-0.1,0-0.3,0.1-0.4c1.1-2.5,2.6-4.7,4.7-6.5c0.5-0.5,1.1-1,1.7-1.4c0.2-0.1,0.4-0.2,0.7-0.2
			c1.5-0.9,3-1.6,4.6-2.2l0,0C51.8,21,52,21,52.2,21.2z"/>
		<path class="st3" d="M105,31.7c-0.6,0.5-1.6,0.5-2.1-0.2c0,0,0,0,0-0.1c-0.6-0.7-1.3-1.3-2.1-1.8C102.9,29.5,104.2,30.2,105,31.7z
			"/>
		<path class="st3" d="M94,26.6c0-0.4,0-0.9,0.4-0.9s0.6,0.5,0.6,0.9s0,0.7-0.5,0.8S94.1,27,94,26.6z"/>
		<path class="st3" d="M47,23.2c-3.1,2.2-5.6,5.3-7,8.8c-1.2-1.5-2.3-3.1-3.2-4.8c-0.2-0.4-0.5-0.7-0.7-1.1c1.1-1.3,1.9-2.8,3-4.1
			c0.6-0.7,1.4-1.2,1.9-2c0.1-0.2,0.3-0.2,0.5-0.1c0.6,0.2,1.1,0.7,1.9,0.4c0.2-0.1,0.4,0.2,0.5,0.4s0.4,0.5,0.6,0.5
			c1,0.1,1.6,0.4,1.3,1.6C45.7,23.6,46.7,22.9,47,23.2z"/>
	</g>
	<g class="st4">
		<path class="st5" d="M192.3,88.9h-25.9c-0.9,0-1.4-0.5-1.4-1.4V38.9c0-0.9,0.5-1.4,1.4-1.4h5c0.9,0,1.4,0.5,1.4,1.4v42.3
			c0,0.5,0.3,0.8,1,0.8h18.6c0.9,0,1.4,0.5,1.4,1.4v4.2C193.6,88.5,193.2,88.9,192.3,88.9z"/>
		<path class="st5" d="M209.2,38.9v48.7c0,0.9-0.5,1.4-1.4,1.4h-5c-0.9,0-1.4-0.5-1.4-1.4V38.9c0-0.9,0.5-1.4,1.4-1.4h5
			C208.7,37.5,209.2,37.9,209.2,38.9z"/>
		<path class="st5" d="M221.2,87.6V38.9c0-0.9,0.5-1.4,1.4-1.4h19c3.9,0,7,1.1,9.2,3.2c2.2,2.1,3.3,5.1,3.3,9v3.9
			c0,4.6-2.2,7.6-6.6,9c2.1,0.3,3.8,1.2,5.2,2.7s2,3.6,2,6.2v5.1c0,3.9-1.1,6.9-3.3,9c-2.2,2.1-5.2,3.2-9.1,3.2h-19.7
			C221.7,88.9,221.2,88.5,221.2,87.6z M229.9,59.4h10.4c4.1,0,6.1-1.9,6.1-5.8v-3.7c0-3.8-2-5.8-5.9-5.8h-10.6
			c-0.6,0-0.9,0.3-0.9,0.8v13.7C229,59.1,229.3,59.4,229.9,59.4z M229.9,82.3h11.2c4,0,6-1.9,6-5.8v-5c0-3.8-2.1-5.8-6.3-5.8h-10.9
			c-0.6,0-0.9,0.3-0.9,0.8v14.9C229,82,229.3,82.3,229.9,82.3z"/>
		<path class="st5" d="M282.4,88.9h-5.1c-0.9,0-1.4-0.5-1.4-1.4V69.9l-15-31c-0.2-0.4-0.2-0.8,0-1c0.2-0.3,0.5-0.4,0.9-0.4h6.4
			c0.7,0,1.2,0.5,1.6,1.4l9.8,22h0.5l9.7-22c0.3-0.9,0.9-1.4,1.6-1.4h6.4c0.4,0,0.7,0.1,0.9,0.4c0.2,0.3,0.2,0.6,0,1l-15,31v17.7
			C283.8,88.5,283.4,88.9,282.4,88.9z"/>
		<path class="st5" d="M308.8,88.9h-5.8c-0.7,0-1-0.5-0.8-1.4l13.9-48.7c0.3-0.9,0.9-1.4,1.9-1.4h8c1.1,0,1.7,0.5,1.9,1.4L342,87.6
			c0.2,0.9-0.1,1.4-0.9,1.4h-5.7c-0.5,0-0.8-0.1-1-0.3c-0.2-0.2-0.3-0.5-0.4-1.1l-3-10.4h-17.6l-3,10.4
			C310.1,88.5,309.6,88.9,308.8,88.9z M322,45.2l-7,25.6h14.5l-7.1-25.6H322z"/>
		<path class="st5" d="M356.2,88.9h-5c-0.9,0-1.4-0.5-1.4-1.4V38.9c0-0.9,0.5-1.4,1.4-1.4h4.5c0.9,0,1.4,0.3,1.8,0.9l19.4,34.8h0.3
			V38.9c0-0.9,0.5-1.4,1.4-1.4h5c0.9,0,1.4,0.5,1.4,1.4v48.7c0,0.9-0.5,1.4-1.4,1.4h-4.3c-0.9,0-1.5-0.4-2.1-1.3l-19.2-34.4h-0.3
			v34.3C357.6,88.5,357.1,88.9,356.2,88.9z"/>
		<path class="st5" d="M417.4,88.9h-9.3c-3.9,0-7-1.1-9.2-3.3c-2.2-2.2-3.2-5.2-3.2-9.1V49.9c0-3.9,1.1-7,3.2-9.2
			c2.2-2.2,5.2-3.2,9.2-3.2h9.3c3.9,0,7,1.1,9.2,3.2c2.2,2.2,3.3,5.2,3.3,9.2v26.6c0,3.9-1.1,6.9-3.3,9.1
			C424.4,87.8,421.4,88.9,417.4,88.9z M409.2,82.1h7c3.9,0,5.8-2,5.8-5.9v-26c0-3.9-1.9-5.9-5.8-5.9h-7c-3.8,0-5.8,2-5.8,5.9v26
			C403.5,80.2,405.4,82.1,409.2,82.1z"/>
	</g>
</g>
</svg>
