<svg xmlns="http://www.w3.org/2000/svg" viewBox="0 0 93.38 93.38"><defs><style>.cls-1,.cls-2{fill:#fff;}.cls-2{fill-rule:evenodd;}</style></defs><title>Asset 5</title><g id="Layer_2" data-name="Layer 2"><g id="Layer_1-2" data-name="Layer 1"><path class="cls-1" d="M47.34,0a46.69,46.69,0,1,0,46,46,46.75,46.75,0,0,0-46-46M89.22,46.09A42.53,42.53,0,1,1,47.28,4.16,42.58,42.58,0,0,1,89.22,46.09"/><path class="cls-2" d="M44.66,26.25H56.13L47.6,49.49c-.63,1.74-.31,2.8.4,2.76l9.68-.36c2,0,3.6-3.28,4.18-5l7.33-20.67H80.66L70.88,53.09c-1.87,5.11-5.71,8.38-8,8.43H39.3c-4.89,0-5.88-4.34-3.12-11.85Z"/><path class="cls-1" d="M41.81,11.68a6.12,6.12,0,1,0,5.6,5.6,6.12,6.12,0,0,0-5.6-5.6m3.87,6.1a4.39,4.39,0,1,1-4.37-4.41,4.4,4.4,0,0,1,4.37,4.41"/><path class="cls-1" d="M26.35,28.24h7.86c-2.06,5.87-9.16,24.53-9.58,27.34a7.08,7.08,0,0,0,.34,4c-1.26,0-2.52,0-3.79,0s-2.64.13-3.59-.63c-1.48-1.19-.74-3.63-.25-5.11s8.93-25.31,9-25.53m-1.38-2c-.13,0-6.26,18.22-8.87,24.94-.74,1.92-1.6,4-1.43,6.09s1.61,4.25,4,4.23c1.47,0,8.33,0,10.22,0a.46.46,0,0,0,.16-.88c-5.75-2.32-1-8.31,8-34.39Z"/><path class="cls-1" d="M63.52,63C45.58,76.58,42.75,50.91,26.33,74.73a.44.44,0,0,0,.12.63.44.44,0,0,0,.49,0c13.54-8.71,14.74-1.51,22.42-1.07h.07c7.13-.41,10.3-5.51,14.61-10.63h0a.43.43,0,0,0-.34-.68.4.4,0,0,0-.19.05M37.94,69.58a17,17,0,0,0-7.14,1.73c11.65-13.41,16.19,1.83,28-3.7-10.47,10.52-12.37,2-20.84,2"/></g></g></svg>