<?xml version="1.0" encoding="utf-8"?>
<!-- Generator: Adobe Illustrator 23.1.0, SVG Export Plug-In . SVG Version: 6.00 Build 0)  -->
<svg version="1.1" id="Layer_1" xmlns="http://www.w3.org/2000/svg" xmlns:xlink="http://www.w3.org/1999/xlink" x="0px" y="0px"
	 viewBox="0 0 412.3 133.7" style="enable-background:new 0 0 412.3 133.7;" xml:space="preserve">
<style type="text/css">
	.st0{fill:#FFFFFF;}
</style>
<g>
	<g>
		<path class="st0" d="M76.4,35.6V9.9c0-4.9-3.9-8.9-8.9-8.9H8.8C3.9,1,0,5,0,9.9v113.9c0,4.9,3.9,8.9,8.9,8.9h58.7
			c4.9,0,8.9-4,8.9-8.9V98h-6.3v18.3H6.2V15.1h64.1v20.5h6.2V35.6z M38.2,119.3c2.4,0,4.5,2,4.5,4.5s-2,4.5-4.5,4.5s-4.5-2-4.5-4.5
			l0,0C33.8,121.4,35.7,119.3,38.2,119.3C38.1,119.3,38.1,119.3,38.2,119.3z M47.6,9.6H28.8c-0.6-0.1-1-0.6-1-1.2c0-0.5,0.5-0.9,1-1
			h18.7c0.6-0.1,1.1,0.4,1.2,1c0.1,0.6-0.4,1.1-1,1.2C47.7,9.6,47.7,9.6,47.6,9.6z"/>
	</g>
	<g>
		<path class="st0" d="M86.4,55l-1.8-1.5l-0.8,2.3c0,0-1.6,4-4.1,3.3c-0.5-0.1-0.9-0.5-1.1-1c-0.6-1.3-0.3-3.7,0.7-6
			c1.4-3.2,0.8-6.7-1.8-9.8c-1.1-1.4-2.5-2.7-4-3.7L70.9,37l0.1,3.1c0,0,0.1,5.5-4,7.5c-2.4,1.1-4.2,3.2-5,5.7
			c-0.7,2.3-0.4,4.8,0.8,6.9c0.4,0.6,0.6,1.4,0.5,2.2c-0.3,0.6-0.8,1.1-1.5,1.3C58.9,65,57,61,56.9,60.8L55.6,58L54,60.8
			c-6.3,10.3-3,23.8,7.3,30.1c3.3,2,7.2,3.1,11.1,3.2h0.3c12.1,0,21.9-9.8,21.9-21.9C94.5,65.4,91.5,59.2,86.4,55z M65.8,83.8
			L65.8,83.8c0-1.4,0.3-2.9,0.8-4.2l4.1,1.2v-2.2c0-2.6,1.3-5,3.4-6.5c0.4,1.6,1,3.1,1.8,4.5c1,1.6,1.8,2.9,2.7,4.1
			c0.6,0.9,0.9,2,0.8,3.1l0,0c0,3.8-3,6.8-6.8,6.8l0,0l0,0C68.8,90.7,65.8,87.5,65.8,83.8L65.8,83.8z M81.8,88.2
			c0.7-1.4,1-2.9,1-4.4c0.1-1.8-0.4-3.6-1.4-5.1c-0.9-1.3-1.7-2.5-2.5-3.8c-1-1.7-1.6-3.6-1.7-5.6L77,67.1l-2,0.8
			c-1.4,0.6-2.6,1.4-3.7,2.3c-1.8,1.6-3.1,3.8-3.6,6.2l-3-0.9L64,76.8c-1,2.2-1.6,4.6-1.6,7c0,1.5,0.3,3,1,4.4
			c-8.2-4.7-11.6-14.7-7.9-23.4c0.2,0.2,0.3,0.3,0.5,0.5c1.8,1.9,4.5,2.5,6.9,1.5c2.8-1,4.3-4,3.4-6.9c-0.2-0.5-0.4-1-0.7-1.4
			c-0.8-1.3-0.9-2.8-0.5-4.3c0.5-1.6,1.7-3,3.3-3.7c2.8-1.5,4.8-4.2,5.4-7.4c0.4,0.4,0.8,0.8,1.1,1.2c1.7,2.2,2.1,4.3,1.3,6.4
			c-1.4,3.3-1.6,6.5-0.6,8.7c0.6,1.3,1.8,2.4,3.2,2.8c2.3,0.7,4.5-0.1,6.3-2.2c0.3-0.3,0.5-0.7,0.7-1c7.2,7.3,7.1,19-0.2,26.2
			C84.5,86.4,83.2,87.3,81.8,88.2L81.8,88.2z"/>
	</g>
	<g>
		<path class="st0" d="M138.4,52.4c0-2.7,0.5-5.1,1.4-7.2c1-2.1,2.2-3.8,3.8-5.2c1.5-1.3,3.2-2.3,5.2-3c1.9-0.7,3.9-1,5.8-1
			c2,0,3.9,0.3,5.8,1c1.9,0.7,3.7,1.7,5.3,3c1.5,1.4,2.8,3.1,3.7,5.2c1,2.1,1.4,4.5,1.4,7.2v35.7c0,2.8-0.5,5.3-1.4,7.3
			c-0.9,2-2.2,3.7-3.7,5c-1.6,1.4-3.3,2.4-5.3,3.1c-1.9,0.7-3.9,1-5.8,1c-2,0-3.9-0.3-5.8-1c-1.9-0.7-3.7-1.7-5.2-3.1
			c-1.6-1.3-2.8-3-3.8-5c-1-2-1.4-4.5-1.4-7.3V52.4z M148.1,88.1c0,2.3,0.6,4.1,1.9,5.2c1.3,1.1,2.8,1.7,4.6,1.7
			c1.8,0,3.3-0.6,4.6-1.7c1.3-1.1,1.9-2.8,1.9-5.2V52.4c0-2.3-0.7-4.1-1.9-5.2c-1.3-1.1-2.8-1.7-4.6-1.7c-1.8,0-3.3,0.6-4.6,1.7
			c-1.3,1.1-1.9,2.8-1.9,5.2V88.1z"/>
	</g>
	<g>
		<path class="st0" d="M179.5,104.1V36.4h28.9v9.1h-19.2v20.5h16.7v9.1h-16.7v28.9H179.5z"/>
	</g>
	<g>
		<path class="st0" d="M214.6,104.1V36.4h28.9v9.1h-19.2v20.5H241v9.1h-16.7v28.9H214.6z"/>
	</g>
	<g>
		<path class="st0" d="M249.8,104.1V36.4h28.9v9.1h-19.2v19.9h16.7v9.1h-16.7v19.9h19.2v9.7H249.8z"/>
	</g>
	<g>
		<path class="st0" d="M284.9,104.1V36.4h15.6c11.4,0,17.1,6.6,17.1,19.9c0,4-0.6,7.4-1.9,10.2c-1.2,2.8-3.4,5-6.5,6.7l10.5,30.9
			h-10.3l-9-28.9h-5.8v28.9H284.9z M294.6,45.5v21.1h5.5c1.7,0,3.1-0.2,4.1-0.7c1-0.5,1.8-1.2,2.4-2c0.5-0.9,0.9-2,1-3.3
			c0.2-1.3,0.3-2.8,0.3-4.5s-0.1-3.2-0.3-4.5c-0.2-1.3-0.6-2.4-1.1-3.4c-1.2-1.8-3.5-2.7-6.8-2.7H294.6z"/>
	</g>
	<g>
		<path class="st0" d="M356.7,55.9H347v-2.2c0-2.2-0.5-4.1-1.6-5.7s-2.8-2.4-5.3-2.4c-1.3,0-2.4,0.3-3.2,0.8c-0.8,0.5-1.5,1.1-2,1.9
			c-0.5,0.8-0.9,1.8-1,2.8c-0.2,1-0.3,2.1-0.3,3.3c0,1.3,0,2.4,0.1,3.3c0.1,0.9,0.3,1.7,0.7,2.4c0.4,0.7,0.9,1.3,1.7,1.8
			c0.7,0.5,1.7,1,3,1.5l7.4,2.9c2.2,0.8,3.9,1.8,5.2,2.9c1.3,1.1,2.4,2.4,3.1,3.8c0.7,1.5,1.2,3.2,1.4,5.2c0.3,1.9,0.4,4.1,0.4,6.6
			c0,2.9-0.3,5.5-0.9,7.9c-0.6,2.4-1.5,4.5-2.8,6.2c-1.3,1.8-3.1,3.2-5.2,4.2c-2.2,1-4.8,1.5-7.9,1.5c-2.3,0-4.5-0.4-6.6-1.2
			c-2-0.8-3.8-2-5.2-3.4c-1.5-1.5-2.6-3.1-3.5-5.1c-0.9-1.9-1.3-4-1.3-6.3V85h9.7v3c0,1.8,0.5,3.4,1.6,4.8c1,1.4,2.8,2.1,5.3,2.1
			c1.6,0,2.9-0.2,3.8-0.7c0.9-0.5,1.6-1.2,2.1-2c0.5-0.9,0.8-1.9,0.9-3.2c0.1-1.2,0.1-2.6,0.1-4.1c0-1.8-0.1-3.2-0.2-4.4
			c-0.1-1.1-0.4-2.1-0.8-2.8c-0.4-0.7-1-1.3-1.8-1.7c-0.7-0.4-1.7-0.9-2.9-1.4l-6.9-2.8c-4.2-1.7-7-4-8.4-6.8
			c-1.4-2.8-2.1-6.3-2.1-10.6c0-2.5,0.3-4.9,1-7.2c0.7-2.3,1.7-4.2,3.1-5.9c1.3-1.6,3-3,5.1-3.9c2.1-1,4.5-1.5,7.4-1.5
			c2.4,0,4.6,0.4,6.6,1.3c2,0.9,3.7,2.1,5.2,3.5c2.9,3,4.4,6.5,4.4,10.5V55.9z"/>
	</g>
</g>
</svg>
