<?xml version="1.0" encoding="utf-8"?>
<!-- Generator: Adobe Illustrator 23.1.0, SVG Export Plug-In . SVG Version: 6.00 Build 0)  -->
<svg version="1.1" id="Layer_1" xmlns="http://www.w3.org/2000/svg" xmlns:xlink="http://www.w3.org/1999/xlink" x="0px" y="0px"
	 viewBox="0 0 412.3 133.7" style="enable-background:new 0 0 412.3 133.7;" xml:space="preserve">
<style type="text/css">
	.st0{fill:#FFFFFF;}
</style>
<g>
	<path class="st0" d="M127.3,77.6c0,6.4-2.2,11.6-6.6,15.5c-3.9,3.4-8.8,5.1-14.7,5.1c-7.1,0-12.6-2.4-16.5-7.1
		c-3-3.6-4.5-7.9-4.5-12.8c0-3.9,0.9-7.4,2.7-10.4l9.3-2.1c-2.1,3.3-3.1,7-3.1,11.2c0,3.7,1.1,6.6,3.3,8.8s5.1,3.3,8.8,3.3
		c3.6,0,6.5-1,8.7-3.1c2.1-2.1,3.2-4.8,3.2-8.4V40.5l9.4-5C127.3,35.5,127.3,77.6,127.3,77.6z"/>
	<path class="st0" d="M140.8,83.9V40.5l9.5-5v48.4H140.8z"/>
	<path class="st0" d="M199.4,74.8v9.1h-9.2c-0.4,4.5-2.4,8.1-6,10.8c-3,2.2-6.5,3.3-10.5,3.3c-3.2,0-6.2-0.9-9.2-2.5v-8.2
		c2.7,1.5,5.4,2.3,8.1,2.3c2.1,0,4-0.6,5.6-1.7c1.6-1.2,2.5-2.5,2.7-4.1c-0.4,0-1-0.1-1.9-0.1c-0.9-0.1-1.5-0.2-2-0.2
		c-5.2-0.5-9.1-2.6-11.9-6.1c-2.4-2.9-3.5-6.5-3.5-10.7c0-5.5,1.5-9.8,4.5-13c2.6-2.8,6.2-4.2,10.5-4.2c4.4,0,7.9,1.4,10.4,4.3
		c2.1,2.5,3.2,5.7,3.2,9.6V75h9.2V74.8z M180.8,63c0-3.3-1.4-4.9-4.3-4.9c-3.8,0-5.7,2.7-5.7,8.2c0,4.9,2.2,7.6,6.6,8.1
		c0.7,0.2,1.8,0.3,3.4,0.4V63z"/>
	<path class="st0" d="M243.8,74.8h6.3v9.1h-6.4c-4,0-7.1-0.4-9.5-1.3s-4.6-2.4-6.6-4.6c-6.3,4-13.5,5.9-21.6,5.9h-11.1v-9.1h11.2
		c8.8,0,15.8-2.6,21-7.9c-3.4-5.9-7.5-8.9-12.4-8.9c-4,0-8.4,2.2-13.1,6.5v-8.3c4.2-4.6,9-6.9,14.2-6.9c3.9,0,7.7,1.4,11.4,4.3
		c3.7,2.8,7,6.9,9.8,12.1v3.8c-0.8,1-1.9,2.2-3.2,3.5C235.9,74.2,239.2,74.8,243.8,74.8z M223,90.7c1.5,0,2.7,0.4,3.6,1.3
		c0.9,0.9,1.3,2.1,1.3,3.6c0,3.3-1.6,5-4.9,5c-1.5,0-2.7-0.5-3.6-1.3c-0.9-0.9-1.4-2.1-1.4-3.7c0-1.5,0.5-2.6,1.4-3.5
		C220.3,91.1,221.5,90.7,223,90.7z"/>
	<path class="st0" d="M245.6,83.9v-9.1h6.8c1.9,0,3.2-0.4,4-1.2s1.2-2.2,1.2-4.2V55.5l9.5-4.9v19.3c0,4.6-1.4,8.1-4.2,10.7
		c-2.5,2.2-5.7,3.4-9.6,3.4L245.6,83.9L245.6,83.9z M251,43c-1.5,0-2.7-0.5-3.6-1.4c-0.9-0.9-1.3-2.1-1.3-3.7c0-3.2,1.6-4.9,5-4.9
		c1.5,0,2.7,0.4,3.6,1.3c0.9,0.9,1.3,2.1,1.3,3.6C255.9,41.3,254.2,43,251,43z M262.5,43c-1.5,0-2.7-0.5-3.6-1.4s-1.3-2.1-1.3-3.7
		c0-3.2,1.7-4.9,5-4.9c1.5,0,2.7,0.4,3.6,1.3c0.9,0.9,1.3,2.1,1.3,3.6C267.4,41.3,265.8,43,262.5,43z"/>
</g>
<g>
	<g>
		<path class="st0" d="M382.2,52.5V9.9c0-5-3.9-8.9-8.9-8.9h-58.7c-5,0-8.9,3.9-8.9,8.9v113.9c0,5,3.9,8.9,8.9,8.9h58.7
			c5,0,8.9-3.9,8.9-8.9V84.2H376v32h-64.1v-101h64.2v41L382.2,52.5z M343.9,119.4c2.4,0,4.4,2,4.4,4.4s-2,4.4-4.4,4.4
			s-4.4-2-4.4-4.4l0,0C339.5,121.4,341.5,119.4,343.9,119.4L343.9,119.4z M353.4,9.6h-18.8c-0.6,0.1-1.1-0.4-1.2-1s0.4-1.1,1-1.2
			c0.1,0,0.1,0,0.2,0h18.8c0.6,0.1,1,0.6,1,1.2C354.3,9.1,353.9,9.5,353.4,9.6z"/>
	</g>
	<g>
		<path class="st0" d="M354.2,71.8L354.2,71.8c-0.7,0.4-1,1.3-0.6,2.1c0.3,0.7,1.1,1,1.8,0.7l21.2-7.1l-4,6.5
			c-0.3,0.6-0.2,1.3,0.4,1.7c0.4,0.2,0.8,0.2,1.2,0l4.2-2.2c0.1-0.1,0.2-0.2,0.3-0.2L391,60.4l15.2-7.9c5.8-3.1,5.1-5.5,4.8-6.2
			c-0.5-0.8-1.3-1.4-2.2-1.5c-1.8-0.4-3.7-0.3-5.5,0.1c-0.6,0.1-1.1,0.1-1.7,0.1c-1.6,0-2.7,0.1-8.2,2.9l-30,15.6l-11.6-6
			c-0.4-0.2-1-0.2-1.4,0l-2,1c-0.4,0.2-0.7,0.6-0.8,1c-0.1,0.4,0,0.9,0.3,1.3l8.1,10.1L354.2,71.8z"/>
	</g>
	<g>
		<path class="st0" d="M412.3,86.9c0,1.6-1.3,2.9-2.9,2.9h-56.8c-1.6-0.1-2.8-1.5-2.7-3.1c0.1-1.5,1.3-2.6,2.7-2.7h56.8
			C411,84,412.3,85.3,412.3,86.9z"/>
	</g>
</g>
</svg>
