<?xml version="1.0" encoding="utf-8"?>
<!-- Generator: Adobe Illustrator 23.1.0, SVG Export Plug-In . SVG Version: 6.00 Build 0)  -->
<svg version="1.1" id="Layer_1" xmlns="http://www.w3.org/2000/svg" xmlns:xlink="http://www.w3.org/1999/xlink" x="0px" y="0px"
	 viewBox="0 0 412.3 133.7" style="enable-background:new 0 0 412.3 133.7;" xml:space="preserve">
<style type="text/css">
	.st0{fill:#FFFFFF;}
</style>
<g>
	<g>
		<g>
			<path class="st0" d="M145.4,104.1V45.5h-11.2v-9.1h32.1v9.1H155v58.5H145.4z"/>
		</g>
		<g>
			<path class="st0" d="M168.8,52.4c0-2.7,0.5-5.1,1.4-7.2c1-2.1,2.2-3.8,3.8-5.2c1.5-1.3,3.2-2.3,5.2-3c1.9-0.7,3.9-1,5.8-1
				s3.9,0.3,5.8,1c1.9,0.7,3.7,1.7,5.3,3c1.5,1.4,2.8,3.1,3.7,5.2c0.9,2.1,1.4,4.5,1.4,7.2v35.7c0,2.8-0.5,5.3-1.4,7.3
				c-0.9,2-2.2,3.7-3.7,5c-1.6,1.4-3.3,2.4-5.3,3.1c-1.9,0.7-3.9,1-5.8,1s-3.9-0.3-5.8-1c-1.9-0.7-3.7-1.7-5.2-3.1
				c-1.6-1.3-2.8-3-3.8-5c-0.9-2-1.4-4.5-1.4-7.3V52.4z M178.5,88.1c0,2.3,0.6,4.1,1.9,5.2c1.3,1.1,2.8,1.7,4.6,1.7s3.3-0.6,4.6-1.7
				c1.3-1.1,1.9-2.8,1.9-5.2V52.4c0-2.3-0.7-4.1-1.9-5.2c-1.3-1.1-2.8-1.7-4.6-1.7s-3.3,0.6-4.6,1.7c-1.3,1.1-1.9,2.8-1.9,5.2V88.1z
				"/>
		</g>
		<g>
			<path class="st0" d="M209.9,104.1V36.4h14.5c2.7,0,5,0.3,7,1c2,0.7,3.9,1.9,5.5,3.7c1.6,1.8,2.8,3.8,3.4,6.2c0.6,2.4,1,5.6,1,9.6
				c0,3-0.2,5.6-0.5,7.7c-0.3,2.1-1.1,4.1-2.2,5.9c-1.3,2.2-3.1,3.9-5.3,5.2c-2.2,1.2-5.1,1.9-8.7,1.9h-4.9v26.4H209.9z M219.6,45.5
				v23h4.7c2,0,3.5-0.3,4.6-0.9c1.1-0.6,1.9-1.4,2.4-2.4c0.5-1,0.8-2.1,0.9-3.5c0.1-1.4,0.1-2.9,0.1-4.7c0-1.6,0-3.1-0.1-4.5
				c-0.1-1.4-0.3-2.7-0.9-3.8c-0.5-1.1-1.3-1.9-2.3-2.5c-1-0.6-2.5-0.9-4.4-0.9H219.6z"/>
		</g>
		<g>
			<path class="st0" d="M248.1,82.6v-9.7h28.6v9.7H248.1z"/>
		</g>
		<g>
			<path class="st0" d="M316.8,36.4v52.4c0,2.2-0.4,4.3-1.2,6.1c-0.8,1.9-1.9,3.5-3.4,5c-1.5,1.5-3.1,2.6-5,3.4
				c-1.9,0.8-3.9,1.2-6.1,1.2c-2.2,0-4.2-0.4-6-1.2s-3.5-2-5-3.4c-1.5-1.5-2.6-3.1-3.4-5c-0.8-1.9-1.2-3.9-1.2-6.1V36.4h9.7v51.5
				c0,2.4,0.6,4.2,1.7,5.3s2.6,1.7,4.3,1.7s3.1-0.6,4.3-1.7c1.1-1.1,1.7-2.9,1.7-5.3V36.4H316.8z"/>
		</g>
		<g>
			<path class="st0" d="M325.9,104.1V36.4h14.5c2.7,0,5,0.3,7,1c2,0.7,3.9,1.9,5.5,3.7c1.6,1.8,2.8,3.8,3.4,6.2c0.6,2.4,1,5.6,1,9.6
				c0,3-0.2,5.6-0.5,7.7c-0.3,2.1-1.1,4.1-2.2,5.9c-1.3,2.2-3.1,3.9-5.3,5.2c-2.2,1.2-5.1,1.9-8.7,1.9h-4.9v26.4H325.9z M335.6,45.5
				v23h4.7c2,0,3.5-0.3,4.6-0.9c1.1-0.6,1.9-1.4,2.4-2.4c0.5-1,0.8-2.1,0.9-3.5c0.1-1.4,0.1-2.9,0.1-4.7c0-1.6,0-3.1-0.1-4.5
				c-0.1-1.4-0.3-2.7-0.9-3.8c-0.5-1.1-1.3-1.9-2.3-2.5c-1-0.6-2.5-0.9-4.4-0.9H335.6z"/>
		</g>
	</g>
	<g>
		<g>
			<path class="st0" d="M92.4,89.7c-6.8,0-14-2.1-14-6c0-0.6,0.4-1,1-1s1,0.4,1,1c0,1.7,4.6,4,12,4s12-2.3,12-4c0-0.6,0.4-1,1-1
				s1,0.4,1,1C106.4,87.7,99.2,89.7,92.4,89.7z"/>
		</g>
		<g>
			<path class="st0" d="M92.4,83.8c-6.8,0-14-2.1-14-6c0-0.6,0.4-1,1-1s1,0.4,1,1c0,1.7,4.6,4,12,4s12-2.3,12-4c0-0.6,0.4-1,1-1
				s1,0.4,1,1C106.4,81.7,99.2,83.8,92.4,83.8z"/>
		</g>
		<g>
			<path class="st0" d="M92.4,77.8c-6.8,0-14-2.1-14-6s7.2-6,14-6s14,2.1,14,6S99.2,77.8,92.4,77.8z M92.4,67.8c-7.4,0-12,2.3-12,4
				s4.6,4,12,4s12-2.3,12-4S99.8,67.8,92.4,67.8L92.4,67.8z"/>
		</g>
		<g>
			<path class="st0" d="M79.4,84.8c-0.6,0-1-0.4-1-1v-12c0-0.6,0.4-1,1-1s1,0.4,1,1v12C80.4,84.3,80,84.8,79.4,84.8z"/>
		</g>
		<g>
			<path class="st0" d="M72.4,65.8c-6.8,0-14-2.1-14-6c0-0.6,0.4-1,1-1s1,0.4,1,1c0,1.7,4.6,4,12,4s12-2.3,12-4c0-0.6,0.4-1,1-1
				s1,0.4,1,1C86.4,63.7,79.2,65.8,72.4,65.8z"/>
		</g>
		<g>
			<path class="st0" d="M72.4,59.8c-6.8,0-14-2.1-14-6c0-0.6,0.4-1,1-1s1,0.4,1,1c0,1.7,4.6,4,12,4s12-2.3,12-4c0-0.6,0.4-1,1-1
				s1,0.4,1,1C86.4,57.7,79.2,59.8,72.4,59.8z"/>
		</g>
		<g>
			<path class="st0" d="M72.4,77.8c-6.8,0-14-2.1-14-6c0-0.6,0.4-1,1-1s1,0.4,1,1c0,1.7,4.6,4,12,4c1,0,1.9,0,2.9-0.1
				c0.6-0.1,1,0.3,1.1,0.9s-0.3,1-0.9,1.1C74.5,77.7,73.4,77.8,72.4,77.8L72.4,77.8z"/>
		</g>
		<g>
			<path class="st0" d="M72.4,83.8c-6.8,0-14-2.1-14-6c0-0.6,0.4-1,1-1s1,0.4,1,1c0,1.7,4.6,4,12,4c1,0,1.9,0,2.9-0.1
				c0.6-0.1,1,0.3,1.1,0.9s-0.3,1-0.9,1.1C74.5,83.7,73.4,83.8,72.4,83.8L72.4,83.8z"/>
		</g>
		<g>
			<path class="st0" d="M72.4,71.8c-6.8,0-14-2.1-14-6c0-0.6,0.4-1,1-1s1,0.4,1,1c0,1.7,4.6,4,12,4c1,0,1.9,0,2.9-0.1
				c0.6-0.1,1,0.3,1.1,0.9s-0.3,1-0.9,1.1C74.5,71.7,73.4,71.8,72.4,71.8L72.4,71.8z"/>
		</g>
		<g>
			<path class="st0" d="M72.4,53.8c-6.8,0-14-2.1-14-6s7.2-6,14-6c6.8,0,14,2.1,14,6S79.2,53.8,72.4,53.8z M72.4,43.8
				c-7.4,0-12,2.3-12,4s4.6,4,12,4s12-2.3,12-4S79.8,43.8,72.4,43.8L72.4,43.8z"/>
		</g>
		<g>
			<path class="st0" d="M59.4,78.8c-0.6,0-1-0.4-1-1v-30c0-0.6,0.4-1,1-1s1,0.4,1,1v30C60.4,78.3,60,78.8,59.4,78.8z"/>
		</g>
		<g>
			<path class="st0" d="M85.4,60.8c-0.6,0-1-0.4-1-1v-12c0-0.6,0.4-1,1-1s1,0.4,1,1v12C86.4,60.3,86,60.8,85.4,60.8z"/>
		</g>
		<g>
			<path class="st0" d="M72.5,42.8c0.9,0,1.8,0.3,2.5,0.9c0.4-0.1,0.9-0.2,1.3-0.2h0.2V9.9c0-4.9-4-8.9-8.9-8.9H8.9C4,1,0,5,0,9.9
				v113.9c0,4.9,4,8.9,8.9,8.9h58.6c4.9,0,8.9-4,8.9-8.9V85.1h-6.2v31.3h-64V15.1h64v28.4C70.9,43,71.7,42.8,72.5,42.8z M38.2,119.3
				c2.5,0,4.5,2,4.5,4.5s-2,4.5-4.5,4.5s-4.5-2-4.5-4.5S35.7,119.3,38.2,119.3L38.2,119.3z M47.6,9.5H28.8c-0.6,0-1.1-0.5-1.1-1.1
				s0.5-1.1,1.1-1.1l0,0h18.8c0.6,0,1.1,0.5,1.1,1.1C48.7,9.1,48.2,9.5,47.6,9.5z"/>
		</g>
	</g>
</g>
</svg>
