<?xml version="1.0" encoding="utf-8"?>
<!-- Generator: Adobe Illustrator 23.1.0, SVG Export Plug-In . SVG Version: 6.00 Build 0)  -->
<svg version="1.1" id="visual" xmlns="http://www.w3.org/2000/svg" xmlns:xlink="http://www.w3.org/1999/xlink" x="0px" y="0px"
	 viewBox="0 0 900 148" style="enable-background:new 0 0 900 148;" xml:space="preserve">
<style type="text/css">
	.st0{fill:#92278F;}
	.st1{fill:#6B267C;}
	.st2{fill:#472166;}
	.st3{fill:#28194D;}
	.st4{fill:#0F0F33;}
</style>
<path class="st0" d="M0,32l21.5-2C43,28,86,24,128.8,27.7c42.9,3.6,85.5,15,128.4,11.3C300,35.3,343,16.7,385.8,15.7
	c42.9-1,85.5,15.6,128.4,16.1C557,32.3,600,16.7,642.8,9.2c42.9-7.5,85.5-6.9,128.4,2C814,20,857,37,878.5,45.5L900,54v95h-21.5
	c-21.5,0-64.5,0-107.3,0c-42.9,0-85.5,0-128.4,0c-42.8,0-85.8,0-128.6,0c-42.9,0-85.5,0-128.4,0c-42.8,0-85.8,0-128.6,0
	c-42.9,0-85.5,0-128.4,0c-42.8,0-85.8,0-107.3,0H0V32z"/>
<path class="st1" d="M0,66l21.5,1.3c21.5,1.4,64.5,4,107.3,2.5c42.9-1.5,85.5-7.1,128.4-9.5C300,58,343,59,385.8,61
	c42.9,2,85.5,5,128.4,5.7c42.8,0.6,85.8-1,128.6-7.5c42.9-6.5,85.5-17.9,128.4-23.5C814,30,857,30,878.5,30H900v119h-21.5
	c-21.5,0-64.5,0-107.3,0c-42.9,0-85.5,0-128.4,0c-42.8,0-85.8,0-128.6,0c-42.9,0-85.5,0-128.4,0c-42.8,0-85.8,0-128.6,0
	c-42.9,0-85.5,0-128.4,0c-42.8,0-85.8,0-107.3,0H0V66z"/>
<path class="st2" d="M0,88l21.5-5.5C43,77,86,66,128.8,61c42.9-5,85.5-4,128.4,2C300,69,343,80,385.8,85.7
	c42.9,5.6,85.5,6,128.4,3.5c42.8-2.5,85.8-7.9,128.6-13.4c42.9-5.5,85.5-11.1,128.4-11C814,65,857,71,878.5,74l21.5,3v72h-21.5
	c-21.5,0-64.5,0-107.3,0c-42.9,0-85.5,0-128.4,0c-42.8,0-85.8,0-128.6,0c-42.9,0-85.5,0-128.4,0c-42.8,0-85.8,0-128.6,0
	c-42.9,0-85.5,0-128.4,0c-42.8,0-85.8,0-107.3,0H0V88z"/>
<path class="st3" d="M0,105l21.5-1.8c21.5-1.9,64.5-5.5,107.3-7.9c42.9-2.3,85.5-3.3,128.4-5.8C300,87,343,83,385.8,84.3
	c42.9,1.4,85.5,8,128.4,11.2C557,98.7,600,98.3,642.8,99c42.9,0.7,85.5,2.3,128.4,3.8c42.8,1.5,85.8,2.9,107.3,3.5L900,107v42h-21.5
	c-21.5,0-64.5,0-107.3,0c-42.9,0-85.5,0-128.4,0c-42.8,0-85.8,0-128.6,0c-42.9,0-85.5,0-128.4,0c-42.8,0-85.8,0-128.6,0
	c-42.9,0-85.5,0-128.4,0c-42.8,0-85.8,0-107.3,0H0V105z"/>
<path class="st4" d="M0,115l21.5,1.8c21.5,1.9,64.5,5.5,107.3,3.7c42.9-1.8,85.5-9.2,128.4-11.7c42.8-2.5,85.8-0.1,128.6,4.2
	c42.9,4.3,85.5,10.7,128.4,9.7c42.8-1,85.8-9.4,128.6-11c42.9-1.7,85.5,3.3,128.4,6.6c42.8,3.4,85.8,5,107.3,5.9L900,125v24h-21.5
	c-21.5,0-64.5,0-107.3,0c-42.9,0-85.5,0-128.4,0c-42.8,0-85.8,0-128.6,0c-42.9,0-85.5,0-128.4,0c-42.8,0-85.8,0-128.6,0
	c-42.9,0-85.5,0-128.4,0c-42.8,0-85.8,0-107.3,0H0V115z"/>
</svg>
