<svg xmlns="http://www.w3.org/2000/svg" viewBox="0 0 128.39 99.15"><defs><style>.cls-1{fill:#fff;}</style></defs><title>Asset 6</title><g id="Layer_2" data-name="Layer 2"><g id="Layer_1-2" data-name="Layer 1"><path class="cls-1" d="M121.85,51.93c.87-2.41,1.69-4.73,2.52-7,.46-1.28.94-2.55,1.38-3.84a.5.5,0,0,1,.59-.4,7.1,7.1,0,0,0,1.22,0c.4,0,.47.12.47.49q0,5.28,0,10.56c0,.6,0,1.19,0,1.79,0,.24-.06.32-.31.33-1.21.06-1.21.07-1.21-1.16q0-4.36,0-8.73a.71.71,0,0,0-.09-.41L125.16,47q-1.17,3.24-2.33,6.48a.4.4,0,0,1-.43.31c-1.4,0-1.4,0-1.87-1.26-1-2.93-2.09-5.85-3.14-8.78,0-.07,0-.17-.18-.2v1.16c0,2.86,0,5.72,0,8.58,0,.4-.1.51-.51.5-1,0-1,0-1-1,0-3.85,0-7.69,0-11.54,0-.44.07-.64.57-.59s1.14-.16,1.49.08.41.9.58,1.38c1.13,3.14,2.25,6.3,3.38,9.45C121.73,51.64,121.77,51.73,121.85,51.93Z"/><path class="cls-1" d="M75.4,53.78l-.06,0c-1.75.05-1.75.05-2.63-1.44-.76-1.29-1.53-2.57-2.28-3.86a.52.52,0,0,0-.51-.32c-.68,0-1.36,0-2,0-.33,0-.39.11-.39.41,0,1.58,0,3.17,0,4.75,0,.38-.09.48-.47.47-1.16,0-1.16,0-1.16-1.17,0-3.83,0-7.66,0-11.49,0-.41.08-.55.52-.54a48.18,48.18,0,0,1,5.1.13,4,4,0,0,1,3,1.76,3.54,3.54,0,0,1-1.65,5.19,2.78,2.78,0,0,1-.48.18c-.33.07-.29.22-.15.45,1,1.7,2.06,3.4,3.08,5.11C75.32,53.53,75.43,53.6,75.4,53.78Zm-7.91-9.39c0,.66,0,1.32,0,2,0,.18,0,.35.25.34a29.34,29.34,0,0,0,3.51-.09,2.08,2.08,0,0,0,2-1.94,2.14,2.14,0,0,0-2-2.52,25.88,25.88,0,0,0-3.52-.11c-.27,0-.25.16-.25.33Z"/><path class="cls-1" d="M103.13,40.6c.91,0,.92,0,1.22.85q2.09,6,4.18,11.92c.14.37.07.47-.32.44s-1,.18-1.38-.1-.33-.82-.48-1.26c-.21-.62-.42-1.25-.61-1.88-.08-.27-.19-.39-.49-.39-1.44,0-2.89,0-4.34,0a.4.4,0,0,0-.45.35c-.3,1-.62,1.91-.92,2.86-.09.3-.22.49-.57.41-.08,0-.17,0-.25,0-.38,0-.9.18-1.1-.09s.16-.69.29-1c1.34-3.86,2.71-7.72,4-11.58.14-.41.32-.55.72-.49A3.53,3.53,0,0,0,103.13,40.6Zm0,2c-.7,2.06-1.34,4-2,5.91-.09.26,0,.27.25.27,1.16,0,2.32,0,3.47,0,.38,0,.32-.16.24-.39l-1-2.9Z"/><path class="cls-1" d="M82.35,47.16c0-2,0-4,0-6.07,0-.37.05-.53.48-.53,2.32,0,4.63,0,6.94,0,.39,0,.49.1.48.48,0,1,0,1-1,1-1.62,0-3.24,0-4.85,0-.33,0-.43.09-.42.42,0,1.11,0,2.21,0,3.32,0,.38.12.44.46.44,1.61,0,3.23,0,4.85,0,.33,0,.48,0,.47.43,0,1,0,1-1,1-1.45,0-2.89,0-4.34,0-.32,0-.4.09-.39.4q0,2,0,3.93c0,.36.13.41.44.41,1.89,0,3.77,0,5.66,0,.37,0,.5.06.49.47,0,1,0,1-1,1-2.24,0-4.49,0-6.73,0-.39,0-.49-.09-.49-.47C82.36,51.28,82.35,49.22,82.35,47.16Z"/><path class="cls-1" d="M38.19,54.06a4.9,4.9,0,0,1-4.37-2.36c-.19-.32-.19-.52.2-.63a.18.18,0,0,0,.09,0c.3-.15.6-.43.91-.43s.3.51.5.76a3,3,0,0,0,2.19,1.15,3.33,3.33,0,0,0,2.83-.83,1.93,1.93,0,0,0-.47-3.23,25,25,0,0,0-2.81-1.07,9.37,9.37,0,0,1-1.59-.78,3.25,3.25,0,0,1-.32-5.15,5,5,0,0,1,7.06.8c.16.21.13.32-.1.4l-.14.06a3.13,3.13,0,0,1-1,.46c-.37,0-.47-.45-.74-.67a3.41,3.41,0,0,0-3.69-.23,1.87,1.87,0,0,0,.15,3.19,13.67,13.67,0,0,0,2.46,1,14.64,14.64,0,0,1,1.77.78A3.41,3.41,0,0,1,41.43,53,5.12,5.12,0,0,1,38.19,54.06Z"/><path class="cls-1" d="M77.47,20.74c-.08,0-.18,0-.21-.12-.17-.3-.34-.48-.5-.51h-.2c-.24-.15-.48,0-.72,0a.74.74,0,0,0-.52-.27c-.2,0-.22-.17-.13-.34s.3.09.2-.13a.27.27,0,0,0-.34-.14c-.42.26-.42-.14-.56-.32s-.25-.23-.39-.32-.06-.14,0-.18.16-.21,0-.3a.24.24,0,0,0-.23,0c-.16.1-.09.22,0,.33s0,.25-.11.31-.28.06-.26,0c.06-.27-.22-.19-.28-.32s-.22-.37-.35-.54c.24-.15.13-.33,0-.37s-.36.16-.34.42c-.19-.06-.15-.28-.3-.3s-.4-.41-.63,0c-.27-.2-.7,0-.91-.38s-.23-.9-.28-1.36c0,0,.15-.08.17-.15s0-.35-.19-.26a.66.66,0,0,0-.32.47c0,.07.05.13,0,.2s-.21.11-.31.18-.11.05-.08,0c.2-.49-.21-.36-.43-.43,0-.09-.14-.07-.22-.08s0-.09-.11-.08c-.1-.17-.06-.46-.38-.44s-.37-.11-.43-.39c.22.06.43.2.67,0-.16-.18-.37-.44-.49-.33-.37.36-.74,0-1.1.09s-.45,0-.53-.31-.33-.06-.27-.28.24-.16.37-.22a.38.38,0,0,1,.29,0c.16.11.34.09.38-.06s-.22-.15-.34-.22a.25.25,0,0,0-.34,0c-.09.08-.53.45-.56-.17,0-.18-.16-.23-.35-.06s-.29.27-.49.08a.48.48,0,0,0-.11-.48.92.92,0,0,0-.14.14c-.06.07-.06.22-.2.16s-.11-.15-.07-.26.17-.41-.21-.3c-.1,0-.16,0-.1-.13.19-.4-.15-.35-.34-.37s-.26.11-.08.22.08.33,0,.52c-.45-.2-.19-.74-.51-1-.19.07-.07.49-.25.38s-.79-.14-.86-.63c0-.11.17-.26.12-.25-.33.07-.18-.32-.38-.35-.39-.06,0,.37-.24.4h-.1c-.25-.12,0-.43-.2-.57.13-.23.41-.17.6-.3-.1-.07-.21-.13-.19-.27s.31,0,.33-.26c0-.08.09-.32.27-.16.45.42,1.1.37,1.56.68a4,4,0,0,0,1.06.57c.07,0,.09.08.07.16s0,.19.17.26c0,.14-.32.12-.27.31s.24.19.37.19.27.18.42,0,.15-.05.19,0c.3.19.56.32.75-.14,0-.11.13,0,.19,0,.27.19.26.36-.07.51.3.09.55.41.82,0-.07.51,0,.82.57.76.36-.08.31.09.2.3-.13,0-.38-.07-.35.16s.26.05.35,0a1.24,1.24,0,0,1,.72,0c.21.42.51.23.8.22a.25.25,0,0,1,.22.2c-.11.08-.3.05-.39.2.17.24.43.24.68.26.25.27.46.64.93.4.29,0,.53,0,.57.39,0,.08.07.2.16.15.58-.31.87.19,1.26.44a1.84,1.84,0,0,1,.87.85c0,.14.12.08.19,0,.23-.17.41-.19.44.16,0,.14.07.13.15.07s.23-.08.26,0c.16.6,1,.27,1.2.9,0,0,.47,0,.66.23s.17.26.38.34a3.1,3.1,0,0,1,1.15.6c.06.07.19.07.21.19,0,.41.34.49.67.55a.88.88,0,0,1,.29.18c0,.27.46.23.3.47s.15.38.25.48,0-.15.13-.17.17.11.27.11a1.47,1.47,0,0,1,.21.36c.08.27.22.3.43.16s.23-.08.17.13-.26.34-.43.28a4.62,4.62,0,0,1-1.32-.64c-.12-.11-.27-.06-.34-.18a3.36,3.36,0,0,0-.16.33c0,.14.13.4-.2.39l0-.19c0-.17.11-.41-.08-.51s-.23.18-.32.3-.29,0-.41,0a2.91,2.91,0,0,1-.6-.22,6.12,6.12,0,0,0,.31-.56c0-.09.18-.24,0-.3a1.84,1.84,0,0,0-.67-.09c-.07,0-.16.12-.2.2s0,.15.1.22.23-.12.19.08S77.55,20.7,77.47,20.74Z"/><path class="cls-1" d="M65.52,84.35c.13.11.53-.34.45.21,0,0,.11.12.13,0s.48,0,.34-.39L66.33,84c.28-.07.36.43.67.16.16-.14.31-.25.25-.49v-.12c.14-.24.26,0,.36,0s.06.21,0,.3-.13.28,0,.32.14-.15.15-.24a1.53,1.53,0,0,1,.37-.74c0-.06.09-.13.14-.1.42.23.43.13.3-.28-.06-.17.25-.25.43-.33,0,.21-.28.69.3.35.08,0,.14,0,.22.06s.19-.06.14-.09c-.54-.27.13-.29,0-.53,0,0-.18.2-.23,0a.22.22,0,0,1,.07-.17c.1-.09.19-.05.27,0,.27.31.36.3.46-.15,0-.23.27-.65.73-.42a.11.11,0,0,0,.17-.05c.32-1,1.28-1,2.07-1.26.07,0,.23.12.21-.06,0-.34,0-.49.41-.36.18.06,0-.31.14-.27.54.15.63-.46,1-.55s.55-.08.7-.42.54-.07.82-.31a2,2,0,0,1,1-.68,1.26,1.26,0,0,1,.49-.07c.34.06.54-.26.76-.49H79c.23,0,.5-.35.67.08.16-.07.35,0,.48-.17-.4-.22.11-.26.09-.41l.29.09c.41.12.48-.15.49-.48.35.34.32.57,0,.8a16.15,16.15,0,0,1-1.59,1,.68.68,0,0,1,.81.53,1.67,1.67,0,0,1-.6-.25c-.17-.08-.28,0-.2.15.4.49-.11.65-.32.91-.2.07-.29,0-.39-.2-.35-.53-.36-.51-.71,0s.17.43.3.62c-.55.15-1.08.24-1.27.93-.06.23-.48.31-.68.54-.06.08-.15,0-.21,0a.15.15,0,0,1,0-.22.9.9,0,0,0,.24-.27l-.54.3c0,.39-.34.4-.63.4s-.5.39-.76,0c-.09-.13-.21,0-.24.15s-.06.28.15.29h.34c.09.36-.16.37-.41.39s-.63.38-.94,0c0-.05-.16-.09-.19,0s-.11.19,0,.27a1.65,1.65,0,0,0,.27.19c-.09.16-.2.11-.32.12s-.58,0-.56.46c0,.19-.27.51-.57.63l-.42.15a5,5,0,0,0-.87-.42c-.08,0-.23,0-.22-.22s-.14-.24-.28-.17,0,.2,0,.28c-.06.37.45.25.43.53s-.55-.08-.58.32l-.23.2c-.06,0-.13.1-.17.09a.57.57,0,0,0-.78.38c-.1.23-.23,0-.4,0,.15-.24.42-.31.39-.57-.64-.07-.52.42-.57.78-.22.16-.47.29-.5.61s-.16.15-.25.12a.29.29,0,0,0-.4.19c-.45-.23-.14-.55-.06-.81s.31-.19.12-.35-.2.16-.33.21-.18.09-.14.28,0,.59-.44.44c-.16-.06-.35,0-.33.16,0,.42,0,.42,0,.57l-.58-.25c.09.17.13.24.16.31s.12.18,0,.26a.16.16,0,0,1-.21-.07c-.16-.2-.3-.39-.42,0,0,.11-.12,0-.17,0s-.22-.1-.32,0-.19.18-.15.3.2,0,.3,0,.26.17.29.37c-.38.12-.7-.21-1.06-.15-.07.24.42.38.2.47s-.53.62-1,.41c0-.1-.1-.31-.15-.23s-.4,0-.57.14h0a.31.31,0,0,1-.1-.32c0-.13.16-.3,0-.38s-.4-.17-.56.07c-.08-.11-.2-.27,0-.33.61-.19.88-.83,1.4-1.07a3.3,3.3,0,0,0,1-.61c.17-.15.2.35.38.07.22,0,0,.44.3.32a.86.86,0,0,0,.55-.62c.3-.26.6-.53.35-1Z"/><path class="cls-1" d="M2.4,45.33c.07,0,.14,0,.13.12a8.06,8.06,0,0,0,.2,1.7c0,.42-.17.84,0,1.27,0,.11-.14,0-.23.08s0,.13,0,.2a.6.6,0,0,1-.06.19,1.23,1.23,0,0,0,.09,1.24.23.23,0,0,0,.24.1c.14,0,.22.05.21.2s0,.68-.5.18c.18.28-.17.73.45.67-.58.41-.6.49-.29.88.09-.06,0-.15,0-.23s0-.16,0-.26a.62.62,0,0,1,.07.85c-.19.13-.34.13-.42-.14s-.17-.2-.27-.08,0,.17.11.23.51.42.42.66c-.17.43.16.61.26.9a.5.5,0,0,1,0,.21s-.08,0-.09,0-.34-.24-.34-.18a1.81,1.81,0,0,1-.29.61s.09.1.09.09c.32-.24.29.05.23.18a.84.84,0,0,0,.24,1,.31.31,0,0,1,.07.32c-.14.21-.57.43,0,.61a3.1,3.1,0,0,1,0,1c-.1.44,0,.93-.31,1.33-.08.1,0,.13.1.17s.31.25.06.46.15.19.11.24c-.36.41.08.85-.06,1.25s-.21.43,0,.69,0,.35-.06.51a.83.83,0,0,0,0,.78c.22.45,0,.82-.07,1.23-.34.2-.16.48-.15.76s.12.72-.34.92a.42.42,0,0,0-.16.52c.19.24.24.21.07.45s-.22.53.17.69L1.78,68a.57.57,0,0,1-.27-.64c.06-.44-.18-.87,0-1.31.07-.62,0-.74-.62-.7s-.35-.52-.4-.83c.13-.23.33-.16.52-.13s.42,0,.39-.17-.1-.6-.41-.68-.32.12-.2.35H.58a1.39,1.39,0,0,1,.19-1c.14-.21-.17-.49-.29-.6-.34-.31,0-.7-.23-1-.06-.08,0-.19.15-.21s.17.07.18.18a.67.67,0,0,0,.06.28c0-.29.28-.65-.19-.86.07-.24.25-.43.27-.7s-.06-.47.32-.42a.13.13,0,0,0,.12-.18.39.39,0,0,0-.13-.2c-.08,0-.21-.08-.26,0s-.11.29-.32.25c-.41-.32.18-.54.1-.84,0-.09.14-.24,0-.39.19.06.41.09.49-.12s-.15-.31-.27-.35-.14-.22-.16-.36S.88,57,.38,57a1.68,1.68,0,0,1-.21-1,2.07,2.07,0,0,1,.17-.24,1.94,1.94,0,0,1,.94-.74c.11,0,.34.12.36-.11s-.29-.11-.43-.22-.18,0-.25.12-.16.21-.27,0-.21-.15,0-.29a.27.27,0,0,0,0-.44.28.28,0,0,0,0-.29c.12-.28.5-.52.2-.86s0-.3.09-.45c.13.23,0,.57.35.61.15-.37.12-.65-.29-.78-.18-.06-.07-.27-.14-.34s.12-.55-.31-.52c-.2-.2.06-.28.12-.42s-.1-.36.13-.4.33.19.49.31.05,0,.06.07,0,.48.27.32-.06-.35-.05-.55-.22,0-.24-.1-.46-.21-.18-.45.19-.36-.08-.49-.29-.13-.27-.32a.59.59,0,0,0,.38-.31A.22.22,0,0,0,1,49.15c-.1,0-.22,0-.21-.14s.09-.12.18-.13.46-.05.19-.35c-.11-.13-.05-.15.1-.14s.21-.14.19-.28a.29.29,0,0,0-.19-.27c-.22-.05-.11.15-.15.23a.28.28,0,0,1-.39.12c-.21-.1,0-.24,0-.31s.43-.33.55-.62c-.21-.1-.61.21-.55,0s-.28-.72.14-1,.32-.71.82-.61h0c.11.28.21.36.46.08C2.26,45.59,2.18,45.35,2.4,45.33Z"/><path class="cls-1" d="M36.92,5l-.36-.19c-.17-.08-.25.08-.18.15.39.45,0,.62-.27.86s-.31.06-.43-.13c-.35-.52-.41-.52-.73,0A.29.29,0,0,0,34.9,6c.09.13.21.13.34,0s.07,0,.14.15h0l-.81.32c0-.08-.12-.15-.17,0a2.35,2.35,0,0,1-.92,1.14c-.11.07-.18.24-.33.14s0-.26.05-.38a.24.24,0,0,0-.31.09c-.1.68-.78.36-1.1.65a.16.16,0,0,1-.25-.07c-.05-.11-.1-.25-.25-.13a.24.24,0,0,0-.06.27c0,.17.13.13.21.09s.27.06.25.2,0,.33-.27.22-.4.13-.64.12-.32.21-.39-.12c0,0-.14-.11-.22,0a.26.26,0,0,0,0,.33,1.1,1.1,0,0,0,.3.19c-.1.16-.23.09-.35.11s-.61,0-.55.49c0,.18-.3.53-.64.62-.11,0-.24,0-.33.08l-1-.4s-.12-.09-.12-.14c0-.22-.14-.29-.29-.2s.06.23,0,.33c-.07.36.47.2.41.51s-.49-.1-.56.25c0,0,0,0,0,.05l-.22.18c-.06,0-.13.1-.17.09a.59.59,0,0,0-.81.4c0,.07-.35.18-.32-.15.06-.11.33-.11.21-.3a.2.2,0,0,0-.34.07,1.25,1.25,0,0,1-.66,1l.05.12c0,.21-.09.2-.22.2s-.3-.08-.39.09-.3,0-.25-.19,0-.48.25-.62a.16.16,0,0,0,0-.23s-.11-.08-.11-.07-.42.24-.38.49c.05.44-.06.63-.52.47a.46.46,0,0,0-.2,0c.09.28.25.55-.16.67-.09-.15-.24,0-.35-.09-.1.11,0,.19.05.27s.05.13,0,.18a.15.15,0,0,1-.22,0c-.14-.15-.26-.44-.44,0-.08.19-.12,0-.17-.06s-.22-.07-.31,0-.2.17-.15.3.18,0,.27,0a.29.29,0,0,1,.31.26c0,.27-.24.11-.35.11A2.84,2.84,0,0,1,21,14c-.14,0-.29-.06-.28.17-.29.25-.37,0-.41-.2s0-.34-.15-.39-.3-.38-.37-.61,0-.19.1-.21a1.67,1.67,0,0,0,1-.57c.1-.11.18-.1.22.1s.14,0,.21,0c.17.34.31.4.6,0,.15-.18.15-.44.36-.55.4-.21.43-.44.06-.7.45-.33.61-.3.68.14.17-.19.63-.23.35-.66.26.27.54.41.84.08.17-.18,0-.4.08-.59.26.05.56.08.28.45a.17.17,0,0,0,.06.29c.18,0,.13-.14.16-.23.06-.27.12-.57.37-.68s.54-.24.55-.62c0-.08.2-.16.37-.1,0,.1-.2.18-.08.32s.21,0,.29,0,.25.15.36.09-.52-.22,0-.42a.85.85,0,0,0,.8-.62,1.38,1.38,0,0,1,.11-.27c.73.14.77-.78,1.25-.84s.76-.55,1.27-.44c.1,0,.57.13.41-.33,0,0,0-.07,0-.1.41.15.47-.46.84-.38a.37.37,0,0,1,.12.07c.2-.55.86-.44,1.15-.83A.64.64,0,0,1,33,5.05c.42,0,.62-.31.92-.53S34.55,4,35,4.16a.5.5,0,0,0,.52-.22c.18-.35.55-.28.79-.45,0,0,.13-.07.13-.06.37.52.46.12.64-.16s.44,0,.64,0,.19-.16.23-.28c.58-.21.12.34.3.42a16,16,0,0,1-1.43.94c-.37.15,0,.26.1.4l.3.19,0,.1Z"/><path class="cls-1" d="M21.09,84.65c.46.25,1.09.14,1.42.69,0,.08.19.12.32.13.28,0,.27,0,.32.37,0,.14.19.11.29.15s-.33.12-.24.32.24.14.39.19.6,0,.9.15.43,0,.39-.34c.21-.1.2.27.4.18,0,.06,0,.15,0,.17s-.25.16-.18.3.21,0,.32.05c.25.3.3-.07.47-.15.1.24-.15.62.29.72a.44.44,0,0,0,.5-.22h0c.23,0,.22.22.18.4s-.19.14-.32.12-.22,0-.2.13.15.1.25.07A1.58,1.58,0,0,1,27.3,88c.21,0,.3,0,.27.26s.18.12.27.07c.32-.17.32-.18.64.18-.21-.08-.45-.05-.41.12s.35.18.56.21.42.73.93.4c.35,0,.6.08.66.46,0,.06.06.15.14.1.56-.33.87.14,1.24.4a2.37,2.37,0,0,1,.92.83.09.09,0,0,1,0,0c.33-.2.55.06.79.2,0,0,.14,0,.14,0,.16.59,1,.27,1.16.84,0,.13.13.15.28.11a.45.45,0,0,1,.51.24.87.87,0,0,0,.67.46,1.85,1.85,0,0,1,1.2.91c.15.28.61.18.84.42,0,.28.49.24.34.5s.19.44.25.49c.23.17-.05-.22.14-.18l.23.07c.19.12.23.34.31.52s.19,0,.29,0c.41,0,0,.27.09.4-.37.19-.6-.16-.9-.23s-.69-.14-.7-.38c0-.39-.24-.08-.33-.14s-.08.15-.13.23.06.41-.17.53c-.15-.2-.09-.43-.11-.64,0-.06,0-.14-.09-.15a.14.14,0,0,0-.17.08c-.14.49-.47.27-.76.2s-.23-.39-.12-.65c.05-.11.23-.34,0-.36s-.55-.29-.77,0a.19.19,0,0,0,.1.31c.35.16,0,.12,0,.17a1.86,1.86,0,0,1-.64-.61c-.12-.23-.54-.1-.71-.06-.45.13-.68-.24-1-.34s.08-.22.21-.3a.25.25,0,0,0-.25-.21c-.66.26-.65-.56-1.09-.66-.11,0,0-.17,0-.26s0-.23-.16-.22-.24.07-.21.21.3.28,0,.45-.23-.23-.4-.25-.11-.07-.16-.11a.63.63,0,0,0-.4-.5c.21-.2,0-.25-.12-.31-.4-.12-.09.29-.26.35s-.07-.25-.24-.27-.28-.33-.65-.14a1,1,0,0,1-1.1-.46c0-.36-.07-.72-.11-1.07,0,0,0-.12,0-.14s.17-.08.19-.14,0-.35-.2-.29-.23.28-.31.44,0,.16,0,.24-.09.17-.19.17-.18.12-.17-.06c.05-.37-.25-.29-.45-.35h0c-.1-.14-.35-.11-.37-.36s-.29-.28-.47-.27-.31-.09-.3-.3c.21,0,.43.22.64,0-.31-.53-.67-.23-1-.08-.25-.08-.49-.25-.78-.11s-.22-.07-.23-.16-.21-.17-.31-.25c-.12-.5.35-.35.55-.47s.15.07.23.07.36-.11.17-.25-.41-.3-.61,0-.25,0-.36.13-.19,0-.2-.1c0-.5-.25-.44-.54-.17-.05.05-.15.05-.24.08-.05-.16,0-.31-.1-.44s-.18,0-.23.06-.09.21-.22.15a.17.17,0,0,1-.07-.26c.13-.24.14-.39-.21-.33-.15,0-.11,0-.08-.13.11-.35-.16-.34-.36-.34s-.27.08-.09.2.07.34,0,.55c-.45-.26-.24-.79-.55-1-.2-.53.44-.34.56-.64A1.14,1.14,0,0,1,21.09,84.65Z"/><path class="cls-1" d="M56.54,92.63c-.26,0-.53.07-.79.12,0,0-.1.07-.13.06s-.14-.34-.31-.14.16.26.19.42a2.71,2.71,0,0,0-.87.67c-.15.28-.4.32-.64.41-.27-.27-.84-.09-1-.62,0-.06-.14-.08-.22,0s0,.17,0,.25c0,.29.39.2.36.45s-.4-.14-.44.18c0,0,0,0,0,0l-.22.19c-.43-.11-.7.27-1.07.44,0-.28.36-.28.27-.51-.61-.1-.38.43-.53.68-.08.09-.2.16-.24.26-.1.27-.31.33-.56.37s-.29.12-.27-.1,0-.38.17-.5.14-.17.05-.25-.18,0-.24.09-.2.11-.17.28c.05.32,0,.53-.43.33,0,0-.23-.12-.3,0s0,.19.15.27,0,.24-.07.33a.91.91,0,0,0-.71-.29c0,.18.18.15.25.22s.26.2.16.33-.23-.11-.29-.1c-.28.06-.65-.09-.88.28.18.14.55-.08.57.31-.31.2-.59-.19-.94,0,.24.2.44.4-.05.5-.1,0-.16.15-.24.24,0-.12-.41-.13-.11-.34.08,0,.22-.07.15-.19a.36.36,0,0,0-.25-.16c-.13,0-.11.12-.15.21s-.08.48-.41.33S46,97.76,46,98s-.23.19-.3.13c-.4-.38-.71,0-1,.12s-.4,0-.62.1c.11.25.39.22.55.37s.33-.13.3.1-.26.09-.41.11-.61-.15-.81-.45a.28.28,0,0,0-.38,0c0,.2.21.17.28.28s-.08.13-.13.18c-.85-.38-1.67-.81-2.5-1.24-.26-.15-.5-.49-.9-.43-.15,0-.12-.15,0-.22s.21-.32,0-.4-.21-.37-.21-.59l.49.21v.19c0,.15.37,0,.29.3-.08.07-.27,0-.27.14a.18.18,0,0,0,.25.17c.32-.09.7.33,1-.14.06-.11.25.06.17.16-.29.39,0,.46.27.57,0,0,.38.23.17-.15-.08-.14.13-.24.3-.33.11.42.2.87.8.57,0,0,.07,0,.07,0,.11.64.41.16.65.13.55-.07.92-.53,1.45-.64,0,0,.1-.07.1-.09-.17-.77.41-.2.63-.36-.15-.06-.45-.16-.18-.29s.54-.7,1.07-.69c.15,0,.31-.27.47-.42.16.21.58.36.62.3.24-.4.92-.61.65-1.27l.07,0c.11,0,.24-.2.32,0s.26.06.4,0,.1-.12.23-.12c.42,0,.55-.22.47-.6.69-.12.05.46.35.59a2.38,2.38,0,0,1,.17-.47c.1-.19.15-.47.46-.4s.19,0,.15-.14c-.13-.34.17-.29.28-.42.14.15-.1.33.07.37s.3-.1.46-.06c-.14-.59.8-.37.7-.94,0,0,0-.11.07-.11.73,0,1-.86,1.7-1,.13,0,.26,0,.38,0s.39,0,.36-.28.42,0,.42-.29c.46,0,.61-.57,1.08-.52.27,0,.21-.34.43-.36.64-.06,1-.71,1.55-.83.33-.07.67-.07.89-.38.27,0,.55-.3.83,0,0,0,.16,0,.1-.1s.19-.32.09-.51H61c.2.31.43.33.69.07.06-.06.09-.21.23-.13s.12.18.06.31-.09.18,0,.29l.26-.13h0c0,.1,0,.21.11.24.51.1-.06.18,0,.27-.22-.06-.48-.22-.42.23,0,.09-.1,0-.16,0-.24,0-.25-.4-.54-.3-.67.23-.74.35-.63,1.07,0,.06-.05.12-.08.18l-.31.31c-.25,0-.29-.17-.39-.31s-.15-.29-.29-.13-.35.26-.3.48.22.1.35,0,.06.07.1.1c-.76.21-1.14.89-1.69,1.35a.17.17,0,0,1-.23,0c0-.11.14-.22,0-.3s-.23,0-.28.15a1.21,1.21,0,0,0-.07.33.7.7,0,0,0-.14,0c-.32,0-.64.34-1,0,0,0-.16.09-.19.19a.12.12,0,0,0,.13.16C56.52,92.28,56.59,92.4,56.54,92.63Z"/><path class="cls-1" d="M55.1,48c0,1.82,0,3.64,0,5.46,0,.29,0,.41-.38.41-1.25,0-1.25,0-1.25-1.23,0-3.33,0-6.66,0-10,0-.51-.15-.61-.62-.59-.83,0-1.67,0-2.5,0-.26,0-.35-.06-.36-.34,0-1.12,0-1.12,1.06-1.12,2.33,0,4.66,0,7,0,.41,0,.52.12.5.51,0,.95,0,.95-1,.95-.65,0-1.3,0-1.94,0-.43,0-.58.06-.57.54C55.12,44.38,55.1,46.19,55.1,48Z"/><path class="cls-1" d="M19.76,13c.07.23,0,.51.37.61s.12.24.15.39.12.45.41.2c.15,0,.27.07.28.24s-.15.11-.21.17a1.23,1.23,0,0,1-1.32.22s-.11,0-.17.06,0,.1,0,.11.42,0,.38.23-.36.13-.46.09-.22-.06-.3.16-.37,0-.56,0h0c.1-.07,0-.2,0-.18a1.06,1.06,0,0,0-.55.27c-.14.18.12.26.24.36s.1.09.08.17-.18,0-.27,0-.23-.21-.35-.12.07.21.09.33-.49.69-.68.66,0-.12,0-.17-.12-.36-.3-.38-.19.2-.31.29a.15.15,0,0,0,0,.23c.06.08.14.07.21,0s.13-.06.16,0a.33.33,0,0,1-.05.18.46.46,0,0,1-.44.19.53.53,0,0,0-.53.43c-.12.33-.46.38-.63.63a.14.14,0,0,1-.25,0c0-.07.09-.24-.1-.21s-.17.21-.18.36c-.37-.09-.74.39-1.13,0-.07-.06-.15.05-.19.12a.13.13,0,0,0,.06.21c.11,0,.23,0,.34.05s.06.31-.09.3c-.33,0-.65.33-1,0a.09.09,0,0,0-.16,0c0,.06-.06.15,0,.19s.21.1.23.3c-.7-.25-.69.43-1,.72a.79.79,0,0,1-.22.19c-.5,0-1,0-1.27-.52a.17.17,0,0,0-.23,0c-.06.05,0,.11,0,.18,0,.24.4.34.35.53s-.45,0-.51.33l-.17.12c-.2.06-.41-.15-.6.09s-.14.47-.36.27.23-.22.23-.4a.29.29,0,0,0,0-.09c-.51.17-.51.17-.38.62a.67.67,0,0,0-.46.43c-.07.33-.27.22-.45.23s-.34.25-.3-.12c0-.17,0-.34.19-.45a.13.13,0,0,0,0-.21c-.11-.12-.17,0-.24,0s-.21.16-.17.37,0,.53-.4.27c-.07-.05-.24-.1-.32,0s0,.18.11.28.17.3-.14.27a1.06,1.06,0,0,0-.59-.22c0,.17.13.15.21.21s.25.21.16.32-.22,0-.29-.11a.35.35,0,0,0,0-.08c-.14.32-.47,0-.65.19s-.13.12-.13.19.1.13.19.08a.2.2,0,0,1,.31.19c0,.23-.24.08-.37.07s-.3-.15-.49-.09.34.3.14.37-.31.55-.68.31c-.07-.24.47-.43.06-.7,0,0,.12-.08.14-.14.12-.4-.34-.08-.41-.31s-.19,0-.21.07c-.13.41-.12.41-.39.54a.28.28,0,0,0-.33-.12c-.31.11-.18-.1-.17-.22.46,0,.69-.42,1-.69s.8-.24,1-.65c.26.27.48-.11.76-.06s.3-.53.73-.58c-.27-.18-.37.23-.53-.05.27-.13.42-.73.9-.24,0,0,0,0,.05,0,.11-.43.55-.17.78-.35.07-.06.14-.14.1-.21s-.08-.22.06-.28a.2.2,0,0,1,.23.05.2.2,0,0,1,0,.31.16.16,0,0,0,0,.27c.21-.09.11-.33.22-.47s.14-.49.49-.41.18-.08.12-.19.1-.28.21-.31c.31-.08.07.14.1.22s.18.08.22,0c.24-.4.91-.35,1-.93a.31.31,0,0,1,.07-.12c.49.22.56-.29.77-.49s.7-.2.94-.5c.1-.14.26,0,.38,0s.37,0,.34-.28.25-.13.38-.18a6.17,6.17,0,0,0,1.14-.69c.42-.27.94-.36,1.28-.73a1.54,1.54,0,0,1,1-.44,2.49,2.49,0,0,0,.86-.46c.57-.06.57-.06.6-.31s.08-.2.21-.2c.21.29.43.36.69.06.06-.07.12-.19.23-.12a.2.2,0,0,1,.06.3.21.21,0,0,0,0,.27c.2,0,.18-.16.18-.29.24.13.36,0,.36-.23.22.12.41.18.52-.09,0-.1.06-.29,0-.32-.3-.08-.25.29-.48.41l-.28-.08c-.14-.44-.57-.15-.81-.31,0,0,0-.09,0-.09C19,13.73,19.24,13.16,19.76,13Z"/><path class="cls-1" d="M62.06,10.28c0,.14.09.2.19.27-.19.13-.47.07-.6.3s-.16.21-.26.22-.13-.15-.17-.25a.51.51,0,0,0-.41-.75c-.34-.06-.14.31-.24.46l-.08.05c-.12-.46-.12-.45-.54-.29a1,1,0,0,1-.35,0l-.21-.1c-.22-.16,0-.31,0-.42.21-.32.14-.41-.24-.45s-.49,0-.27.38c0,.06-.09,0-.14.08-.43-.54-1.16-.41-1.7-.73-.09-.06-.21,0-.25-.19s.37,0,.17-.27-.39,0-.4,0c-.15-.33-.72-.38-.59-.87,0-.16-.07-.17-.18-.18s-.17.1-.12.2.17.27,0,.37-.25-.08-.32-.2-.5-.33-.37-.73c0-.13-.12-.1-.22,0s0,.25-.12.36-.14-.13-.2-.2-.21-.49-.59-.21a.8.8,0,0,1-.79-.27c-.14-.41-.39-.8-.07-1.24a.16.16,0,0,0-.08-.25c-.11-.06-.14,0-.18.11a1.83,1.83,0,0,0-.18.3c0,.09.12.23-.08.27s-.09-.21-.24-.19-.24,0-.32-.11A2.24,2.24,0,0,0,50.83,5c.32-.1.47.13.64,0-.23-.39-.49-.32-.75,0-.21-.11-.4-.26-.67-.15s-.23-.12-.28-.24-.29-.09-.24-.27.23-.12.35-.18a.24.24,0,0,1,.28,0A.14.14,0,0,0,50.37,4c.05-.16-.09-.15-.18-.17s-.19-.12-.33,0c-.32.26-.49.15-.52-.25,0-.08,0-.22-.17-.19s-.18.05-.17.2-.17.21-.32.21a.91.91,0,0,0-.07-.8c-.25.1,0,.24,0,.34s-.1.3-.26.26-.06-.18,0-.29-.41-.65-.55-.64-.23.11-.09.23.09.29-.05.42c-.26-.2-.22-.54-.34-.8-.3.08.26.35-.1.37a.86.86,0,0,1-.72-.35c-.32-.65-1-.89-1.46-1.29A4.65,4.65,0,0,0,43.75.71c0-.1-.31-.21,0-.31.1.18.28,0,.41.1.29.13.64.15.9.28s.33-.05.44-.2a.11.11,0,0,0,.08,0c-.08.69.56.47.84.74.09-.28-.1-.34-.21-.44.06-.07.14-.22.23-.13.36.37.87.35,1.3.53.26.1.29.59.71.42.22.05,0,.53.4.41h0c-.07,0,.26.23,0,.19-.09,0-.18-.05-.21,0s.06.13.15.16a1.13,1.13,0,0,0,1.13-.18c.16.15.7,0,.38.53,0,0,0,.06,0,.06.48-.1.56.54,1,.61,0-.24-.27-.19-.23-.4a.47.47,0,0,1,.58.37c.12.37-.36.16-.47.36.13.18.24,0,.36,0,.27,0,.61-.22.75.23a.11.11,0,0,0,.2,0c.21-.25.34-.05.53.07-.82.24.19.4-.12.65.21-.07,0-.38.29-.26.26.49.7.4,1.13.37.09.25.14.52.53.32.16-.08.41.13.48.21.27.32.73.41.94.8.06.11.07.29.33.14s.36.36.67.29c0,.33.24.27.44.28s.18,0,.19.05c.12.35.55.28.68.45C59,8.13,60,8,60.29,8.83c.58.09.87.72,1.47.78.09,0,.31.07.15.29S62,10.17,62.06,10.28Z"/><path class="cls-1" d="M21.09,84.65a1.14,1.14,0,0,0,1,1c-.12.3-.76.11-.56.64l0,0,0,0c0,.21-.75-.33-.35.33-.27-.09-.59-.1-.68-.46l-.12-.5c.18.1.41.15.54,0s-.07-.26-.21-.33-.38-.07-.43.2c-.15,0-.28-.06-.34.16s-.14.06-.2,0c0-.52-.29,0-.38-.1a1.4,1.4,0,0,1-.1-.39.78.78,0,0,0-.82-.74l-.13,0-.39.4a3,3,0,0,1-1.56-1A.18.18,0,0,0,16,83.8c-.42.14-.75-.11-1.12-.22-.1,0-.19-.08-.13-.22s.09-.23-.16-.22-.76-.51-.73-.75,0-.29-.17-.25-.14.18,0,.3,0,.2-.06.24-.22.09-.28-.08-.57-.4-.46-.82c0,0,0-.1-.14-.1-.3,0-.05.3-.25.38-.19-.13-.33-.63-.56-.45s-.5-.11-.74,0c0,0-.14-.13-.21-.19a1.49,1.49,0,0,1-.21-1.12c0-.1.21-.22.05-.32s-.17.17-.29.24-.45.22-.56.17l-.3-.11c-.19-.25-.3-.59-.73-.52-.13,0-.13-.17-.17-.28.19,0,.34.24.57.06-.19-.21-.34-.47-.61-.1-.27,0-.51-.24-.8-.09s-.21-.27-.4-.3-.21-.19,0-.27.31-.21.51-.09a.15.15,0,0,0,.23-.11c0-.09-.08-.14-.17-.14s-.19-.16-.32,0c-.37.36-.47.11-.55-.23,0,0,.05-.24-.13-.19s-.21,0-.19.13,0,.3-.18.28,0-.27-.12-.36c.07-.17-.16-.23-.1-.42-.2.13.06.32-.1.42s-.07.27-.24.18-.06-.16,0-.26-.42-.7-.58-.65-.13.15,0,.25a.2.2,0,0,1,0,.34c-.21.11-.19-.13-.24-.23s0-.36-.19-.52c-.2,0,0,.59-.36.26-.15-.14-.72,0-.38-.51.12.06.18.27.33.19a1.39,1.39,0,0,0,.54-.41c.07-.11,0-.34-.06-.51s-.14-.06-.23-.07-.16.35-.24,0c0-.19-.05-.34.21-.31.62.07,1,.57,1.62.71,0,0,0,.07,0,.11s.45.76.57.71c.27-.12.66.29.84-.19l.22.1c.06,0,.13.06.11.13-.06.29-.07.29.3.38.16.54.52.49.91.3.12.23.05.36-.2.37s-.23,0-.2.14.14,0,.21,0c.32,0,.72-.34.87.25,0,0,.16,0,.21-.06s.32-.1.41,0c.2.3-.19,0-.2.17a.17.17,0,0,0,.13.21c.08.09.1.42.18.28.18-.33.33-.09.37,0,.15.31.37.18.58.13,0,0,.12,0,.15,0a1.55,1.55,0,0,0,1,.41c.39,0,.55.51.95.55.12,0,.09.18.16.24s.12.41.46.24a.72.72,0,0,1,.62.3c.11.29.26.27.47.27s.22,0,.23.08c.09.33.48.24.6.38.44.51,1.27.46,1.56,1s.73.4,1,.75c.08.09.21.18.23.29s-.08.24.08.29.06-.24.23-.22l.29,0c0,.33,0,.67.46.67.11,0,.18.05.16.13-.1.34.18.15.28.21.35,0,.27-.22.13-.42Z"/><path class="cls-1" d="M1.26,30.11c0-.18-.13-.1-.2-.13S.82,30,.8,29.9s.21-.15.21-.18c.05-.27.4-.4.31-.71a.24.24,0,0,0-.11-.15c-.11,0-.12.07-.15.15s-.23.25-.35.14.06-.24.14-.33.29-.19.33-.37c-.41,0-.56-.46-.31-.88l.29.11c-.44.56.6.15.38.57.31.11.29-.29.55-.34-.48,0-.37-.38-.36-.54s.24-.39.4-.56.13.07.18.14c0,.23-.33.29-.33.56.13,0,.06-.22.21-.18s.12.13.14.23A6.77,6.77,0,0,1,2.41,29c0,.12,0,.23-.05.34,0,.36-.5.57-.2,1.11a3.08,3.08,0,0,0,.53.59c-.12.06,0,.33-.18.28s-.2,0-.21.2.13.22.34.21c-.37.26-.7.49-.14.81.09,0,.14.17,0,.24s-.23.15-.31,0-.11-.24-.29-.22c0,.26.23.27.3.44s.33.38.09.62,0,.19.06.2c.32,0,.19.25.21.42-.16.1-.24-.21-.33-.1s-.07.32-.23.42a.32.32,0,0,1,.35.28c.06-.11.13-.19.21,0s-.06.18-.15.22-.43.16-.05.37c.06,0,.22.34.19.37-.43.34,0,.66,0,1s-.25.69,0,1c.06.11-.08.17-.11.25s-.25.35,0,.56,0,.43,0,.59c-.08.54.12,1.11,0,1.58-.2.74.32,1.5-.21,2.21-.15.2.09.58,0,.88-.42.33-.21.63,0,.93h0c-.33.08-.55.22-.38.62s-.08.26-.24.29h0a.8.8,0,0,0-.63-.51c-.22-.09-.29-.22-.08-.41.73-.12.37-.69.56-1.18-.31.26-.44.58-.78.35h0c.18-.08.44-.15.46-.35s-.32,0-.43-.22a.8.8,0,0,0-.13-.13c-.18-.09,0-.2,0-.31,0-.27.18-.27.36-.26s.35,0,.35-.15A.54.54,0,0,0,1.08,42c-.27-.12-.19.16-.25.27s-.1,0-.15,0a1,1,0,0,1,0-.3A1,1,0,0,0,.5,40.79c-.13-.15-.07-.48-.09-.72,0-.07.05-.12.12-.14.27-.09.27-.09,0-.31.2-.25.17-.58.32-.84s.47-.14.23-.4-.28.17-.44.21H.56a1,1,0,0,1,.36-1c.07,0,.17-.07.11-.18a.15.15,0,0,0-.2-.1l-.14,0a.94.94,0,0,1-.17,0c.06-.26.37-.51.17-.73s-.18-.28-.27-.37c-.31-.31-.12-.54,0-.79.32-.1.48-.51.84-.5.14,0,.24,0,.27-.1s-.19-.12-.27-.19-.31.28-.52.11.34-.28,0-.46l0-.2c0-.36.4-.72,0-1.08l.11-.1c.08,0,.12,0,.15.07s0,.34.22.21a.24.24,0,0,0-.08-.42c-.24-.1-.25-.29-.3-.48s0-.36-.29-.36c0-.18.28-.26.15-.48,0-.16.11-.23.24-.12s.33.19.35.4.08.22.2.17.07-.16,0-.25,0-.26-.17-.32c-.39-.13-.32-.32,0-.52.08-.06.22-.16.1-.29s-.17-.14-.28,0-.18,0-.22-.11.07-.09.12-.13A2.09,2.09,0,0,0,1.26,30.11Z"/><path class="cls-1" d="M85.54,30.22a1.93,1.93,0,0,1,.19-1c.13-.21-.2-.47-.33-.66s-.1-.68-.17-1,.25-.15.38.09c.08-.26.11-.44-.11-.55s-.19-.14-.07-.27a.9.9,0,0,0,.2-.82.36.36,0,0,1,0-.09c.16,0,.4.09.42-.19s-.18-.28-.35-.25-.24-.18-.39-.18c.13-.47.07-.72-.5-.88s-1.16-.63-1.77-.87c-.38-.15-.69-.46-1.12-.5,0,0-.09-.07-.09-.1,0-.38-.2-.35-.46-.3s-.48-.1-.38-.49c-.24,0-.6.3-.62-.21,0-.3.13-.48.38-.17s.59.27.86.45c.09.06.24,0,.22-.1,0-.46.22-.19.39-.17a.25.25,0,0,0,0,.07c-.08.37.21.28.4.31.12.46.48.63.86.4.15-.09.29,0,.25.09-.29.55.31.48.49.74-.12-.26-.15-.48.21-.57.11.39.24.8.79.55.19.47.65,0,1,.29s.64.49,1,.71a2.05,2.05,0,0,0,.56.31c-.13.31-.56.6,0,.9-.37.27.25.66-.11.9-.2.13-.16.21,0,.35s.15.16.13.2c-.21.49.1,1-.06,1.45a1.38,1.38,0,0,0,0,.77,1.67,1.67,0,0,1-.2,1.53c-.13.2,0,.45.09.67-.06.27-.07.73-.2.77-.7.19-.22.42-.06.65-.13.06.06.19-.08.29-.35.26-.35.55.07.8-.66.12-.77,0-.69-.65,0-.18.08-.37-.08-.53v-1.1a1,1,0,0,1-.83.5c.07-.37.54-.33.66-.64-.2-.21-.48,0-.67-.19a1,1,0,0,1-.1-1.13c.12.34.4.23.63.23s.2-.06.18-.14a1.36,1.36,0,0,0-.28-.61.18.18,0,0,0-.23,0c-.09,0-.18.11-.12.23C85.83,30.35,85.59,30.17,85.54,30.22Z"/><path class="cls-1" d="M87.07,67.41c.44,0,.39.21.19.46s-.37.26-.23.53c.21,0,0-.35.25-.31s.11.25.15.38,0,.55.17.79-.27.42-.11.69c0,.21.24.43,0,.63a2.21,2.21,0,0,0-.32,1c.09.12.22.08.33.1-.27.38-.21.53.25.6.13,0,.17.07.16.19l-.08.1c0,.25-.12.22-.28.12s-.15,0-.16,0,.07.1.11.14c0,.28,0,.49.4.46-.83.27-.44,1-.65,1.5-.19-.36-.33-.18-.5,0s-.26.46-.58.38h0c.23-.45.06-.69-.41-.75l-.21-.38c0-.15.2-.34,0-.42s0-.25-.06-.37c.32,0,.08-.36.25-.51a1.55,1.55,0,0,1,.51.38s0,.14.06.18.17.39.27.06c0-.07.06-.46-.24-.54,0,0-.11,0-.13,0s-.39-.31,0-.49c.08,0,.13-.15.2-.22s.15-.11,0-.2-.19-.19-.24-.12c-.31.43-.36,0-.52-.13a.91.91,0,0,0,.66-.43c0-.07.2-.1.09-.21s-.15,0-.23,0l0,0c0-.11,0-.23-.08-.33s-.24-.17.07-.24.14-.36.06-.52-.23,0-.23.11-.18.21-.31.25-.16,0-.16-.08a.49.49,0,0,1,.22-.37c.11-.08.2-.18.31-.26s.14-.12.1-.2-.13-.06-.21,0c-.29.14-.36,0-.27-.24s-.37-.57.11-.74c.19,0,.29.06.19.28s0,.28.06.24c.33-.16.44,0,.52.27a.14.14,0,0,0,.26,0c0-.16.11-.2.24-.21s.14,0,.13-.11,0-.13-.16-.15-.36-.6-.16-.71S87.05,67.62,87.07,67.41Z"/><path class="cls-1" d="M113.73,62.18a1.57,1.57,0,0,1-2.51-1.3,2.26,2.26,0,0,1,.56-1.94,1.37,1.37,0,0,1,1.71-.27c.14.07.16.09.31,0s.55-.06.56.33c0,1.12,0,2.24,0,3.36A1.65,1.65,0,0,1,112.22,64a1.39,1.39,0,0,1-.84-.62c-.07-.12-.25-.27-.06-.38s.39-.28.58,0a.9.9,0,0,0,1.2.37C113.64,63.2,113.69,62.7,113.73,62.18Zm0-1.67h0v-.45a.87.87,0,0,0-1.69-.35,1.92,1.92,0,0,0,0,1.67.83.83,0,0,0,.91.5.85.85,0,0,0,.72-.81A3.49,3.49,0,0,0,113.71,60.51Z"/><path class="cls-1" d="M34.73,58.77a1.53,1.53,0,0,1,2.45,1A2.76,2.76,0,0,1,37,61.58a1.49,1.49,0,0,1-2.12.74c-.08,0-.15-.16-.24,0s-.37.15-.54.1-.07-.27-.07-.42c0-1.49,0-3,0-4.49,0-.25,0-.44.35-.44s.32.2.32.43Zm0,1.72a5.23,5.23,0,0,0,0,.56.84.84,0,0,0,.69.83.85.85,0,0,0,1-.52,2,2,0,0,0,0-1.82.81.81,0,0,0-.83-.47.83.83,0,0,0-.74.61A2,2,0,0,0,34.74,60.49Z"/><path class="cls-1" d="M101.11,62.27c0,.52,0,1,0,1.47,0,.25-.08.32-.32.31s-.34,0-.34-.3c0-1.63,0-3.26,0-4.89,0-.39.33-.43.45-.31.28.28.44,0,.65,0a1.47,1.47,0,0,1,1.8.79,2.65,2.65,0,0,1,0,2.36C103,62.53,102.21,62.73,101.11,62.27Zm0-1.94a4.29,4.29,0,0,0,.05.93.87.87,0,0,0,.76.66.78.78,0,0,0,.78-.37,2.07,2.07,0,0,0,0-2.07.81.81,0,0,0-.82-.38.78.78,0,0,0-.69.65A3.73,3.73,0,0,0,101.1,60.33Z"/><path class="cls-1" d="M77.88,61.06c0,.34,0,.68,0,1,0,.13.09.36-.13.37s-.41.16-.51-.14-.21-.07-.3,0a1.56,1.56,0,0,1-1.28.17,1.18,1.18,0,0,1-.91-1,1.21,1.21,0,0,1,.69-1.26A1.83,1.83,0,0,1,76.87,60c.33.11.34,0,.3-.28a.79.79,0,0,0-.65-.7.69.69,0,0,0-.86.37c-.17.39-.42.14-.58.08s0-.29,0-.41a1.47,1.47,0,0,1,1.65-.6,1.36,1.36,0,0,1,1.11,1.24c0,.44,0,.88,0,1.32Zm-1.66.85a.86.86,0,0,0,1-.88c0-.55-.42-.45-.72-.47-.63,0-1,.23-1,.68S75.7,61.91,76.22,61.91Z"/><path class="cls-1" d="M121.17,61.5a1.5,1.5,0,0,1-1.54,1,1.55,1.55,0,0,1-1.5-1,2.61,2.61,0,0,1,0-2,1.56,1.56,0,0,1,2.95,0c.41,1,.31,1.16-.74,1.17-.48,0-1,0-1.43,0-.23,0-.31.07-.26.3.08.39.21.77.64.9a.92.92,0,0,0,1.14-.3C120.68,61.18,120.91,61.46,121.17,61.5Zm-1.58-1.43c.21,0,.41,0,.61,0s.35-.1.25-.35a.88.88,0,0,0-.72-.63.83.83,0,0,0-.88.45c-.09.15-.22.31-.14.47s.28,0,.43.06Z"/><path class="cls-1" d="M52.78,60.67c-.34,0-.68,0-1,0s-.29.1-.24.31a1,1,0,0,0,.65.9.92.92,0,0,0,1.13-.32c.22-.32.49-.19.66-.06s0,.32-.14.45a1.64,1.64,0,0,1-2.76-.31,2.6,2.6,0,0,1-.16-1.8,1.54,1.54,0,0,1,1.59-1.35,1.59,1.59,0,0,1,1.58,1.39c.18.78.17.8-.62.8Zm-1.26-.6H53.1c.33,0,.32-.13.22-.37a.89.89,0,0,0-.84-.63C51.92,59.09,51.67,59.49,51.52,60.07Z"/><path class="cls-1" d="M72.79,60.66c-.31,0-.62,0-.92,0s-.47.08-.36.43.27.7.7.8a.92.92,0,0,0,1.08-.35c.23-.34.49-.15.66,0s0,.29-.14.41a1.63,1.63,0,0,1-2.65-.08,2.51,2.51,0,0,1-.06-2.58,1.43,1.43,0,0,1,1.49-.77,1.47,1.47,0,0,1,1.33,1c.42,1,.31,1.17-.72,1.17h-.41Zm-.38-.59h.77c.14,0,.22,0,.17-.21-.12-.33-.26-.64-.63-.74a.81.81,0,0,0-.88.23c-.16.17-.36.39-.28.62s.36.07.55.1Z"/><path class="cls-1" d="M107.19,60.53a2.5,2.5,0,0,1,.26-1.23,1.6,1.6,0,0,1,2.73-.08,2.57,2.57,0,0,1,.06,2.45,1.49,1.49,0,0,1-1.5.85,1.51,1.51,0,0,1-1.4-1.09A1.82,1.82,0,0,1,107.19,60.53Zm2.65-.05a1.92,1.92,0,0,0-.2-.88.87.87,0,0,0-.81-.52.84.84,0,0,0-.8.54,2.16,2.16,0,0,0,0,1.69.89.89,0,0,0,1.69,0A2.37,2.37,0,0,0,109.84,60.48Z"/><path class="cls-1" d="M47,60.47V58.89c0-.32.36-.55.51-.33s.36.11.54,0a1.46,1.46,0,0,1,2.1,1.22c0,.79,0,1.59,0,2.39,0,.26-.14.26-.32.26s-.34,0-.33-.3c0-.65,0-1.29,0-1.94s-.33-1.1-.92-1.1-.92.38-.94,1.09,0,1.25,0,1.88c0,.24,0,.38-.32.38s-.35-.1-.35-.36c0-.54,0-1.09,0-1.63Z"/><path class="cls-1" d="M82.77,60.6c0-1.43.67-2.15,1.8-2.1a1.39,1.39,0,0,1,1.25.83,2.63,2.63,0,0,1,.07,2.18,1.54,1.54,0,0,1-1.7,1A1.67,1.67,0,0,1,82.8,61,2.71,2.71,0,0,1,82.77,60.6Zm2.65-.08c0-.82-.38-1.42-1-1.44s-1,.54-1,1.39.38,1.43,1,1.44S85.39,61.39,85.42,60.52Z"/><path class="cls-1" d="M86.79,60.46V58.88c0-.31.35-.53.51-.32s.37.1.55,0a1.44,1.44,0,0,1,2.07,1.19c.06.81,0,1.63,0,2.44,0,.29-.18.24-.34.24s-.32,0-.31-.25c0-.67,0-1.33,0-2s-.33-1.1-.92-1.1-.91.37-.93,1.09,0,1.26,0,1.89c0,.24,0,.38-.33.37s-.35-.1-.34-.36C86.8,61.55,86.79,61,86.79,60.46Z"/><path class="cls-1" d="M94.39,60.49c0-.53,0-1.05,0-1.58,0-.13-.06-.31.1-.35s.4-.11.47,0,.23.11.36,0a1.44,1.44,0,0,1,2.17,1,23.19,23.19,0,0,1,.06,2.5c0,.24-.1.28-.31.27s-.36,0-.36-.29q0-1,0-2a.91.91,0,0,0-.79-1,.93.93,0,0,0-1.06,1c0,.66,0,1.32,0,2,0,.28-.09.33-.35.34s-.3-.12-.3-.34c0-.54,0-1.09,0-1.63Z"/><path class="cls-1" d="M41.14,60.53v1.58c0,.12,0,.31-.12.34s-.41.13-.49-.08-.17-.11-.28,0A1.46,1.46,0,0,1,38,61c0-.71,0-1.42,0-2.14,0-.25.09-.31.33-.31s.34,0,.33.31c0,.64,0,1.29,0,1.94s.34,1.08.93,1.07.9-.41.91-1.07,0-1.29,0-1.93c0-.24.06-.33.32-.33s.36,0,.35.34c0,.54,0,1.08,0,1.63Z"/><path class="cls-1" d="M56.27,58.5a1.27,1.27,0,0,1,1,.35c.12.11.39.24.24.41s-.4.36-.66.07a.91.91,0,0,0-.85-.21.48.48,0,0,0-.47.4c0,.24.14.36.34.44l1,.37a1.07,1.07,0,0,1,.82,1,1.2,1.2,0,0,1-.87,1.07,1.8,1.8,0,0,1-2-.52c-.07-.1-.29-.25,0-.35s.33-.4.59,0a1.06,1.06,0,0,0,1.37.25.44.44,0,0,0,0-.83,4.66,4.66,0,0,0-.82-.28c-.8-.25-1.17-.67-1.07-1.26A1.34,1.34,0,0,1,56.27,58.5Z"/><path class="cls-1" d="M43.28,58.5a1.3,1.3,0,0,1,1,.39c.1.1.38.2.2.38s-.38.33-.63.08a1,1,0,0,0-.85-.23c-.24,0-.44.12-.49.37s.14.39.35.48.71.24,1.05.39a1,1,0,0,1,.75,1,1.14,1.14,0,0,1-.81,1,1.79,1.79,0,0,1-2.09-.48c-.08-.12-.27-.29,0-.39s.3-.36.54,0a1.07,1.07,0,0,0,1.37.27.45.45,0,0,0,0-.84,4.66,4.66,0,0,0-.82-.28c-.82-.25-1.17-.66-1.07-1.26A1.32,1.32,0,0,1,43.28,58.5Z"/><path class="cls-1" d="M59.78,58.49a1.35,1.35,0,0,1,1.11.41c.1.09.37.2.17.37s-.37.32-.58.1a1,1,0,0,0-.95-.25.47.47,0,0,0-.43.37c0,.25.11.38.32.46l1,.39a1.08,1.08,0,0,1,.8,1.06,1.16,1.16,0,0,1-.87,1,1.79,1.79,0,0,1-2-.45c-.09-.11-.35-.29,0-.43s.35-.38.58,0a1.09,1.09,0,0,0,1.38.22.44.44,0,0,0,0-.81,3.76,3.76,0,0,0-.91-.31,1.4,1.4,0,0,1-.85-.53,1.07,1.07,0,0,1,.88-1.6C59.54,58.5,59.66,58.5,59.78,58.49Z"/><path class="cls-1" d="M126.91,58.5a1.44,1.44,0,0,1,1.12.4c.1.1.32.23.18.36s-.38.35-.62.1a1,1,0,0,0-.9-.24.48.48,0,0,0-.47.39c0,.24.14.37.35.45s.67.23,1,.37a1.1,1.1,0,0,1,.82,1.05,1.19,1.19,0,0,1-.89,1.06,1.79,1.79,0,0,1-2-.52c-.08-.13-.24-.28,0-.37s.33-.37.54,0,.74.44,1.19.36a.56.56,0,0,0,.49-.46c0-.28-.17-.43-.4-.52s-.52-.16-.78-.25c-.78-.26-1.08-.62-1-1.2A1.31,1.31,0,0,1,126.91,58.5Z"/><path class="cls-1" d="M123.39,58.5a1.31,1.31,0,0,1,1,.34c.12.11.42.23.25.42s-.4.35-.66.07a.93.93,0,0,0-.9-.2.46.46,0,0,0-.42.39.41.41,0,0,0,.31.42c.37.14.74.26,1.1.41a1.07,1.07,0,0,1,.77,1,1.15,1.15,0,0,1-.85,1,1.83,1.83,0,0,1-2-.46c-.08-.12-.29-.29,0-.41s.34-.38.58,0a1.06,1.06,0,0,0,1.37.22c.38-.25.37-.62,0-.82a6.41,6.41,0,0,0-.87-.31c-.76-.25-1.08-.64-1-1.21A1.32,1.32,0,0,1,123.39,58.5Z"/><path class="cls-1" d="M1.89,70c.09.08.12.24,0,.24-.75,0-.24.55-.4.82.16-.22.31-.4.6-.14-.22.29-.61.6-.09,1,.09.07-.05.23-.18.23-.32,0-.29.27-.21.39.2.32,0,.73.27,1,.06.08.07.2-.1.17s-.2.08-.18.21,0,.28.17.32a9.08,9.08,0,0,1,2.47,1.14c-.07.17-.2.2-.33.09-.32-.28-.67-.1-1-.08-.53-.36-1.22-.37-1.79-.78l.32-.08c-.1-.2-.38-.18-.46-.43.3,0,.45,0,.34-.46A16.23,16.23,0,0,1,1,70c0-.14,0-.26-.1-.35s-.31-.25,0-.42c.07,0,.06-.12,0-.18-.2-.3-.31-.5.21-.25.07,0,.23,0,.24-.19s.21-.37.42-.46c.26.31-.31.62,0,.95,0,0-.19.11-.25,0-.25-.42-.24.2-.4.1-.07.17,0,.26.17.28s.17.06.16.18C1.41,70,1.65,70,1.89,70Z"/><path class="cls-1" d="M64.18,60.6c0-1.31.6-2.07,1.57-2.14a1.46,1.46,0,0,1,1.39.68c.07.11.27.28.07.38s-.4.28-.58,0a.86.86,0,0,0-1-.41,1.09,1.09,0,0,0-.69,1,2.08,2.08,0,0,0,.14,1.3.88.88,0,0,0,1.5.22c.08-.08.09-.25.23-.24a.9.9,0,0,1,.48.13c.14.13,0,.28-.12.39a1.54,1.54,0,0,1-1.71.6,1.65,1.65,0,0,1-1.18-1.4A4.21,4.21,0,0,1,64.18,60.6Z"/><path class="cls-1" d="M39.27,2.23c0-.12-.24-.26,0-.37s.31-.22.35.1c0,.11.13,0,.2,0A8.49,8.49,0,0,1,42.58.52c.22-.07.45-.11.49-.43,0-.15.14-.12.26.12-.11.14-.24.27-.19.48a7.69,7.69,0,0,1-1.88,1.63c-.53.43-1.12.79-1.68,1.18-.17.11-.31.2-.26-.13S39.22,3,39,3.11s-.39,0-.57-.06.14-.21.2-.32.28,0,.29-.22.15,0,.22-.07.25.16.19.36.14.13.22.19.23,0,.22,0c-.1-.33.28-.49.3-.78C39.8,2.2,39.56,2.71,39.27,2.23Z"/><path class="cls-1" d="M78.87,60.52v-.91c0-.23,0-.47-.32-.43-.16,0-.21-.08-.19-.22s-.07-.35.1-.34c.52,0,.4-.33.41-.62s-.08-.47.33-.47.33.27.3.48c-.07.51.14.67.62.59.2,0,.4,0,.39.29s-.17.34-.39.3c-.52-.1-.67.11-.62.62a12,12,0,0,1,0,1.47c0,.44.2.68.61.6s.47.18.48.4-.3.21-.46.23c-.88.07-1.26-.29-1.27-1.17Z"/><path class="cls-1" d="M83.07,75.26a.93.93,0,0,0,1.24,0s0-.07.1-.12a.93.93,0,0,0-.5,0c-.23.07-.17-.12-.19-.24s.09-.19.21-.14a.45.45,0,0,0,.66-.25c.13-.49.27-.19.44-.06-.06.17-.2.29.17.36s.3-.42.55-.17c.35.07,0,.57.41.63h0c-.13.17-.26.43-.38,0,0-.15-.14-.25-.27-.23s-.16.16-.09.29a.14.14,0,0,1-.06.21c-.16,0-.11-.09-.15-.17s-.22,0-.29,0c-.58.48-1.41.58-1.83,1.27-.36-.2-.47.47-.87.24-.15-.08-.25.17-.32.33s-.17.4-.46.18-.19,0-.2.17c0,.29-.19.26-.39.2s-.27-.1-.26-.27.19-.15.31-.2A7.88,7.88,0,0,0,82,76.65c-.59-.16-.59-.16-.36-.47l.1,0c.29.27.36-.26.6-.17.08.15.16.29.31.07C83.2,76,83.17,75.64,83.07,75.26Z"/><path class="cls-1" d="M104.36,60.52c0-.53,0-1.05,0-1.58,0-.34.34-.55.54-.32s.25.14.41,0a1,1,0,0,1,.88-.12c.15,0,.44.07.34.31s-.09.57-.54.38-.93.17-1,.84,0,1.29,0,1.94c0,.23.06.46-.33.46s-.33-.24-.33-.46Z"/><path class="cls-1" d="M68,60.49c0-.51,0-1,0-1.53,0-.13-.08-.3.09-.36s.42-.09.47,0c.14.3.25.11.37,0a1,1,0,0,1,.83-.13c.18,0,.48,0,.39.32s-.1.54-.54.38-.89.13-.94.76,0,1.35,0,2c0,.25,0,.46-.35.45S68,62.23,68,62Z"/><path class="cls-1" d="M115.15,60.51c0-.52,0-1,0-1.57,0-.12-.08-.3.1-.35s.39-.09.47.06.18.12.29,0a1.06,1.06,0,0,1,.88-.16c.17,0,.48,0,.39.32s-.09.54-.54.38-.93.18-.95.85,0,1.35,0,2c0,.25-.05.37-.33.36s-.33-.07-.32-.32c0-.54,0-1.08,0-1.63Z"/><path class="cls-1" d="M82,60.55c0,.55,0,1.09,0,1.63,0,.27-.11.3-.33.3s-.34,0-.34-.31q0-1.65,0-3.3c0-.26.13-.3.35-.31s.33.06.32.32C82,59.43,82,60,82,60.55Z"/><path class="cls-1" d="M93.58,60.53c0,.55,0,1.09,0,1.64,0,.25-.1.31-.33.31s-.34,0-.34-.31c0-1.1,0-2.21,0-3.31,0-.23.1-.3.31-.29s.37,0,.36.28C93.57,59.41,93.58,60,93.58,60.53Z"/><path class="cls-1" d="M1.89,70c-.24,0-.48-.06-.45-.4,0-.12,0-.17-.16-.18s-.24-.11-.17-.28c.16.1.15-.52.4-.1.06.1.25,0,.25,0-.28-.33.29-.64,0-.95a.38.38,0,0,1,0-.1l.41-.15c-.39-.16-.37-.4-.17-.69S2.14,67,2,66.73a.42.42,0,0,1,.16-.52c.46-.2.36-.58.34-.92s-.19-.56.15-.76a14.1,14.1,0,0,1,0,2c0,.34-.28.62-.19,1a4,4,0,0,1,.14.82c0,.35.1.33-.27.55-.13.09.06.24,0,.36s-.41,0-.52.2C1.44,69.72,1.82,69.85,1.89,70Z"/><path class="cls-1" d="M46.14,60.5c0,.55,0,1.09,0,1.63,0,.26-.08.35-.35.35s-.31-.1-.31-.33c0-1.09,0-2.17,0-3.26,0-.24.07-.32.32-.33s.34.11.33.36c0,.53,0,1.06,0,1.58Z"/><path class="cls-1" d="M81.66,76.18c-.23.31-.23.31.36.47a7.88,7.88,0,0,1-1.13.68c-.12,0-.29,0-.31.2s.16.19.26.27,0,.18-.12.22-.18-.23-.33-.12,0,.23.06.35a.47.47,0,0,0,.09.17.32.32,0,0,1-.33.1A.68.68,0,0,0,79.4,78,16.15,16.15,0,0,0,81,77c.35-.23.38-.46,0-.8,0,.33-.08.6-.49.48l.3-.19c-.11-.08-.22-.15-.31-.23s0-.21,0-.19c.48.12.59-.28.82-.53s.25-.24.4-.13,0,.27,0,.35A.55.55,0,0,0,81.66,76.18Z"/><path class="cls-1" d="M87.07,67.41c0,.21,0,.41-.25.55s-.08.64.16.71.15.07.16.15-.07.1-.13.11-.22,0-.24.21a.14.14,0,0,1-.26,0c-.08-.31-.19-.43-.52-.27-.09,0-.1-.15-.06-.24s0-.27-.19-.28c-.33-.67-.33-.67.31-1,.18,0,.43,0,.41.3-.34,0-.4.28-.56.47.2.06.24.43.45.37s.06-.4.11-.6a.7.7,0,0,0,0-.25c.32.12.41-.06.31-.31a1.38,1.38,0,0,1-.2-.59h0c.3-.12.42.14.59.29S87.13,67.3,87.07,67.41Z"/><path class="cls-1" d="M1.58,26.24c0-.18.25-.24.21-.44-.19.05-.44.15-.17-.22-.37,0-.56.37-.94.32.2-.37.56-.52.81-.77a2.73,2.73,0,0,0,1.17-1c.09-.15.21-.33.44-.21.52-.06.6,0,.61.48-.2-.15-.4-.21-.57,0s-.5.36-.75.54c-.67.49-.68.47-.31,1.21,0,.11-.05.22-.18.11S1.69,26.22,1.58,26.24Z"/><path class="cls-1" d="M2.91,75.47c.33,0,.68-.2,1,.08.13.11.26.08.33-.09.17.18.43.18.62.31-.26,0-.25.12-.21.31.08.35.16,0,.24,0s.2,0,.23.07.13.4.06.51a1.39,1.39,0,0,1-.54.41c-.15.08-.21-.13-.33-.19a.61.61,0,0,1-.4-.79c-.12-.38-.42-.2-.66-.22C3.27,75.62,3,75.65,2.91,75.47Z"/><path class="cls-1" d="M.55,51.58c.43,0,.15.37.31.52s0,.28.14.34c.41.13.44.41.29.78-.35,0-.22-.38-.35-.61-.1.15-.32.19-.09.45s-.08.58-.2.86c-.29-.13-.65-.23-.41-.69-.58-.68,0-1.07.37-1.52C.63,51.69.58,51.62.55,51.58Z"/><path class="cls-1" d="M85.65,71.71c.16.08.21.56.52.13,0-.07.17.06.24.12s0,.14,0,.2-.12.18-.2.22c-.37.18-.12.33,0,.49s.08,0,.13,0c.3.08.27.47.24.54-.1.33-.19,0-.27-.06s0-.13-.06-.18a1.55,1.55,0,0,0-.51-.38c-.17.15.07.46-.25.51l.07-.24c-.21,0-.33.35-.48.14s-.11-.41.24-.46c.1,0-.06-.22-.16-.26s-.3-.28-.21-.3c.25-.07-.1-.58.35-.4C85.4,71.88,85.47,71.58,85.65,71.71Z"/><path class="cls-1" d="M23,87.52c0-.11.07-.32.23-.06s0,.28.1.44c.09,0,.19,0,.24-.08.29-.27.5-.33.54.17,0,.14.1.19.2.1s.26,0,.36-.13.48,0,.61,0,0,.24-.17.25-.18-.1-.23-.07-.67,0-.55.47a.77.77,0,0,1,0,.15c0,.15.21.36-.06.41-.1,0-.44,0-.28-.38.05-.11,0-.14-.21-.1-.5.11-.65,0-.61-.58C23.24,87.93,23.3,87.66,23,87.52Z"/><path class="cls-1" d="M65.31,13.37c.2.19.39,0,.49-.08s.34-.12.35.06c0,.62.47.25.56.17a.25.25,0,0,1,.34,0c.12.07.41-.06.34.22s-.22.17-.38.06a.38.38,0,0,0-.29,0c-.13.06-.32,0-.37.22s.26.11.27.28-.12,0-.13.06c0,.18.11.47-.29.37s-.12-.3-.08-.5a1,1,0,0,0-.32.1c-.11.07-.21.23-.33.11s-.34-.43-.29-.5S65.13,13.51,65.31,13.37Z"/><path class="cls-1" d="M65.93,86.69c.07-.15,0-.15,0-.57,0-.2.17-.22.33-.16.44.15.49-.19.44-.44s0-.23.14-.28.09-.42.33-.21-.09.23-.12.35-.39.58.06.81a.44.44,0,0,1,.2,0c.1,0,.3-.07.31.15a.24.24,0,0,1,0,.23.25.25,0,0,1-.37,0c-.23-.33-.25,0-.29.09-.21.47-.4.52-.83.21A1.62,1.62,0,0,1,65.93,86.69Z"/><path class="cls-1" d="M24.76,12.35l-.05-.12a1.25,1.25,0,0,0,.66-1l.13.23c0,.33.29.22.32.15a.59.59,0,0,1,.81-.4s.11-.06.17-.09c0,.46-.06.63-.41.76,0,0,0,0,0,0-.05.67-.63.34-.92.52S25,12.09,24.76,12.35Z"/><path class="cls-1" d="M22.82,13.17c.41-.12.25-.39.16-.67a.46.46,0,0,1,.2,0c.46.16.57,0,.52-.47,0-.25.23-.34.38-.49s.09,0,.11.07a.16.16,0,0,1,0,.23c-.25.14-.21.4-.25.62s0,.31.25.19a.75.75,0,0,0,.17.1c.12,0,.31,0,.2.24s-.19.27-.31.15c-.31-.29-.34.06-.29.15s0,.31-.11.3-.38.17-.56,0Z"/><path class="cls-1" d="M82.26,22c-.17,0-.43-.29-.39.17,0,.14-.13.16-.22.1-.27-.18-.62-.17-.86-.45s-.36-.13-.38.17a.46.46,0,0,1-.31.07l0-.38a.54.54,0,0,0-.41.4c-.17,0-.23-.18-.3-.32.33,0,.16-.25.2-.39a3.36,3.36,0,0,1,.16-.33c.07.12.22.07.34.18a4.62,4.62,0,0,0,1.32.64c.17.06.33-.13.43-.28.18.19.3,0,.39-.09s.27-.13.43-.05.23.12.2.25-.17.08-.25.11S82.28,21.69,82.26,22Z"/><path class="cls-1" d="M.8,49.55c0,.19.14.25.27.32s.37.24.08.49.12.3.18.45.25,0,.24.1.24.45.05.55-.19-.19-.27-.32,0,0-.06-.07S1,50.73.8,50.76s.08.32-.13.4c0-.07,0-.2-.15-.11s-.31.13-.36-.1.13-.28.36-.21a.49.49,0,0,0-.32-.35C0,50.33,0,50.16.07,50.1s-.06-.45.28-.37S.62,49.54.8,49.55Z"/><path class="cls-1" d="M25.68,89.17c.34-.15.7-.45,1,.08-.21.23-.43,0-.64,0,0,.21.06.3.3.3s.45,0,.47.27.27.22.37.36c-.18,0-.31.13-.46.14s-.43.31-.46-.14c0,0-.12-.1-.15-.09-.56.23-.63-.36-.93-.54a.16.16,0,0,1-.09-.21c.06-.14.16-.07.25,0S25.66,89.42,25.68,89.17Z"/><path class="cls-1" d="M68.88,15.63c.07,0,.1,0,.11.08-.24.22-.48.4-.75,0,0,0-.11-.07-.13-.06-.4.25-.52,0-.66-.32s-.45-.42-.3-.77c.36-.07.73.27,1.1-.09.12-.11.33.15.49.33-.24.16-.45,0-.67,0,.06.28.06.28.43.39-.08.05-.33,0-.21.14S68.56,15.8,68.88,15.63Z"/><path class="cls-1" d="M68.28,85.27c0-.36-.07-.85.57-.78,0,.26-.24.33-.39.57.17,0,.3.2.4,0a.57.57,0,0,1,.78-.38s.11-.06.17-.09c.08.24-.08.44-.08.67s-.15.06-.24,0,.15-.1.06-.2a.15.15,0,0,0-.25,0c-.17.21-.4.42-.2.73-.23.12-.52-.09-.73.17-.07.1-.17,0-.23-.1s0-.14,0-.2S68.48,85.46,68.28,85.27Z"/><path class="cls-1" d="M.57,31.94c.24,0,.25.2.29.36s.06.38.3.48a.24.24,0,0,1,.08.42c-.19.13-.17-.11-.22-.21S1,32.88.87,32.92L.76,33c.4.36,0,.72,0,1.08a1.29,1.29,0,0,1-.54-.9c-.13-.46.12-.73.37-1C.67,32.08.56,32,.57,31.94Z"/><path class="cls-1" d="M6.56,78c.14.09-.08.33.12.36s.22-.1.18-.28S7,78,7.05,78s.11.14.13.19c.08.34.18.59.55.23.13-.12.21,0,.32,0s.19,0,.17.14a.15.15,0,0,1-.23.11c-.2-.12-.36,0-.51.09s0,.18,0,.27c-.12.14.15.43-.14.46s-.25-.24-.25-.42c-.19,0-.32.3-.5.07s-.33-.29-.16-.57S6.43,78.19,6.56,78Z"/><path class="cls-1" d="M6.18,22.85c.31,0,.29-.14.14-.27s-.18-.17-.11-.28.25-.06.32,0c.39.26.44-.1.4-.27s.07-.27.17-.37.13-.17.24,0a.13.13,0,0,1,0,.21c-.17.11-.17.28-.19.45,0,.37.13.25.3.12,0,.2.37.15.24.37s-.22.27-.39,0c-.06-.08-.09.06-.1.1-.16.51-.32.56-.72.2C6.35,23,6.21,23,6.18,22.85Z"/><path class="cls-1" d="M49.29,96.38c.12-.09.2-.23.07-.33s-.21-.12-.15-.27.25-.07.3,0c.41.2.48,0,.43-.33,0-.17.1-.19.17-.28s.12-.19.24-.09.06.17-.05.25-.16.33-.17.5.14.18.27.1c0,.15.36.06.27.29s-.2.27-.38,0-.09,0-.11.08C49.89,96.94,49.85,96.94,49.29,96.38Z"/><path class="cls-1" d="M1.26,30.11a2.09,2.09,0,0,1-.22.2c-.05,0-.2,0-.12.13s.16.2.22.11.2-.11.28,0,0,.23-.1.29c-.28.2-.35.39,0,.52.19.06.11.21.17.32s.11.2,0,.25-.19-.06-.2-.17-.21-.29-.35-.4-.22,0-.24.12-.2.29-.37.12-.11-.24.11-.32S.48,31,.41,31c-.52-.18.05-.37,0-.55C.73,30.46.91,30.07,1.26,30.11Z"/><path class="cls-1" d="M48.68,3.75c.15,0,.35,0,.32-.21s.07-.18.17-.2.16.11.17.19c0,.4.2.51.52.25.14-.1.22,0,.33,0s.23,0,.18.17a.14.14,0,0,1-.21.08.24.24,0,0,0-.28,0c-.12.06-.3,0-.35.18s.24.1.24.27c-.21,0-.11.57-.39.27s-.22-.42-.51-.21c0-.2-.55-.14-.27-.51C48.66,4,48.65,3.85,48.68,3.75Z"/><path class="cls-1" d="M69.21,15.79c.22.07.63-.06.43.43,0,.07,0,.05.08,0s.29,0,.31-.18,0-.13,0-.2a.66.66,0,0,1,.32-.47c.17-.09.26.09.19.26s-.18.11-.17.15c0,.46-.07,1,.28,1.36-.35.12-.35-.35-.68-.38a3.09,3.09,0,0,1-1-.5C68.91,16,69.67,16.26,69.21,15.79Z"/><path class="cls-1" d="M27,10.92s0,0,0-.05c.07-.35.49.07.56-.25s-.48-.15-.41-.51c0-.1-.22-.23,0-.33s.29,0,.29.2c0,0,.07.11.12.14l1,.4a1.14,1.14,0,0,1,0,.19c-.54.1-.88.58-1.38.77C27,11.32,27.44,11,27,10.92Z"/><path class="cls-1" d="M27.21,90.2c.2.06.5,0,.45.35,0,.18.11.07.17.06s.21,0,.19-.17-.07-.18,0-.24.17-.37.31-.44.28.1.2.29-.13.08-.19.14,0,.09,0,.14c0,.35.08.71.11,1.07-.28.19-.29-.43-.59-.2-.22-.3-.66-.23-.89-.49C27,90.48,27.67,90.64,27.21,90.2Z"/><path class="cls-1" d="M.67,54.21a.27.27,0,0,1,0,.44c-.19.14-.05.2,0,.29s.19,0,.27,0,.19-.16.25-.12.45-.05.43.22-.25.08-.36.11a1.94,1.94,0,0,0-.94.74,2.07,2.07,0,0,0-.17.24,16,16,0,0,0,0-1.84C.34,54,.49,54.69.67,54.21Z"/><path class="cls-1" d="M8.32,21.72c-.13-.45-.13-.45.38-.62a.29.29,0,0,1,0,.09c0,.18-.41.24-.23.4s.27-.16.36-.27.4,0,.6-.09c.13.26.13.48-.21.56a.17.17,0,0,0-.16.16c-.13.57-.62.19-.92.33-.08,0-.1-.15,0-.22A.35.35,0,0,0,8.32,21.72Z"/><path class="cls-1" d="M3.1,23.91c-.23-.12-.35.06-.44.21a2.73,2.73,0,0,1-1.17,1c-.18-.31-.22-.54.16-.77a3.73,3.73,0,0,0,1-1c0,.12-.14.33.17.22a.28.28,0,0,1,.33.12Z"/><path class="cls-1" d="M51.2,95.26c.15-.25-.08-.78.53-.68.09.23-.25.23-.27.51.37-.17.64-.55,1.07-.44,0,.74-.35,1-1.36,1.08C50.91,95.55,51.6,95.47,51.2,95.26Z"/><path class="cls-1" d="M50.72,4.88c.26-.28.52-.35.75,0-.17.16-.32-.07-.64,0a2.24,2.24,0,0,1,1.08.77c-.39.23-.79,0-1.17,0s-.38-.44-.54-.68c-.05-.07.06-.15.16-.1S50.61,5,50.72,4.88Z"/><path class="cls-1" d="M70,84.36c0-.4.55,0,.58-.32s-.49-.16-.43-.53c0-.08-.18-.2,0-.28s.29,0,.28.17.14.2.22.22a5,5,0,0,1,.87.42l-1,.76c-.16.11-.3.11-.29-.14S70.23,84.38,70,84.36Z"/><path class="cls-1" d="M60.52,90c0-.06.09-.12.08-.18-.11-.72,0-.84.63-1.07.29-.1.3.3.54.3C61.64,89.71,61,89.68,60.52,90Z"/><path class="cls-1" d="M8.75,79.47c0,.11,0,.3.17.28.43-.07.54.27.73.52a1.06,1.06,0,0,1-1.59-.74c0-.11-.08-.14-.15-.19.29-.15.53.14.8.09Z"/><path class="cls-1" d="M1.58,26.24c.11,0,.21-.06.32,0s.16,0,.18-.11.25,0,.32,0,0,.16-.12.2c-.4.2.29.34,0,.53-.05-.07-.13-.19-.18-.14s-.38.36-.4.56-.12.56.36.54c-.26.05-.24.45-.55.34.22-.42-.82,0-.38-.57h0c.22,0,.5.19.37-.27a.87.87,0,0,1,.05-.35h0c.27,0,.21-.2.16-.36s-.11-.32-.16-.47Z"/><path class="cls-1" d="M.86,65.37c.58,0,.69.08.62.7a.58.58,0,0,0-.63.11c.41,0,.31.34.33.59L.86,67c0-.09.09-.21,0-.26s-.34.14-.33-.13a1,1,0,0,1,.28-.82,1.42,1.42,0,0,0,.36-.26C1.09,65.38.89,65.51.86,65.37Z"/><path class="cls-1" d="M46.29,57.57c0,.31-.11.56-.46.58s-.49-.24-.49-.53.13-.56.46-.57S46.26,57.28,46.29,57.57Z"/><path class="cls-1" d="M22.31,11c.37.26.34.49-.06.7-.21.11-.21.37-.36.55-.29.35-.43.29-.6,0A3.38,3.38,0,0,1,22.31,11Z"/><path class="cls-1" d="M59.6,10.3a1,1,0,0,0,.35,0c.42-.16.42-.17.54.29l.08-.05c.1-.15-.1-.52.24-.46a.51.51,0,0,1,.41.75c-.27.2-.48.26-.76-.05A3,3,0,0,0,59.6,10.3Z"/><path class="cls-1" d="M9.62,21.11c.06-.32.48-.19.51-.33s-.31-.29-.35-.53c0-.07,0-.13,0-.18a.17.17,0,0,1,.23,0c.28.53.77.53,1.27.52a11.32,11.32,0,0,0-1.4.85C9.67,21.4,10.1,21,9.62,21.11Z"/><path class="cls-1" d="M82.08,57.57c0,.31-.08.56-.44.57s-.49-.21-.49-.51.11-.56.45-.58S82.06,57.27,82.08,57.57Z"/><path class="cls-1" d="M92.78,57.61c0-.28.11-.53.44-.55s.48.2.49.51-.09.56-.43.58S92.79,58,92.78,57.61Z"/><path class="cls-1" d="M24.88,86.31c0,.32-.24.43-.39.34s-.61-.05-.9-.15-.33,0-.39-.19.21-.17.24-.32C23.93,86.07,24.47,85.89,24.88,86.31Z"/><path class="cls-1" d="M.79,34.3c.31.18-.24.3,0,.46s.31-.27.52-.11.32,0,.27.19-.13.11-.27.1c-.36,0-.52.4-.84.5C.22,35,.35,34.6.27,34.18.5,34.07.59,34.39.79,34.3Z"/><path class="cls-1" d="M10,80.38c.11.05.47-.12.56-.17s.07-.38.29-.24,0,.22-.05.32A1.49,1.49,0,0,0,11,81.41l-1.33-.64C9.61,80.51,10,80.63,10,80.38Z"/><path class="cls-1" d="M3,50.43c0-.15-.07-.22-.21-.2a.23.23,0,0,1-.24-.1,1.23,1.23,0,0,1-.09-1.24.6.6,0,0,0,.06-.19c.31.48.36,1.08.68,1.56C3.3,50.41,3.12,50.43,3,50.43Z"/><path class="cls-1" d="M52.23,5.83c.15,0,.08.23.24.19s.06-.18.08-.27a1.83,1.83,0,0,1,.18-.3c0-.07.07-.17.18-.11a.16.16,0,0,1,.08.25c-.32.44-.07.83.07,1.24A5.82,5.82,0,0,0,52,6.26a.2.2,0,0,1-.17-.16c0-.15.14-.1.22-.13S52.22,6,52.23,5.83Z"/><path class="cls-1" d="M52.75,94.46s0,0,0,0c0-.32.41.12.44-.18s-.4-.16-.36-.45c0-.08-.16-.15,0-.25s.21,0,.22,0c.12.53.69.35,1,.62L52.91,95C52.7,94.8,53,94.56,52.75,94.46Z"/><path class="cls-1" d="M37.54,96.1c.23-.12.08-.37.17-.53s0-.32.13-.23.31-.25.33.14c0,.24.5.17.7.38V96c-.24-.14-.39-.1-.42.2-.09.08-.15.23-.32.17l.1-.49c-.29.17-.53.28-.28.62C37.69,96.48,37.63,96.27,37.54,96.1Z"/><path class="cls-1" d="M49,94.45l-.07,0c.27.66-.41.87-.65,1.27,0,.06-.46-.09-.62-.3,0,0,0-.07,0-.08s0-.34.21-.26,0,.22.05.39c.28-.36.56-.69.81-1C48.84,94.37,48.89,94.35,49,94.45Z"/><path class="cls-1" d="M85.8,35.66c0-.19.21-.2.15-.31-.19-.32-.26-.51.25-.37.19,0,.14-.24.23-.34s.21-.32.4-.21.1.28,0,.4-.18.19,0,.37-.15.24-.2.2c-.3-.25-.36,0-.5.19S85.9,35.64,85.8,35.66Z"/><path class="cls-1" d="M2.72,55.93a.84.84,0,0,1-.24-1c.06-.13.09-.42-.23-.18,0,0-.1-.08-.09-.09a1.81,1.81,0,0,0,.29-.61c0-.06.25.06.34.18s.06,0,.09,0c0,.19-.38.16-.25.41A1.34,1.34,0,0,1,2.72,55.93Z"/><path class="cls-1" d="M78.29,79.75c-.13-.19-.6-.2-.3-.62s.36-.53.71,0c.1.16.19.27.39.2C79,79.77,78.5,79.5,78.29,79.75Z"/><path class="cls-1" d="M87.15,67.07c-.17-.15-.29-.41-.59-.29-.15-.25.3-.26.19-.53-.12,0-.17.26-.32.11s.07-.23.06-.36.18-.18,0-.34,0-.19.11-.2.32.06.3.14C86.79,66.13,87.25,66.56,87.15,67.07Z"/><path class="cls-1" d="M2.69,31a3.08,3.08,0,0,1-.53-.59c-.3-.54.15-.75.2-1.11,0-.11,0-.22.05-.34a.2.2,0,0,1,.11.26c-.38.63.12,1.08.31,1.6C2.88,31,2.82,31,2.69,31Z"/><path class="cls-1" d="M35.59,95.09s.4,0,0-.17a.19.19,0,0,1-.1-.31c.22-.32.52-.06.77,0s0,.25,0,.36c-.11.26-.28.5.12.65C35.94,95.74,35.82,95.32,35.59,95.09Z"/><path class="cls-1" d="M18.34,84.45a.78.78,0,0,1,.82.74,1.4,1.4,0,0,0,.1.39c-.13,0-.13-.3-.38-.08s-.34-.25-.57-.31l0,0C18.63,84.91,18.67,84.68,18.34,84.45Z"/><path class="cls-1" d="M.76,43.9c.34.23.47-.09.78-.35-.19.49.17,1.06-.56,1.18C.52,44.55.44,44.28.76,43.9Z"/><path class="cls-1" d="M.58,63.92H.76c-.12-.23,0-.4.2-.35s.37.42.41.68-.21.19-.39.17-.39-.1-.52.13C.26,64.28.5,64.12.58,63.92Z"/><path class="cls-1" d="M67.17,11.94c-.06-.06-.15-.15-.19,0-.19.46-.45.33-.75.14,0,0-.13,0-.19,0,0-.2-.44-.14-.31-.45.5-.29,1,.21,1.45.08C67.25,11.69,67.26,11.86,67.17,11.94Z"/><path class="cls-1" d="M86.47,33c.16.16.09.35.08.53l-.14-.26c0,.1-.06.19-.1.28s-.22.22-.41.12-.18-.24-.06-.39.31-.41-.15-.28c-.1,0-.19,0-.19-.15s0-.28.15-.27.46,0,.47.25S86.27,33.09,86.47,33Z"/><path class="cls-1" d="M3.1,23.91l0-.17c.27-.13.26-.13.39-.54,0-.06.18-.2.21-.07s.53-.09.41.31c0,.06-.09.1-.14.14.41.27-.13.46-.06.7l-.23.11C3.7,23.9,3.62,23.85,3.1,23.91Z"/><path class="cls-1" d="M77.47,20.74c.08,0,.24.06.26-.07s-.15,0-.19-.08-.12-.17-.1-.22.13-.2.2-.2a1.84,1.84,0,0,1,.67.09c.16.06,0,.21,0,.3a6.12,6.12,0,0,1-.31.56C77.75,21.08,77.66,20.85,77.47,20.74Z"/><path class="cls-1" d="M8.12,77.21l-.22-.1c-.18.48-.57.07-.84.19-.12,0-.59-.57-.57-.71.4.36.93.23,1.4.33C8.13,77,8.09,77.07,8.12,77.21Z"/><path class="cls-1" d="M35.38,6.2c-.07-.18-.09-.2-.14-.15s-.25.12-.34,0A.29.29,0,0,1,35,5.71c.32-.54.38-.54.73,0,.12.19.23.27.43.13C36,6.23,35.62,6.07,35.38,6.2Z"/><path class="cls-1" d="M46,98c0-.27,0-.54.39-.36s.34-.15.41-.33,0-.22.15-.21a.36.36,0,0,1,.25.16c.07.12-.07.14-.15.19-.3.21.07.22.11.34s-.13,0-.15,0A.8.8,0,0,1,46,98Z"/><path class="cls-1" d="M86.56,66.78a1.38,1.38,0,0,0,.2.59c.1.25,0,.43-.31.31h0c0-.32-.23-.26-.41-.3,0-.18-.19-.35,0-.56S86.38,66.78,86.56,66.78Z"/><path class="cls-1" d="M74.7,81.81h-.34c-.21,0-.18-.17-.15-.29s.15-.28.24-.15c.26.42.51,0,.76,0s.58,0,.63-.4c.09.3,0,.49-.32.55-.06,0-.17,0-.17.06C75.27,82.09,75,81.94,74.7,81.81Z"/><path class="cls-1" d="M.45,59.54c.21,0,.24-.12.32-.25s.18-.08.26,0a.39.39,0,0,1,.13.2.13.13,0,0,1-.12.18c-.38,0-.3.24-.32.42s-.2.46-.27.7c-.13-.27,0-.6-.22-.87-.1-.11.09-.14.22-.16C.76,59.7.38,59.61.45,59.54Z"/><path class="cls-1" d="M1.06,45.14a.8.8,0,0,1,.63.51c-.5-.1-.52.44-.82.61A.73.73,0,0,1,1.06,45.14Z"/><path class="cls-1" d="M62.26,88.24l-.26.13c-.08-.11,0-.2,0-.29s.06-.24-.06-.31-.17.07-.23.13c-.26.26-.49.24-.69-.07a.64.64,0,0,1,.52-.22c.16-.24.37-.15.56-.07s.09.25,0,.38A.31.31,0,0,0,62.26,88.24Z"/><path class="cls-1" d="M40.39,96.31l-.49-.21h-.13c-.05-.13.32-.35-.09-.4,0-.1-.06-.33.19-.22s.54,0,.3.4c.11-.09.2-.22.32-.25a.32.32,0,0,1,.41.18c0,.15-.13.23-.27.21S40.26,96.05,40.39,96.31Z"/><path class="cls-1" d="M19.17,14.6c0,.13,0,.27-.18.29a.21.21,0,0,1,0-.27.2.2,0,0,0-.06-.3c-.11-.07-.17,0-.23.12-.26.3-.48.23-.69-.06.11-.17.39-.15.42-.4.24.16.67-.13.81.31C19.19,14.38,19.1,14.47,19.17,14.6Z"/><path class="cls-1" d="M65.52,84.35l0,0c.25.46,0,.73-.35,1h-.51c0-.17.05-.27.15-.4s.53-.35.6-.7C65.38,84.24,65.49,84.27,65.52,84.35Z"/><path class="cls-1" d="M38.66,2.73c-.06.11-.23.16-.2.32l-.22.31c-.18-.08.28-.63-.3-.42-.35-.19,0-.37.07-.43.23-.23.07.31.34.16-.14-.32-.13-.61.3-.71C38.93,2.22,38.4,2.48,38.66,2.73Z"/><path class="cls-1" d="M80.24,76.6c0,.15-.49.19-.09.41-.13.14-.32.1-.48.17-.17-.43-.44-.08-.67-.08h-.2A1.49,1.49,0,0,1,80.24,76.6Z"/><path class="cls-1" d="M85.54,30.22s.29.13.17-.14c-.06-.12,0-.18.12-.23a.18.18,0,0,1,.23,0,1.36,1.36,0,0,1,.28.61c0,.08-.1.14-.18.14s-.51.11-.63-.23C85.51,30.35,85.39,30.28,85.54,30.22Z"/><path class="cls-1" d="M24.26,10c0,.19.09.41-.08.59-.3.33-.58.19-.84-.08A1.52,1.52,0,0,1,24.26,10Z"/><path class="cls-1" d="M37.21,4.89l-.3-.19c.29-.1.37-.43.65-.54l.38.22c-.07,0-.27-.06-.2.17s.19.3-.05.41A.36.36,0,0,1,37.21,4.89Z"/><path class="cls-1" d="M87.89,72.5c0-.12,0-.17-.16-.19-.46-.07-.52-.22-.25-.6,0-.15,0-.3-.07-.45s0,0,0,0c.19,0,.24.14.3.28.13.29.06.64.31.89C88.11,72.45,88,72.52,87.89,72.5Z"/><path class="cls-1" d="M39.08,95.16l-.23-.07c-.19,0,.09.35-.14.18-.06,0-.44-.15-.25-.49s-.37-.22-.34-.5c.45-.07.63.38,1,.51C39.25,94.85,39,95,39.08,95.16Z"/><path class="cls-1" d="M72.15,17.58c.15,0,.11.24.3.3,0-.26.08-.47.34-.42s.29.22,0,.37c.13.17.34.28.35.54-.28,0-.42-.33-.77-.27C72.27,18.12,72.1,17.83,72.15,17.58Z"/><path class="cls-1" d="M.64,57.48c0,.14-.05.28.16.36s.35.16.27.35-.3.18-.49.12C.16,58,.17,57.9.64,57.48Z"/><path class="cls-1" d="M81.06,20.9c-.1,0-.14-.13-.27-.11s0,.32-.13.17-.46-.14-.25-.48-.35-.2-.3-.47A1,1,0,0,1,81.06,20.9Z"/><path class="cls-1" d="M20.66,85.16c-.1-.06-.38.13-.28-.21,0-.08-.05-.13-.16-.13-.48,0-.46-.34-.46-.67a1.17,1.17,0,0,1,.59.29C20.42,84.7,20.7,84.86,20.66,85.16Z"/><path class="cls-1" d="M87.25,33.06c-.16-.23-.64-.46.06-.65.13,0,.14-.5.2-.77a3.5,3.5,0,0,1,0,1.29C87.56,33.14,87.38,33.07,87.25,33.06Z"/><path class="cls-1" d="M43.44,99c.05,0,.24,0,.13-.18s-.27-.08-.28-.28a.28.28,0,0,1,.38,0c.2.3.52.34.81.45-.13.26-.39.18-.6.18A1.39,1.39,0,0,1,43.44,99Z"/><path class="cls-1" d="M1.68,45.64c.16,0,.36,0,.24-.29s.05-.54.38-.62l.1.6c-.22,0-.14.26-.26.39C1.89,46,1.79,45.92,1.68,45.64Z"/><path class="cls-1" d="M58.78,9.79s.18,0,.14-.08c-.22-.36-.13-.42.27-.38s.45.13.24.45c-.08.11-.26.26,0,.42C59.07,10.24,59,9.89,58.78,9.79Z"/><path class="cls-1" d="M56.54,92.63c.05-.23,0-.35-.28-.33a.12.12,0,0,1-.13-.16c0-.1.14-.24.19-.19.33.35.65,0,1,0a.7.7,0,0,1,.14,0Z"/><path class="cls-1" d="M.56,38.6h.1c.16,0,.19-.48.44-.21s-.15.27-.23.4-.12.59-.32.84c0-.24,0-.5-.18-.72S.51,38.71.56,38.6Z"/><path class="cls-1" d="M.68,42.25s.14,0,.15,0,0-.39.25-.27a.54.54,0,0,1,.26.51c0,.2-.2.15-.35.15s-.38,0-.36.26C.36,42.66.54,42.46.68,42.25Z"/><path class="cls-1" d="M85.35,25.31c.15,0,.21.2.39.18s.36,0,.35.25-.26.18-.42.19C85.13,25.78,85.07,25.67,85.35,25.31Z"/><path class="cls-1" d="M85.75,74.64c-.25-.25-.26.22-.55.17s-.23-.19-.17-.36a.26.26,0,0,0,.16-.23c0-.38.2-.18.35-.08l.21.38Z"/><path class="cls-1" d="M49.88,2.35a1.13,1.13,0,0,1-1.13.18c-.09,0-.18-.08-.15-.16s.12-.05.21,0c.31,0,0-.14,0-.19C49.21,2.19,49.58,2.07,49.88,2.35Z"/><path class="cls-1" d="M1.58,26.23c0,.15.11.31.16.47s.11.33-.16.36c-.09-.13-.12-.36-.37-.22C1,26.3,1.05,26.19,1.58,26.23Z"/><path class="cls-1" d="M59.68,90.46s-.09-.1-.1-.1-.29.21-.35,0,.17-.35.3-.48.21,0,.29.13.14.36.39.31C60.1,90.53,59.9,90.52,59.68,90.46Z"/><path class="cls-1" d="M85.63,31.54c.19.17.47,0,.67.19-.12.31-.59.27-.66.64A.56.56,0,0,1,85.63,31.54Z"/><path class="cls-1" d="M13.53,18.88c-.11,0-.23,0-.34-.05a.13.13,0,0,1-.06-.21c0-.07.12-.18.19-.12.39.37.76-.11,1.13,0-.11.22-.38.26-.51.5S13.74,18.65,13.53,18.88Z"/><path class="cls-1" d="M39.27,2.23c.29.48.53,0,.83,0,0,.29-.4.45-.3.78,0,0-.14.07-.22,0s-.28,0-.22-.19,0-.29-.19-.36Z"/><path class="cls-1" d="M46.22.91c.11.1.3.16.21.44-.28-.27-.92-.05-.84-.74C45.94.42,46,.8,46.22.91Z"/><path class="cls-1" d="M45.51.58c-.11.15-.11.37-.44.2s-.61-.15-.9-.28c.1,0,.23,0,.29,0C44.87.1,45.18.39,45.51.58Z"/><path class="cls-1" d="M1.21,26.84c.25-.14.28.09.37.22h0c-.27-.14-.36.09-.51.23s.2.23.09.39h0l-.29-.11C.56,26.92.56,26.92,1.21,26.84Z"/><path class="cls-1" d="M29.56,89.27c-.51.33-.62-.28-.93-.4.27-.39.37-.39.55.06C29.26,89.13,29.66,88.92,29.56,89.27Z"/><path class="cls-1" d="M64.63,85.38h.51a.86.86,0,0,1-.55.62c-.27.12-.08-.32-.3-.32C64.38,85.55,64.45,85.4,64.63,85.38Z"/><path class="cls-1" d="M27.4,8.45a.85.85,0,0,1-.8.62c-.05-.12-.29-.11-.2-.3a.24.24,0,0,1,.29-.14C27,8.72,27.1,8.24,27.4,8.45Z"/><path class="cls-1" d="M50.4,93.75c.08.38,0,.63-.47.6-.13,0-.13.15-.23.12s-.35-.35.13-.39C50,94.07,50.1,93.69,50.4,93.75Z"/><path class="cls-1" d="M71.65,14.9c-.47.24-.68-.13-.93-.4.08-.28.27-.42.43-.12S71.63,14.6,71.65,14.9Z"/><path class="cls-1" d="M20.28,85.68l.12.5c-.26-.08-.6.08-.78-.25,0-.09-.09-.18,0-.25.06.09.16.17.2,0s.19-.17.34-.16Z"/><path class="cls-1" d="M11.8,79.55c-.21,0-.43.18-.58-.13,0-.08-.19-.32-.37,0-.08.14-.1-.19-.18-.28s.14,0,.19,0c.3-.18.51-.17.68.18C11.57,79.39,11.8,79.36,11.8,79.55Z"/><path class="cls-1" d="M9.44,78c-.39.19-.75.24-.91-.3,0-.09-.12-.31.06-.2S9.29,77.65,9.44,78Z"/><path class="cls-1" d="M82.36,76c-.24-.09-.31.44-.6.17.23-.21,0-.64.41-.79.08.18.12.42.4.4C82.64,76,82.38,75.87,82.36,76Z"/><path class="cls-1" d="M54.29,5c-.43,0-.87.12-1.13-.37,0-.19.15-.37.31-.16S54,4.79,54.29,5Z"/><path class="cls-1" d="M62.35,88.74c-.05-.09.52-.17,0-.27-.13,0-.11-.14-.11-.24.17-.1.39.09.57-.14s.12.13.15.23C62.81,88.54,62.83,89,62.35,88.74Z"/><path class="cls-1" d="M3.25,75.87c.24,0,.54-.16.66.22-.17.08-.3.3-.52.22S3,76.1,3.25,75.87Z"/><path class="cls-1" d="M38.44,96.21c0-.3.18-.34.42-.2.08.14.21.28.07.44a.32.32,0,0,1-.31.12C38.41,96.52,38.51,96.32,38.44,96.21Z"/><path class="cls-1" d="M61.85,11.42H62c.25,0-.15-.46.24-.4.2,0,.05.42.38.35,0,0-.13.14-.12.25C62.24,11.61,61.93,11.84,61.85,11.42Z"/><path class="cls-1" d="M43.14.69c0-.21.08-.34.19-.48.09,0,.18.05.25-.06a.16.16,0,0,1,.25,0c.11.11,0,.2-.07.29-.32.1,0,.21,0,.31C43.55.63,43.34.81,43.14.69Z"/><path class="cls-1" d="M.86,67l.32-.22c.38.1.17.32.09.49a.24.24,0,0,1-.37.11C.67,67.25.73,67.13.86,67Z"/><path class="cls-1" d="M41.69,96.46c-.24.07-.33.53-.66.27-.15-.12-.06-.31,0-.41C41.32,96,41.46,96.43,41.69,96.46Z"/><path class="cls-1" d="M86.38,34c0,.28-.42.13-.46.39-.12,0-.17-.1-.2-.24,0-.31.2-.32.36-.38S86.27,34,86.38,34Z"/><path class="cls-1" d="M85.63,26a.9.9,0,0,1-.2.82.8.8,0,0,0-.11-.35C84.93,26,85.22,26,85.63,26Z"/><path class="cls-1" d="M37.94,4.38l-.38-.22c-.05-.34.21-.28.39-.29s.26.06.26.19S38.22,4.44,37.94,4.38Z"/><path class="cls-1" d="M83.59,22.23c-.22.08-.31.49-.62.25s0-.36.08-.44S83.4,22.15,83.59,22.23Z"/><path class="cls-1" d="M1.77,69.45c.11-.24.33-.19.52-.2.14.16,0,.37.1.58C2.12,69.73,1.86,69.75,1.77,69.45Z"/><path class="cls-1" d="M39.43,96.58c-.14.11.33.4-.11.38-.17,0-.29-.14-.26-.39s.12-.26.28-.25S39.57,96.45,39.43,96.58Z"/><path class="cls-1" d="M1.37,67.83c-.08.21-.45,0-.46.31-.16,0-.15-.18-.17-.31-.06-.34.25-.22.37-.28S1.3,67.7,1.37,67.83Z"/><path class="cls-1" d="M65.73,11.62c-.13.31.29.25.31.45-.15.14-.28,0-.42,0s-.32,0-.37-.19.22-.17.27-.31S65.7,11.5,65.73,11.62Z"/><path class="cls-1" d="M.66,43.2a.8.8,0,0,1,.13.13c.11.17.45-.07.43.22s-.28.27-.46.35C.58,43.69.67,43.44.66,43.2Z"/><path class="cls-1" d="M17.82,84.87l.39-.4c.21.19.07.46.14.68l0,0C18.11,85.14,17.89,85.11,17.82,84.87Z"/><path class="cls-1" d="M20.66,85.16c0-.3-.24-.46-.31-.72.39-.27.39,0,.44.3S21,85.12,20.66,85.16Z"/><path class="cls-1" d="M74.1,18.58c.14.09.34.12.39.32-.14.25-.39.32-.57.16S74.07,18.76,74.1,18.58Z"/><path class="cls-1" d="M60.94,87.84c.1.19-.29.29-.09.51s-.08.13-.1.1c-.28-.29-.56,0-.83,0A8.16,8.16,0,0,1,60.94,87.84Z"/><path class="cls-1" d="M68.69,13.46c.11-.21.16-.38-.2-.3,0-.25-.35-.18-.36-.42.37-.23.47.21.72.3s.08.23,0,.36S68.77,13.5,68.69,13.46Z"/><path class="cls-1" d="M38.87,3.77a.28.28,0,0,1-.25.31.39.39,0,0,1-.38-.31c0-.12.1-.29.18-.25S38.68,3.77,38.87,3.77Z"/><path class="cls-1" d="M2.3,44.73c-.24-.3-.45-.6,0-.93C2.48,44.1,2.32,44.42,2.3,44.73Z"/><path class="cls-1" d="M82.57,75.77c-.28,0-.32-.22-.4-.4l.5-.24C82.55,75.36,82.8,75.57,82.57,75.77Z"/><path class="cls-1" d="M30.19,92c.17,0,.09.25.24.27s-.14-.47.26-.35l-.13.63C30.34,92.42,30,92.39,30.19,92Z"/><path class="cls-1" d="M69.1,85.79c-.2-.31,0-.52.2-.73a.15.15,0,0,1,.25,0c.09.1,0,.14-.06.2C69.06,85.22,69.37,85.72,69.1,85.79Z"/><path class="cls-1" d="M48.86,2.14c-.4.12-.18-.36-.4-.41.19-.14.42,0,.53.08C49.32,2,48.84,2,48.86,2.14Z"/><path class="cls-1" d="M21.08,86.64c-.4-.66.34-.12.35-.33C21.37,86.82,21.37,86.82,21.08,86.64Z"/><path class="cls-1" d="M80.54,78.42a.47.47,0,0,1-.09-.17c0-.12-.22-.22-.06-.35s.19.18.33.12C80.82,78.23,80.85,78.41,80.54,78.42Z"/><path class="cls-1" d="M19.47,84.12c-.17,0-.07.27-.23.22s-.06-.19-.08-.29-.15-.2-.23-.29C19.27,83.65,19.37,83.89,19.47,84.12Z"/><path class="cls-1" d="M83.07,75.26c.1.38.13.73-.4.8Z"/><path class="cls-1" d="M37.94,96.51c-.25-.34,0-.45.28-.62l-.1.49C38,96.35,38.08,96.59,37.94,96.51Z"/><path class="cls-1" d="M75.84,20.1c.24,0,.48-.13.72,0l.19.29C76.45,20.26,76.12,20.24,75.84,20.1Z"/><path class="cls-1" d="M79.72,22.05a.54.54,0,0,1,.41-.4l0,.38C80,22.16,79.86,22.26,79.72,22.05Z"/><path class="cls-1" d="M86.17,71.09c0,.35-.31.12-.47.16s-.11-.12,0-.18.32-.11.48,0Z"/><path class="cls-1" d="M17.81,14.58c0,.25,0,.25-.6.31C17.28,14.55,17.59,14.66,17.81,14.58Z"/><path class="cls-1" d="M67.26,83.53v.12c-.15.14-.27.35-.53.28C66.76,83.61,67,83.52,67.26,83.53Z"/><path class="cls-1" d="M76.76,20.11c.16,0,.33.21.5.51C76.87,20.67,76.89,20.31,76.76,20.11Z"/><path class="cls-1" d="M34.57,6.52l.81-.32C35.17,6.46,35,6.75,34.57,6.52Z"/><path class="cls-1" d="M30.81,92.23a.63.63,0,0,1,.4.5C31,92.64,30.65,92.62,30.81,92.23Z"/><path class="cls-1" d="M18.37,15.45a.18.18,0,0,1,0,.09c0,.15.27.24.14.43a.13.13,0,0,1-.22,0,.36.36,0,0,1,.05-.51Z"/><path class="cls-1" d="M82.68,22.35c-.19,0-.48.06-.4-.31.13-.06,0,.27.19.12s.11-.2.21-.12S82.7,22.25,82.68,22.35Z"/><path class="cls-1" d="M87.48,72.91s-.12-.1-.11-.14.11-.08.16,0,.27.13.28-.12c.07,0,.16.1.11.19S87.64,72.91,87.48,72.91Z"/><path class="cls-1" d="M57.43,92a1.21,1.21,0,0,1,.07-.33c0-.1.17-.21.28-.15s-.07.19,0,.3Z"/><path class="cls-1" d="M26.64,87.36a.38.38,0,0,1-.55-.13s0-.11.05-.11a.39.39,0,0,1,.49.26Z"/><path class="cls-1" d="M25.38,87c-.11,0-.3,0-.32-.05s.06-.22.18-.3,0-.11,0-.17c.23,0,.12.21.07.26S25.35,86.93,25.38,87Z"/><path class="cls-1" d="M87.47,70.58c.26-.2,0-.42,0-.63a.48.48,0,0,1,.25.51C87.73,70.65,87.67,70.78,87.47,70.58Z"/><path class="cls-1" d="M40.69,96.8c.08-.26-.25-.15-.29-.3.2.08.16-.39.36-.18A.33.33,0,0,1,40.69,96.8Z"/><path class="cls-1" d="M36.92,5h.31l-.45.48C36.59,5.21,37,5.2,36.92,5Z"/><path class="cls-1" d="M2.82,56.86c-.6-.18-.17-.4,0-.61C2.85,56.45,2.55,56.67,2.82,56.86Z"/><path class="cls-1" d="M87.94,71c0,.08-.07.1-.15.09a.16.16,0,0,1-.16-.16c0-.11.07-.14.17-.12A.18.18,0,0,1,87.94,71Z"/><path class="cls-1" d="M68.88,15.63c-.32.17-.46-.15-.59-.3s.13-.09.21-.14C68.82,15.17,68.78,15.46,68.88,15.63Z"/><path class="cls-1" d="M25.5,11.44l-.13-.23a.2.2,0,0,1,.34-.07C25.83,11.33,25.56,11.33,25.5,11.44Z"/><path class="cls-1" d="M19.5,14.36c.26-.11.21-.48.51-.4.1,0,.08.22,0,.32C19.94,14.55,19.75,14.49,19.5,14.36Z"/><path class="cls-1" d="M19.17,14.6c-.07-.13,0-.22.08-.31l.31.1C19.53,14.64,19.41,14.73,19.17,14.6Z"/><path class="cls-1" d="M20.28,85.68l-.1-.13c.05-.27.21-.32.43-.2s.31.23.21.33S20.46,85.78,20.28,85.68Z"/><path class="cls-1" d="M18.35,85.15c-.07-.22.07-.49-.14-.68l.13,0C18.67,84.68,18.63,84.91,18.35,85.15Z"/><path class="cls-1" d="M8.71,79.43c.27-.37.42-.11.61.1-.23.18-.38-.09-.57-.06Z"/><path class="cls-1" d="M85.75,74.64v-.12c.47.06.64.3.41.75C85.79,75.21,86.1,74.71,85.75,74.64Z"/><path class="cls-1" d="M86.45,67.68a.7.7,0,0,1,0,.25c0,.2.17.51-.11.6s-.25-.31-.45-.37c.16-.19.22-.5.56-.47Z"/><path class="cls-1" d="M1.17,27.67c.11-.16-.32-.19-.09-.39s.24-.37.51-.23a.87.87,0,0,0-.05.35C1.67,27.86,1.39,27.72,1.17,27.67Z"/></g></g></svg>