<svg xmlns="http://www.w3.org/2000/svg" viewBox="0 0 359.34 139.42"><defs><style>.cls-1{font-size:95.43px;font-family:DINCondensed-Bold, DIN Condensed;font-weight:700;}.cls-1,.cls-2{fill:#fff;}</style></defs><title>Asset 1</title><g id="Layer_2" data-name="Layer 2"><g id="Layer_1-2" data-name="Layer 1"><text class="cls-1" transform="translate(132.71 109.65)">TOP-UP</text><path class="cls-2" d="M90.5,88.85c-6.79,0-14-2.1-14-6a1,1,0,0,1,2,0c0,1.66,4.56,4,12,4s12-2.33,12-4a1,1,0,1,1,2,0C104.48,86.75,97.28,88.85,90.5,88.85Z"/><path class="cls-2" d="M90.5,82.86c-6.79,0-14-2.11-14-6a1,1,0,0,1,2,0c0,1.67,4.56,4,12,4s12-2.33,12-4a1,1,0,1,1,2,0C104.48,80.75,97.28,82.86,90.5,82.86Z"/><path class="cls-2" d="M90.5,76.86c-6.79,0-14-2.1-14-6s7.2-6,14-6,14,2.1,14,6S97.28,76.86,90.5,76.86Zm0-10c-7.43,0-12,2.33-12,4s4.56,4,12,4,12-2.32,12-4S97.93,66.87,90.5,66.87Z"/><path class="cls-2" d="M103.48,83.86a1,1,0,0,1-1-1v-12a1,1,0,1,1,2,0v12A1,1,0,0,1,103.48,83.86Z"/><path class="cls-2" d="M77.51,83.86a1,1,0,0,1-1-1v-12a1,1,0,0,1,2,0v12A1,1,0,0,1,77.51,83.86Z"/><path class="cls-2" d="M70.51,64.87c-6.78,0-14-2.1-14-6a1,1,0,1,1,2,0c0,1.67,4.56,4,12,4s12-2.32,12-4a1,1,0,1,1,2,0C84.5,62.77,77.3,64.87,70.51,64.87Z"/><path class="cls-2" d="M70.51,58.88c-6.78,0-14-2.1-14-6a1,1,0,1,1,2,0c0,1.67,4.56,4,12,4s12-2.33,12-4a1,1,0,1,1,2,0C84.5,56.78,77.3,58.88,70.51,58.88Z"/><path class="cls-2" d="M70.51,76.86c-6.78,0-14-2.1-14-6a1,1,0,0,1,2,0c0,1.67,4.56,4,12,4a28,28,0,0,0,2.9-.13,1,1,0,0,1,.21,2,29.24,29.24,0,0,1-3.11.14Z"/><path class="cls-2" d="M70.51,82.86c-6.78,0-14-2.11-14-6a1,1,0,1,1,2,0c0,1.67,4.56,4,12,4a27.75,27.75,0,0,0,2.9-.14,1,1,0,0,1,.21,2,29.06,29.06,0,0,1-3.11.15Z"/><path class="cls-2" d="M70.51,70.87c-6.78,0-14-2.11-14-6a1,1,0,0,1,2,0c0,1.67,4.56,4,12,4a27.75,27.75,0,0,0,2.9-.14,1,1,0,0,1,.21,2,29.06,29.06,0,0,1-3.11.15Z"/><path class="cls-2" d="M70.51,52.88c-6.78,0-14-2.1-14-6s7.2-6,14-6,14,2.11,14,6S77.3,52.88,70.51,52.88Zm0-10c-7.42,0-12,2.33-12,4s4.56,4,12,4,12-2.33,12-4S77.94,42.89,70.51,42.89Z"/><path class="cls-2" d="M57.53,77.86a1,1,0,0,1-1-1v-30a1,1,0,0,1,2,0v30A1,1,0,0,1,57.53,77.86Z"/><path class="cls-2" d="M83.5,59.88a1,1,0,0,1-1-1v-12a1,1,0,1,1,2,0v12A1,1,0,0,1,83.5,59.88Z"/><path class="cls-2" d="M72.65,41.88a3.6,3.6,0,0,1,2.49.9,4,4,0,0,1,1.3-.22l.18,0V8.91A8.93,8.93,0,0,0,67.72,0H8.91A8.92,8.92,0,0,0,0,8.91V123a8.93,8.93,0,0,0,8.91,8.92H67.72a8.93,8.93,0,0,0,8.9-8.92V84.15h-6.2v31.27H6.19V14.12H70.42V42.56A3.72,3.72,0,0,1,72.65,41.88ZM38.31,118.54A4.46,4.46,0,1,1,33.85,123,4.46,4.46,0,0,1,38.31,118.54Zm9.41-110H28.9a1.08,1.08,0,1,1,0-2.16H47.72a1.08,1.08,0,0,1,0,2.16Z"/></g></g></svg>