<svg xmlns="http://www.w3.org/2000/svg" viewBox="0 0 418.51 132.16"><defs><style>.cls-1{font-size:95.43px;font-family:DINCondensed-Bold, DIN Condensed;font-weight:700;}.cls-1,.cls-2{fill:#fff;}</style></defs><title>Asset 3</title><g id="Layer_2" data-name="Layer 2"><g id="Layer_1-2" data-name="Layer 1"><text class="cls-1" transform="translate(143.97 102.38)">ROAMING</text><path class="cls-2" d="M75.71,51.05V8.8A8.83,8.83,0,0,0,66.91,0H8.8A8.83,8.83,0,0,0,0,8.8V121.53a8.83,8.83,0,0,0,8.8,8.81H66.91a8.82,8.82,0,0,0,8.8-8.8V82.31H69.59v31.74H6.12V14H69.59V54.62ZM37.85,117.13a4.41,4.41,0,1,1-4.4,4.4A4.4,4.4,0,0,1,37.85,117.13ZM47.15,8.48H28.56a1.07,1.07,0,1,1,0-2.13H47.15a1.07,1.07,0,0,1,0,2.13Z"/><path class="cls-2" d="M48.06,70.09h0a1.52,1.52,0,0,0,1.18,2.79l21.24-7.07-4,6.49A1.22,1.22,0,0,0,68.11,74l4.17-2.16a2.43,2.43,0,0,0,.32-.24L84.93,58.74l15.22-7.94c5.77-3.11,5.1-5.5,4.76-6.16a3.24,3.24,0,0,0-2.17-1.55,12.86,12.86,0,0,0-5.52.09,6.79,6.79,0,0,1-1.69.11c-1.63,0-2.74.07-8.23,2.92l-30,15.6-11.64-6a1.51,1.51,0,0,0-1.4,0l-2,1a1.51,1.51,0,0,0-.78,1,1.49,1.49,0,0,0,.3,1.27l8.08,10.06Z"/><path class="cls-2" d="M106.23,85.2a2.9,2.9,0,0,1-2.89,2.9H46.51a2.9,2.9,0,0,1,0-5.79h56.83A2.9,2.9,0,0,1,106.23,85.2Z"/></g></g></svg>