<?xml version="1.0" encoding="utf-8"?>
<!-- Generator: Adobe Illustrator 23.1.0, SVG Export Plug-In . SVG Version: 6.00 Build 0)  -->
<svg version="1.1" id="Layer_1" xmlns="http://www.w3.org/2000/svg" xmlns:xlink="http://www.w3.org/1999/xlink" x="0px" y="0px"
	 viewBox="0 0 479 479" style="enable-background:new 0 0 479 479;" xml:space="preserve">
<style type="text/css">
	.st0{fill:url(#SVGID_1_);}
	.st1{fill:url(#SVGID_2_);}
	.st2{fill:url(#SVGID_3_);}
	.st3{fill:url(#SVGID_4_);}
	.st4{fill:url(#SVGID_5_);}
</style>
<linearGradient id="SVGID_1_" gradientUnits="userSpaceOnUse" x1="245.118" y1="-198.3848" x2="245.118" y2="153.5132" gradientTransform="matrix(0.998 0 0 0.998 -4.033148e-02 280.4757)">
	<stop  offset="0" style="stop-color:#AA0071"/>
	<stop  offset="0.4693" style="stop-color:#E900D7"/>
	<stop  offset="1" style="stop-color:#EC7FFF"/>
</linearGradient>
<path class="st0" d="M415.4,244.3c0.1-0.2,0.2-0.4,0.3-0.6c0.6-1.3,0.6-2.8,0-4.1c-0.1-0.2-0.2-0.4-0.3-0.6
	c-0.2-0.4-0.5-0.8-0.8-1.1c-0.2-0.2-0.3-0.3-0.5-0.5c-0.3-0.3-0.7-0.5-1.1-0.8c-0.2-0.1-0.4-0.2-0.6-0.3c-0.1-0.1-0.2-0.1-0.3-0.1
	L314,205l27-52.3c0-0.1,0-0.2,0.1-0.2c0.1-0.1,0.1-0.3,0.2-0.5c0.1-0.3,0.1-0.6,0.2-0.9c0.1-0.3,0.1-0.6,0.2-0.8c0-0.2,0-0.3,0-0.4
	c0-0.3-0.1-0.6-0.2-0.8c0-0.3-0.1-0.6-0.2-0.9c-0.1-0.2-0.1-0.3-0.2-0.5c0-0.1,0-0.2-0.1-0.2c-0.1-0.2-0.2-0.3-0.4-0.5
	c-0.2-0.3-0.3-0.5-0.5-0.8c-0.1-0.1-0.1-0.2-0.1-0.2c-0.1-0.1-0.1-0.1-0.2-0.1c-0.2-0.2-0.5-0.4-0.7-0.5s-0.3-0.3-0.5-0.4
	c-0.1,0-0.2,0-0.3-0.1c-0.1-0.1-0.3-0.1-0.4-0.2c-0.3-0.1-0.6-0.2-0.9-0.2c-0.3-0.1-0.5-0.1-0.8-0.1c-0.1,0-0.3,0-0.4,0
	c-0.3,0-0.6,0.1-0.9,0.2c-0.3,0-0.6,0.1-0.8,0.2c-0.2,0.1-0.3,0.1-0.5,0.2c-0.1,0.1-0.2,0-0.3,0.1l-52.3,27L249.9,74
	c0-0.1-0.1-0.2-0.1-0.3c-0.1-0.2-0.2-0.4-0.3-0.6c-0.2-0.4-0.4-0.8-0.7-1.1c-0.2-0.2-0.3-0.4-0.5-0.5c-0.3-0.3-0.7-0.6-1.1-0.8
	c-0.2-0.1-0.4-0.2-0.6-0.3c-1.3-0.5-2.8-0.5-4.1,0c-0.2,0.1-0.4,0.2-0.6,0.3c-0.4,0.2-0.8,0.5-1.1,0.8c-0.2,0.2-0.4,0.3-0.5,0.5
	c-0.3,0.3-0.5,0.7-0.7,1.1c-0.1,0.2-0.2,0.4-0.3,0.6c-0.1,0.1-0.1,0.2-0.1,0.3L208,172.1l-52.3-27c-0.1,0-0.2,0-0.3-0.1
	s-0.3-0.1-0.4-0.2c-0.6-0.1-1.1-0.2-1.7-0.3c-0.2,0-0.3,0-0.4,0c-0.6,0.1-1.1,0.2-1.7,0.3c-0.2,0.1-0.3,0.1-0.5,0.2
	c-0.1,0.1-0.2,0-0.3,0.1c-0.2,0.1-0.3,0.3-0.5,0.4c-0.3,0.1-0.5,0.3-0.7,0.5c-0.1,0.1-0.2,0.1-0.2,0.1c-0.1,0.1-0.1,0.1-0.1,0.2
	c-0.2,0.2-0.4,0.5-0.5,0.8c-0.1,0.1-0.2,0.3-0.4,0.5c0,0.1,0,0.2-0.1,0.2c-0.1,0.1-0.1,0.3-0.2,0.5c-0.1,0.3-0.2,0.6-0.2,0.9
	c-0.1,0.3-0.1,0.6-0.1,0.8v0.4c0,0.3,0.1,0.6,0.1,0.8c0,0.3,0.1,0.6,0.2,0.9c0.1,0.2,0.1,0.3,0.2,0.5c0,0.1,0,0.2,0.1,0.2l27,52.3
	l-98,31.2c-0.1,0-0.2,0.1-0.3,0.1c-0.2,0.1-0.4,0.2-0.6,0.3c-0.4,0.2-0.8,0.5-1.1,0.8c-0.2,0.2-0.3,0.3-0.5,0.5
	c-0.3,0.3-0.6,0.7-0.8,1.1c-0.1,0.2-0.2,0.4-0.3,0.6c-0.5,1.3-0.5,2.8,0,4.1c0.1,0.2,0.2,0.4,0.3,0.6c0.2,0.4,0.5,0.8,0.8,1.1
	c0.2,0.2,0.3,0.3,0.5,0.5c0.3,0.3,0.7,0.6,1.1,0.8c0.2,0.1,0.4,0.2,0.6,0.3c0.1,0,0.2,0.1,0.3,0.1l98.1,31.2l-27,52.3
	c0,0.1,0,0.2-0.1,0.2c-0.1,0.1-0.1,0.3-0.2,0.5c-0.1,0.3-0.1,0.6-0.2,0.9c-0.1,0.3-0.1,0.6-0.2,0.8v0.4c0,0.3,0.1,0.6,0.2,0.8
	c0,0.3,0.1,0.6,0.2,0.9c0.1,0.2,0.1,0.3,0.2,0.5c0,0.1,0,0.2,0.1,0.2c0.1,0.2,0.3,0.5,0.5,0.7c0.1,0.1,0.2,0.3,0.3,0.4
	s0.1,0.2,0.2,0.2l0,0c0.1,0.1,0.1,0.1,0.2,0.1c0.3,0.3,0.7,0.6,1.1,0.8l0.1,0.1c0,0,0.2,0.1,0.3,0.1s0.3,0.1,0.4,0.1h0.1
	c0.1,0.1,0.3,0.1,0.4,0.2c0.5,0.1,0.9,0.2,1.4,0.2s1-0.1,1.4-0.2c0.1,0,0.3-0.1,0.4-0.2l0,0c0.1,0,0.3-0.1,0.4-0.1
	c0.1-0.1,0.2-0.1,0.3-0.1l52.3-27l31.2,98c0,0.1,0.1,0.2,0.1,0.3c0.1,0.2,0.2,0.4,0.3,0.6c0.2,0.4,0.4,0.8,0.7,1.1
	c0.2,0.2,0.3,0.4,0.5,0.5c0.3,0.3,0.7,0.6,1.1,0.8c0.2,0.1,0.4,0.2,0.6,0.3c1.3,0.6,2.8,0.6,4.1,0c0.2-0.1,0.4-0.2,0.6-0.3
	c0.4-0.2,0.8-0.5,1.1-0.8c0.2-0.2,0.4-0.3,0.5-0.5c0.3-0.3,0.5-0.7,0.7-1.1c0.1-0.2,0.2-0.4,0.3-0.6c0.1-0.1,0.1-0.2,0.1-0.3
	l31.2-98.1l52.3,27c0.1,0.1,0.2,0.1,0.3,0.1c0.1,0,0.3,0.1,0.4,0.1h0.1c0.1,0.1,0.3,0.1,0.4,0.2c0.5,0.1,0.9,0.2,1.4,0.2
	s1-0.1,1.4-0.2c0.1,0,0.3-0.1,0.4-0.2l0,0c0.1,0,0.3-0.1,0.4-0.1c0.1-0.1,0.2-0.1,0.3-0.1c0.1-0.1,0.1-0.1,0.1-0.1
	c0.4-0.2,0.8-0.5,1.1-0.8c0.1,0,0.1-0.1,0.2-0.1l0,0c0.1-0.1,0.1-0.2,0.2-0.2c0.1-0.1,0.2-0.3,0.3-0.4c0.2-0.2,0.4-0.5,0.5-0.7
	c0-0.1,0-0.2,0.1-0.2c0.1-0.1,0.1-0.3,0.2-0.5c0.1-0.3,0.1-0.6,0.2-0.9s0.1-0.6,0.2-0.8c0-0.1,0-0.3,0-0.4c0-0.3-0.1-0.6-0.2-0.8
	c0-0.3-0.1-0.6-0.2-0.9c-0.1-0.2-0.1-0.3-0.2-0.5c0-0.1,0-0.2-0.1-0.2l-27-52.3l98.1-31.2c0.1,0,0.2-0.1,0.3-0.1
	c0.2-0.1,0.4-0.2,0.6-0.3c0.4-0.2,0.8-0.5,1.1-0.8c0.2-0.2,0.3-0.3,0.5-0.5C415,245.1,415.2,244.7,415.4,244.3z M286.1,275.2
	l-27.8-27.8h115.3L286.1,275.2z M115.3,247.4h115.3l-27.8,27.8L115.3,247.4z M202.8,208.1l27.8,27.8H115.3L202.8,208.1z M278,200
	l-27.8,27.8V112.6L278,200z M238.7,227.9L210.9,200l27.8-87.5V227.9z M210.9,283.3l27.8-27.8v115.3L210.9,283.3z M250.2,255.5
	l27.8,27.8l-27.8,87.5V255.5z M258.3,236l27.8-27.8l87.5,27.8H258.3z M295.2,199l18.8-18.8l-11,21.3L295.2,199z M305.9,172.1
	l-18.8,18.8l-2.5-7.8L305.9,172.1z M201.8,190.9L183,172.1l21.3,11L201.8,190.9z M174.9,180.2l18.8,18.8l-7.8,2.5L174.9,180.2z
	 M193.7,284.3l-18.8,18.8l11-21.3L193.7,284.3z M183,311.2l18.8-18.8l2.5,7.8L183,311.2z M287.1,292.4l18.8,18.8l-21.3-11
	L287.1,292.4z M314,303.2l-18.8-18.8l7.8-2.5L314,303.2z"/>
<g>
	<linearGradient id="SVGID_2_" gradientUnits="userSpaceOnUse" x1="234.5" y1="29.4" x2="254.3" y2="29.4">
		<stop  offset="0" style="stop-color:#AA0071"/>
		<stop  offset="0.4693" style="stop-color:#E900D7"/>
		<stop  offset="1" style="stop-color:#EC7FFF"/>
	</linearGradient>
	<path class="st1" d="M234.5,49.2V9.6h5.4l8.6,23.9h0.1V9.6h5.7v39.6H249l-8.7-23.8h-0.1v23.8C240.2,49.2,234.5,49.2,234.5,49.2z"/>
</g>
<g>
	<linearGradient id="SVGID_3_" gradientUnits="userSpaceOnUse" x1="438.7" y1="235.7" x2="455.6" y2="235.7">
		<stop  offset="0" style="stop-color:#AA0071"/>
		<stop  offset="0.4693" style="stop-color:#E900D7"/>
		<stop  offset="1" style="stop-color:#EC7FFF"/>
	</linearGradient>
	<path class="st2" d="M438.7,255.5v-39.6h16.9v5.3h-11.2v11.6h9.8v5.3h-9.8v11.6h11.2v5.7L438.7,255.5L438.7,255.5z"/>
</g>
<g>
	<linearGradient id="SVGID_4_" gradientUnits="userSpaceOnUse" x1="233.5" y1="449.1" x2="253.1" y2="449.1">
		<stop  offset="0" style="stop-color:#AA0071"/>
		<stop  offset="0.4693" style="stop-color:#E900D7"/>
		<stop  offset="1" style="stop-color:#EC7FFF"/>
	</linearGradient>
	<path class="st3" d="M253.1,440.9h-5.7v-1.3c0-1.3-0.3-2.4-0.9-3.4c-0.6-0.9-1.6-1.4-3.1-1.4c-0.8,0-1.4,0.1-1.9,0.4
		s-0.9,0.7-1.2,1.1c-0.3,0.5-0.5,1-0.6,1.6s-0.2,1.3-0.2,1.9c0,0.8,0,1.4,0.1,1.9s0.2,1,0.4,1.4s0.5,0.8,1,1.1
		c0.4,0.3,1,0.6,1.8,0.9l4.3,1.7c1.3,0.5,2.3,1,3.1,1.7s1.4,1.4,1.8,2.3c0.4,0.9,0.7,1.9,0.8,3s0.2,2.4,0.2,3.9
		c0,1.7-0.2,3.2-0.5,4.6s-0.9,2.6-1.6,3.6c-0.8,1-1.8,1.9-3.1,2.4c-1.3,0.6-2.8,0.9-4.6,0.9c-1.4,0-2.7-0.2-3.8-0.7
		c-1.2-0.5-2.2-1.1-3.1-2c-0.9-0.9-1.5-1.8-2-3c-0.5-1.1-0.8-2.4-0.8-3.7v-2.1h5.7v1.8c0,1,0.3,2,0.9,2.8c0.6,0.8,1.6,1.3,3.1,1.3
		c1,0,1.7-0.1,2.3-0.4c0.5-0.3,1-0.7,1.3-1.2s0.5-1.1,0.5-1.9c0.1-0.7,0.1-1.5,0.1-2.4c0-1,0-1.9-0.1-2.6s-0.2-1.2-0.4-1.6
		c-0.3-0.4-0.6-0.7-1-1s-1-0.5-1.7-0.8l-4.1-1.7c-2.4-1-4.1-2.3-4.9-4c-0.8-1.6-1.3-3.7-1.3-6.2c0-1.5,0.2-2.9,0.6-4.2
		s1-2.5,1.8-3.4c0.8-1,1.8-1.7,3-2.3c1.2-0.6,2.6-0.9,4.3-0.9c1.4,0,2.7,0.3,3.9,0.8s2.2,1.2,3,2.1c1.7,1.8,2.6,3.8,2.6,6.1
		L253.1,440.9L253.1,440.9z"/>
</g>
<g>
	<linearGradient id="SVGID_5_" gradientUnits="userSpaceOnUse" x1="23.4" y1="235.7" x2="54.6" y2="235.7">
		<stop  offset="0" style="stop-color:#AA0071"/>
		<stop  offset="0.4693" style="stop-color:#E900D7"/>
		<stop  offset="1" style="stop-color:#EC7FFF"/>
	</linearGradient>
	<path class="st4" d="M54.6,215.9l-5.9,39.6h-5.3L39,229.8h-0.1l-4.3,25.7h-5.3l-5.9-39.6h6l2.8,25.1h0.1l4.4-25.1H41l4.6,25.7h0.1
		l2.7-25.7H54.6z"/>
</g>
</svg>
